<?xml version="1.0" encoding="utf-8"?>
<!-- Generator: Adobe Illustrator 19.1.0, SVG Export Plug-In . SVG Version: 6.00 Build 0)  -->
<svg version="1.1" baseProfile="tiny" id="Layer_1" xmlns="http://www.w3.org/2000/svg" xmlns:xlink="http://www.w3.org/1999/xlink"
	 x="0px" y="0px" viewBox="-215 433 360 360" xml:space="preserve">
<g>
	<path fill="#4D3E21" d="M124.9,509.3c0-2-0.1-4-0.6-5.8c-2.4-8.7-9.2-13.5-19.1-13.5c-46.6,0-93.2,0-139.8,0c-14.9,0-29.8,0-44.6,0
		c-32.1,0-64.2,0.2-96.2-0.1c-12.1-0.1-19.6,9.5-19.6,18.7c0.1,69.6,0.1,139.3,0.1,208.9c0,10.7,7.5,18.1,18.1,18.4
		c5.2,0.1,10.5,0,15.7,0c88.8,0,177.6-0.1,266.4,0.1c11.5,0,19.7-8.8,19.7-19.6C124.8,647.4,124.9,578.4,124.9,509.3z M112.8,715.5
		c0,6.4-2,8.4-8.2,8.4c-93,0-186,0-278.9,0c-6.8,0-8.6-1.9-8.6-8.7c0-68.2,0-136.4,0-204.7c0-6.5,1.9-8.4,8.5-8.4
		c46.5,0,93,0,139.5,0c46.4,0,92.7,0,139.1,0c6.8,0,8.6,1.9,8.6,8.7C112.8,579,112.9,647.3,112.8,715.5z"/>
	<path fill="#4D3E21" d="M-133.3,711.2c8.2,0,16.1,0,24.1,0c0-65.5,0-130.9,0-196.4c-8.1,0-16.1,0-24.1,0
		C-133.3,580.4-133.3,645.7-133.3,711.2z"/>
	<path fill="#4D3E21" d="M-59.3,711.2c8.2,0,16.1,0,24.1,0c0-65.6,0-130.9,0-196.4c-8.1,0-15.9,0-24.1,0
		C-59.3,580.4-59.3,645.8-59.3,711.2z"/>
	<path fill="#4D3E21" d="M63.8,711.2c8,0,15.8,0,23.8,0c0-65.7,0-131,0-196.3c-8.1,0-15.9,0-23.8,0
		C63.8,580.5,63.8,645.8,63.8,711.2z"/>
	<path fill="#4D3E21" d="M-157.7,711.3c4,0,7.6,0,11.6,0c0-65.7,0-131.1,0-196.4c-4,0-7.8,0-11.6,0
		C-157.7,580.4-157.7,645.8-157.7,711.3z"/>
	<path fill="#4D3E21" d="M-83.9,711.2c4,0,7.8,0,11.7,0c0-65.5,0-130.9,0-196.4c-3.9,0-7.7,0-11.7,0
		C-83.9,580.4-83.9,645.8-83.9,711.2z"/>
	<path fill="#4D3E21" d="M-22.3,711.1c4,0,7.8,0,11.5,0c0-65.6,0-130.9,0-196.4c-3.9,0-7.6,0-11.5,0
		C-22.3,580.4-22.3,645.8-22.3,711.1z"/>
	<path fill="#4D3E21" d="M2.2,711.2c4,0,7.8,0,11.7,0c0-65.6,0-130.9,0-196.4c-4,0-7.8,0-11.7,0C2.2,580.4,2.2,645.8,2.2,711.2z"/>
	<path fill="#4D3E21" d="M39.2,711.3c3.9,0,7.6,0,11.6,0c0-65.7,0-131.1,0-196.4c-4,0-7.8,0-11.6,0
		C39.2,580.4,39.2,645.8,39.2,711.3z"/>
</g>
</svg>
