<?xml version="1.0" encoding="utf-8"?>
<!-- Generator: Adobe Illustrator 19.1.0, SVG Export Plug-In . SVG Version: 6.00 Build 0)  -->
<svg version="1.1" baseProfile="tiny" id="Layer_1" xmlns="http://www.w3.org/2000/svg" xmlns:xlink="http://www.w3.org/1999/xlink"
	 x="0px" y="0px" viewBox="0 0 360 360" xml:space="preserve">
<g>
	<path fill="#31A5DD" d="M309.9,317.4c0-67.7,0-134.9,0-202.1c-44,0-87.4,0-130.8,0c0,5.4,0,10.4,0,15.8c39.4,0,78.4,0,117.6,0
		c0,62.2,0,124,0,185.9c-9,0-17.6,0-26.9,0c0-14.2,0-27.9,0-41.5c-5.2,0-9.9,0-15.1,0c0,14.1,0,27.8,0,41.5c-7.4,0-14,0-21.1,0
		c0-14.1,0-27.7,0-41.4c-5.2,0-9.9,0-15.3,0c0,14.1,0,27.9,0,41.6c-8,0-15.3,0-23.3,0c0-14.1,0-27.8,0-41.5c-5.4,0-10.1,0-15.3,0
		c0,14.1,0,27.6,0,41.4c-7.5,0-14.6,0-22.1,0c0-84.3,0-168.2,0-252c-37.2,0-74,0-111.3,0c0,84.3,0,168.2,0,252
		c-7.5,0.9-11.6,5.8-11,12.3c96.1,0,192.2,0,289.6,0C320.1,323.6,319.4,315.6,309.9,317.4z M61.9,90c26.8,0,53.2,0,80.1,0
		c0,6.1,0,12.1,0,18.5c-26.6,0-53.1,0-80.1,0C61.9,102.4,61.9,96.5,61.9,90z M61.7,134.7c26.8,0,53.3,0,80.3,0c0,4.8,0,9.5,0,14.7
		c-26.6,0-53.2,0-80.3,0C61.7,144.3,61.7,139.7,61.7,134.7z M61.7,175.6c26.7,0,53.3,0,80.2,0c0,5.2,0,10.3,0,15.9
		c-26.5,0-53.1,0-80.2,0C61.7,186.1,61.7,181.1,61.7,175.6z M116.4,316.9c-9.5,0-18.9,0-28.7,0c0-7.9,0-15.7,0-24
		c9.3,0,18.7,0,28.7,0C116.4,301,116.4,308.7,116.4,316.9z M142.1,275.9c-26.7,0-53.2,0-80.1,0c0-5.1,0-10.2,0-15.8
		c26.4,0,53.1,0,80.1,0C142.1,265.6,142.1,270.6,142.1,275.9z M142.1,233.8c-26.7,0-53.2,0-80.2,0c0-5.2,0-10.3,0-15.9
		c26.5,0,53,0,80.2,0C142.1,223.3,142.1,228.3,142.1,233.8z"/>
	<path fill="#31A5DD" d="M237.5,96.7c4.7,0,8.8,0,13.4,0c0-22.4,0-44.3,0-65.9c-42.9,0-85.4,0-128,0c0,5.3,0,10.3,0,15.8
		c38.2,0,76.1,0,114.7,0C237.5,63.7,237.5,80.1,237.5,96.7z"/>
	<path fill="#31A5DD" d="M255.1,170.3c5,0,9.7,0,14.7,0c0-4.9,0-9.5,0-14.2c-5.2,0-9.8,0-14.7,0C255.1,161,255.1,165.6,255.1,170.3z
		"/>
	<path fill="#31A5DD" d="M233.5,156.2c-5.2,0-9.8,0-14.5,0c0,5,0,9.7,0,14.2c5.1,0,9.7,0,14.5,0
		C233.5,165.4,233.5,160.9,233.5,156.2z"/>
	<path fill="#31A5DD" d="M180.1,209c5.2,0,9.8,0,14.5,0c0-5.1,0-9.8,0-14.3c-5,0-9.6,0-14.5,0C180.1,199.6,180.1,204.1,180.1,209z"
		/>
	<path fill="#31A5DD" d="M219,208.9c5.1,0,9.6,0,14.5,0c0-4.9,0-9.5,0-14.2c-5.2,0-9.8,0-14.5,0C219,199.8,219,204.5,219,208.9z"/>
	<path fill="#31A5DD" d="M255.1,209c5.2,0,9.8,0,14.6,0c0-5,0-9.7,0-14c-5.1,0-9.8,0-14.6,0C255.1,199.9,255.1,204.3,255.1,209z"/>
	<path fill="#31A5DD" d="M194.7,156.1c-4.9,0-9.5,0-14.5,0c0,5.2,0,9.7,0,14.2c5.1,0,9.8,0,14.5,0
		C194.7,165.2,194.7,160.7,194.7,156.1z"/>
	<path fill="#31A5DD" d="M180.1,251c5,0,9.7,0,14.5,0c0-5.1,0-9.8,0-14.3c-4.9,0-9.3,0-14.5,0C180.1,241.8,180.1,246.4,180.1,251z"
		/>
	<path fill="#31A5DD" d="M218.7,251c5.1,0,9.8,0,14.7,0c0-5,0-9.5,0-14.1c-5,0-9.7,0-14.7,0C218.7,241.7,218.7,246.1,218.7,251z"/>
	<path fill="#31A5DD" d="M255.2,250.8c5.1,0,9.8,0,14.7,0c0-4.9,0-9.3,0-13.8c-5.2,0-9.8,0-14.7,0
		C255.2,241.9,255.2,246.4,255.2,250.8z"/>
</g>
</svg>
