<?xml version="1.0" encoding="utf-8"?>
<!-- Generator: Adobe Illustrator 19.1.0, SVG Export Plug-In . SVG Version: 6.00 Build 0)  -->
<svg version="1.1" id="Layer_1" xmlns="http://www.w3.org/2000/svg" xmlns:xlink="http://www.w3.org/1999/xlink" x="0px" y="0px"
	 viewBox="0 0 300 300" style="enable-background:new 0 0 300 300;" xml:space="preserve">
<style type="text/css">
	.st0{fill-rule:evenodd;clip-rule:evenodd;fill:#B7B3B5;}
	.st1{fill-rule:evenodd;clip-rule:evenodd;fill:#FFFFFF;}
</style>
<path class="st0" d="M232.4,90.8c6.1-0.4,12.2-0.3,18.2,0.1c4.3,0.3,7,4,6.9,8.3c-0.1,3.9-3.2,7.1-7.3,7.6c-0.3,0-0.7,0.1-1,0.1
	c-2.7,0-5.5,0-8.2,0c0,0,0,0,0,0c-2.5,0-5,0.1-7.6,0c-5-0.1-8.3-3.1-8.6-7.4C224.5,94.7,227.2,91.1,232.4,90.8z M191.7,48.2
	c0.2-4.1,3.7-7.1,7.9-7.2c3.8-0.1,7.3,2.8,8,6.6c0.1,0.6,0.3,1.2,0.3,1.9c0,2.7,0,5.3,0,8c-0.1,0-0.1,0-0.2,0c0,3.1,0.3,6.2-0.1,9.2
	c-0.5,4.6-4,7.3-8.6,7.1c-3.9-0.1-7.3-3.3-7.4-7.7C191.5,60.1,191.5,54.1,191.7,48.2z M158.4,49.5c0.1-5,3.4-8.4,8.2-8.6
	c4.4-0.1,8,3.5,8.2,8.4c0.1,2.7,0,5.5,0,8.2c0,2.5,0,5,0,7.6c-0.1,5.3-3.5,8.6-8.5,8.6c-4.5,0-7.8-3.6-7.8-8.6
	C158.3,59.9,158.3,54.7,158.4,49.5z M125.3,49c0.1-4.7,3.7-8,8.3-8c4.2,0,7.7,3.4,7.9,7.9c0.2,2.9,0,5.7,0,8.6c0,0,0,0,0,0
	c0,2.6,0,5.2,0,7.8c-0.1,5.1-3.3,8.4-8.2,8.4c-4.4,0.1-7.9-3.3-8.1-8.1C125.1,60,125.1,54.5,125.3,49z M92.4,47.9
	c0.3-4.3,4.1-7,8.4-6.9c3.9,0.1,7.1,3.3,7.6,7.4c0,0.3,0.1,0.7,0.1,1c0,2.7,0,5.5,0,8.2c0,0,0,0,0,0c0,2.5,0,4.9,0,7.4
	c-0.1,5-3,8.4-7.3,8.7c-5,0.4-8.6-2.3-8.9-7.6C91.9,60,92,53.9,92.4,47.9z M42.3,97.2c0.5-0.9,0.9-1.9,1.4-2.7
	c1.5-2.3,3.7-3.7,6.4-3.8c6.1-0.1,12.2-0.2,18.3,0.2c4.3,0.3,6.9,3.9,6.8,8.4c-0.1,3.8-3.1,7.3-7.2,7.5c-6.2,0.2-12.5,0.2-18.7,0
	c-2.7-0.1-4.8-1.9-6-4.3c-0.4-0.9-0.7-1.8-1-2.7C42.3,98.9,42.3,98,42.3,97.2z M42.3,130.4c0.5-0.9,0.8-1.9,1.4-2.8
	c1.7-2.7,4.3-3.9,7.5-3.9c5.2,0,10.4-0.1,15.6,0c5.1,0.1,8.5,3.4,8.5,8.4c0,4.4-3.5,7.8-8.3,7.9c-5.4,0.1-10.8,0.1-16.2,0
	c-4.7-0.1-7.1-2.9-8.4-7.1C42.3,132.1,42.3,131.3,42.3,130.4z M42.3,163.7c0.5-1,0.9-2,1.5-3c1.7-2.6,4.2-3.8,7.3-3.8
	c5.2,0,10.4-0.1,15.6,0c5.1,0.1,8.4,3.2,8.6,8.1c0.1,4.6-3.2,8.1-8.2,8.2c-5.5,0.2-10.9,0.1-16.4,0c-4.5-0.1-7-3-8.3-7.1
	C42.3,165.3,42.3,164.5,42.3,163.7z M70.5,205.6c-1.4,0.6-3.1,0.8-4.7,0.9c-4.1,0.1-8.3-0.1-12.4,0.1c-5.5,0.3-9.4-1.6-11.1-7.1
	c0-0.8,0-1.7,0-2.5c0.5-1,0.8-2.1,1.4-3c1.5-2.4,3.8-3.8,6.6-3.8c5.7-0.1,11.5-0.1,17.2,0c3.9,0.1,6.9,2.9,7.5,6.4
	C75.8,200.5,74.1,204,70.5,205.6z M108.2,249.1c-0.2,4.1-3.4,6-7,7.1c-0.8,0-1.7,0-2.5,0c-0.9-0.5-1.9-0.9-2.7-1.4
	c-2.3-1.5-3.7-3.7-3.8-6.4c-0.1-6.1-0.2-12.2,0.2-18.3c0.3-4.3,3.9-6.9,8.4-6.8c3.8,0.1,7.3,3.1,7.5,7.1
	C108.5,236.6,108.6,242.9,108.2,249.1z M141.6,247.8c-0.1,4.7-2.9,7.2-7.1,8.4c-0.8,0-1.7,0-2.5,0c-0.9-0.5-1.9-0.8-2.8-1.4
	c-2.6-1.7-3.9-4.2-3.9-7.2c-0.1-5.3-0.1-10.7,0-16c0.1-5,3.5-8.3,8.4-8.3c4.4,0,7.8,3.4,7.9,8.3C141.7,237,141.7,242.4,141.6,247.8z
	 M174.7,247.9c-0.1,4.6-3,7-7.1,8.3c-0.8,0-1.7,0-2.5,0c-1-0.5-2-0.9-3-1.5c-2.6-1.7-3.8-4.2-3.8-7.3c0-5.2-0.1-10.4,0-15.6
	c0.1-5.1,3.3-8.5,8.1-8.6c4.6-0.1,8.1,3.2,8.2,8.2C174.9,237,174.9,242.4,174.7,247.9z M200.9,256.2c-0.8,0-1.7,0-2.5,0
	c-1-0.5-2.1-0.8-3-1.4c-2.4-1.5-3.8-3.8-3.8-6.6c-0.1-5.7-0.1-11.5,0-17.2c0.1-3.9,2.9-6.9,6.4-7.5c3.9-0.7,7.4,1,9,4.6
	c0.6,1.4,0.8,3.1,0.9,4.7c0.1,4.2-0.1,8.4,0.1,12.6C208.2,250.7,206.3,254.5,200.9,256.2z M216.2,204c0,1,0,2.1-0.1,3.1
	c-0.4,3.8-3.5,6.9-7.3,7.4c-1,0.1-2.1,0.1-3.1,0.1c-37.1,0-74.2,0-111.2,0c-1.3,0-2.5,0-3.8-0.2c-3.5-0.7-6.3-3.8-6.7-7.5
	c-0.1-1-0.1-2-0.1-2.9c0-37,0-74,0-111c0-1.3,0-2.7,0.3-4c0.7-3.6,3.9-6.2,7.6-6.6c1-0.1,2.1-0.1,3.1-0.1c18.4,0,36.9,0,55.3,0
	c18.6,0,37.2,0,55.7,0c1.8,0,3.8,0.3,5.5,1c2.8,1.2,4.4,3.6,4.7,6.7c0.1,1,0.1,2,0.1,2.9C216.2,130,216.2,167,216.2,204z
	 M249.1,206.4c-5.4,0.2-10.8,0.2-16.2,0c-4.2-0.1-7.4-2.8-8.1-6.4c-0.7-3.8,0.9-7.5,4.5-9c1.6-0.7,3.5-0.8,5.3-0.9
	c2.2-0.1,4.3,0,6.5,0c2.5,0,4.9,0,7.4,0c5.4,0.1,8.8,3.3,9,8.2C257.6,202.6,254.1,206.2,249.1,206.4z M224.8,164.8
	c0-4.2,3.2-7.5,7.8-7.8c2.9-0.2,5.9,0,8.8,0c0,0,0,0,0,0c2.5,0,5,0,7.6,0c5,0.1,8.5,3.4,8.6,8.2c0.1,4.3-3.3,8-8.1,8.2
	c-5.6,0.2-11.2,0.2-16.8,0C227.9,173,224.8,169.5,224.8,164.8z M249.6,140.1c-2.9,0.1-5.7,0-8.6,0c0,0,0,0,0,0c-2.5,0-5,0-7.6,0
	c-5.1-0.1-8.4-3.3-8.6-8.1c-0.1-4.6,3.2-8.1,8.2-8.2c5.5-0.2,10.9-0.1,16.4,0c4.8,0.1,8.1,3.8,8.1,8.4
	C257.5,136.4,254.1,139.8,249.6,140.1z"/>
</svg>
