<?xml version="1.0" encoding="utf-8"?>
<!-- Generator: Adobe Illustrator 19.1.0, SVG Export Plug-In . SVG Version: 6.00 Build 0)  -->
<svg version="1.1" baseProfile="tiny" id="Layer_1" xmlns="http://www.w3.org/2000/svg" xmlns:xlink="http://www.w3.org/1999/xlink"
	 x="0px" y="0px" viewBox="0 0 360 360" xml:space="preserve">
<g>
	<path fill-rule="evenodd" d="M301.7,219.1c-39.8-39.9-79.7-79.8-119.5-119.6c-0.7-0.7-1.5-1.4-2.2-2.1c-0.5,0.3-0.7,0.5-0.9,0.7
		c-40.6,40.6-81.2,81.2-121.8,121.8c-0.8,0.8-1.3,2.2-1.3,3.3c-0.1,19.7-0.2,68.4,0,88.1c0,0.6,0,2.1,0.1,2.1h90.1
		c-0.1,0-0.2-1.7-0.2-2.5c0-21.8,0-36.4,0-58.2c0-7.8,4.6-12.4,12.5-12.4c14.2,0,28.4-0.1,42.6,0c8,0,12.5,4.6,12.6,12.6
		c0,10.9,0,47.2,0,58c0,0.8-0.1,2.6-0.2,2.6h90.1c0.1,0,0.1-2,0.1-3c0.1-19.3,0.1-67.3-0.1-86.5
		C303.7,222.3,302.8,220.3,301.7,219.1z"/>
	<path fill-rule="evenodd" d="M281,143.3c0,0,0.2-59,0.2-84.7c0-7.3-4.5-11.8-11.7-11.9c-2.9,0-5.7,0.2-8.6,0
		C252,46,247.5,52.1,247.6,60c0.2,16.1,0.1,32.2,0.1,48.4c0,1,0,2.1,0,3.1c0,0.2-0.8,0.4-1.1,0.6c-0.6-0.9-1.1-1.8-1.8-2.6
		c-18.5-18.5-37-37-55.5-55.5c-6.2-6.2-12.5-6.2-18.7-0.1C127.4,97.1,63.2,162.5,20.1,205.7c-1.1,1.1,15.7,15.8,15.7,15.8
		S137.2,118.9,177.5,78.7c0.8-0.8,1.6-1.5,2.8-2.6c0.9,1.1,1.6,2.1,2.4,2.9c40.1,40.1,144,143.3,144,143.3l13.4-17.7L281,143.3z"/>
</g>
</svg>
