<?xml version="1.0" encoding="utf-8"?>
<!-- Generator: Adobe Illustrator 19.1.0, SVG Export Plug-In . SVG Version: 6.00 Build 0)  -->
<svg version="1.1" baseProfile="tiny" id="Layer_1" xmlns="http://www.w3.org/2000/svg" xmlns:xlink="http://www.w3.org/1999/xlink"
	 x="0px" y="0px" viewBox="0 0 360 360" xml:space="preserve">
<g>
	<rect x="110.9" y="110.9" fill="#956EB0" width="138.2" height="138.2"/>
	<path fill="#956EB0" d="M34,34v292h292V34H34z M230.5,42.9c4.5,0,8.2,3.7,8.2,8.2c0,4.5-3.7,8.2-8.2,8.2c-4.5,0-8.2-3.7-8.2-8.2
		C222.3,46.5,225.9,42.9,230.5,42.9z M230.5,68.7c4.5,0,8.2,3.7,8.2,8.2c0,4.5-3.7,8.2-8.2,8.2c-4.5,0-8.2-3.7-8.2-8.2
		C222.3,72.3,225.9,68.7,230.5,68.7z M262.8,97.2v165.6H97.2V97.2H262.8z M205.2,42.9c4.5,0,8.2,3.7,8.2,8.2c0,4.5-3.7,8.2-8.2,8.2
		s-8.2-3.7-8.2-8.2C197,46.5,200.7,42.9,205.2,42.9z M205.2,68.7c4.5,0,8.2,3.7,8.2,8.2c0,4.5-3.7,8.2-8.2,8.2s-8.2-3.7-8.2-8.2
		C197,72.3,200.7,68.7,205.2,68.7z M179.9,42.9c4.5,0,8.2,3.7,8.2,8.2c0,4.5-3.7,8.2-8.2,8.2c-4.5,0-8.2-3.7-8.2-8.2
		C171.7,46.5,175.4,42.9,179.9,42.9z M179.9,68.7c4.5,0,8.2,3.7,8.2,8.2c0,4.5-3.7,8.2-8.2,8.2c-4.5,0-8.2-3.7-8.2-8.2
		C171.7,72.3,175.4,68.7,179.9,68.7z M154.7,42.9c4.5,0,8.2,3.7,8.2,8.2c0,4.5-3.7,8.2-8.2,8.2s-8.2-3.7-8.2-8.2
		C146.5,46.5,150.1,42.9,154.7,42.9z M154.7,68.7c4.5,0,8.2,3.7,8.2,8.2c0,4.5-3.7,8.2-8.2,8.2s-8.2-3.7-8.2-8.2
		C146.5,72.3,150.1,68.7,154.7,68.7z M129.4,42.9c4.5,0,8.2,3.7,8.2,8.2c0,4.5-3.7,8.2-8.2,8.2c-4.5,0-8.2-3.7-8.2-8.2
		C121.2,46.5,124.9,42.9,129.4,42.9z M129.4,68.7c4.5,0,8.2,3.7,8.2,8.2c0,4.5-3.7,8.2-8.2,8.2c-4.5,0-8.2-3.7-8.2-8.2
		C121.2,72.3,124.9,68.7,129.4,68.7z M104.1,42.9c4.5,0,8.2,3.7,8.2,8.2c0,4.5-3.7,8.2-8.2,8.2s-8.2-3.7-8.2-8.2
		C95.9,46.5,99.6,42.9,104.1,42.9z M104.1,68.7c4.5,0,8.2,3.7,8.2,8.2c0,4.5-3.7,8.2-8.2,8.2s-8.2-3.7-8.2-8.2
		C95.9,72.3,99.6,68.7,104.1,68.7z M53.6,317.1c-4.5,0-8.2-3.7-8.2-8.2c0-4.5,3.7-8.2,8.2-8.2s8.2,3.7,8.2,8.2
		C61.8,313.5,58.1,317.1,53.6,317.1z M53.6,291.3c-4.5,0-8.2-3.7-8.2-8.2c0-4.5,3.7-8.2,8.2-8.2s8.2,3.7,8.2,8.2
		C61.8,287.7,58.1,291.3,53.6,291.3z M53.6,265.5c-4.5,0-8.2-3.7-8.2-8.2c0-4.5,3.7-8.2,8.2-8.2s8.2,3.7,8.2,8.2
		C61.8,261.9,58.1,265.5,53.6,265.5z M53.6,239.8c-4.5,0-8.2-3.7-8.2-8.2c0-4.5,3.7-8.2,8.2-8.2s8.2,3.7,8.2,8.2
		C61.8,236.1,58.1,239.8,53.6,239.8z M53.6,214c-4.5,0-8.2-3.7-8.2-8.2c0-4.5,3.7-8.2,8.2-8.2s8.2,3.7,8.2,8.2
		C61.8,210.3,58.1,214,53.6,214z M53.6,188.2c-4.5,0-8.2-3.7-8.2-8.2c0-4.5,3.7-8.2,8.2-8.2s8.2,3.7,8.2,8.2
		C61.8,184.5,58.1,188.2,53.6,188.2z M53.6,162.4c-4.5,0-8.2-3.7-8.2-8.2c0-4.5,3.7-8.2,8.2-8.2s8.2,3.7,8.2,8.2
		C61.8,158.7,58.1,162.4,53.6,162.4z M53.6,136.6c-4.5,0-8.2-3.7-8.2-8.2c0-4.5,3.7-8.2,8.2-8.2s8.2,3.7,8.2,8.2
		C61.8,132.9,58.1,136.6,53.6,136.6z M53.6,110.8c-4.5,0-8.2-3.7-8.2-8.2c0-4.5,3.7-8.2,8.2-8.2s8.2,3.7,8.2,8.2
		C61.8,107.2,58.1,110.8,53.6,110.8z M53.6,85c-4.5,0-8.2-3.7-8.2-8.2c0-4.5,3.7-8.2,8.2-8.2s8.2,3.7,8.2,8.2
		C61.8,81.4,58.1,85,53.6,85z M53.6,59.3c-4.5,0-8.2-3.7-8.2-8.2c0-4.5,3.7-8.2,8.2-8.2s8.2,3.7,8.2,8.2
		C61.8,55.6,58.1,59.3,53.6,59.3z M78.9,317.1c-4.5,0-8.2-3.7-8.2-8.2c0-4.5,3.7-8.2,8.2-8.2s8.2,3.7,8.2,8.2
		C87,313.5,83.4,317.1,78.9,317.1z M78.9,291.3c-4.5,0-8.2-3.7-8.2-8.2c0-4.5,3.7-8.2,8.2-8.2s8.2,3.7,8.2,8.2
		C87,287.7,83.4,291.3,78.9,291.3z M78.9,265.5c-4.5,0-8.2-3.7-8.2-8.2c0-4.5,3.7-8.2,8.2-8.2s8.2,3.7,8.2,8.2
		C87,261.9,83.4,265.5,78.9,265.5z M78.9,239.8c-4.5,0-8.2-3.7-8.2-8.2c0-4.5,3.7-8.2,8.2-8.2s8.2,3.7,8.2,8.2
		C87,236.1,83.4,239.8,78.9,239.8z M78.9,214c-4.5,0-8.2-3.7-8.2-8.2c0-4.5,3.7-8.2,8.2-8.2s8.2,3.7,8.2,8.2
		C87,210.3,83.4,214,78.9,214z M78.9,188.2c-4.5,0-8.2-3.7-8.2-8.2c0-4.5,3.7-8.2,8.2-8.2s8.2,3.7,8.2,8.2
		C87,184.5,83.4,188.2,78.9,188.2z M78.9,162.4c-4.5,0-8.2-3.7-8.2-8.2c0-4.5,3.7-8.2,8.2-8.2s8.2,3.7,8.2,8.2
		C87,158.7,83.4,162.4,78.9,162.4z M78.9,136.6c-4.5,0-8.2-3.7-8.2-8.2c0-4.5,3.7-8.2,8.2-8.2s8.2,3.7,8.2,8.2
		C87,132.9,83.4,136.6,78.9,136.6z M78.9,110.8c-4.5,0-8.2-3.7-8.2-8.2c0-4.5,3.7-8.2,8.2-8.2s8.2,3.7,8.2,8.2
		C87,107.2,83.4,110.8,78.9,110.8z M78.9,85c-4.5,0-8.2-3.7-8.2-8.2c0-4.5,3.7-8.2,8.2-8.2s8.2,3.7,8.2,8.2C87,81.4,83.4,85,78.9,85
		z M78.9,59.3c-4.5,0-8.2-3.7-8.2-8.2c0-4.5,3.7-8.2,8.2-8.2s8.2,3.7,8.2,8.2C87,55.6,83.4,59.3,78.9,59.3z M104.1,317.1
		c-4.5,0-8.2-3.7-8.2-8.2c0-4.5,3.7-8.2,8.2-8.2s8.2,3.7,8.2,8.2C112.3,313.5,108.7,317.1,104.1,317.1z M104.1,291.3
		c-4.5,0-8.2-3.7-8.2-8.2c0-4.5,3.7-8.2,8.2-8.2s8.2,3.7,8.2,8.2C112.3,287.7,108.7,291.3,104.1,291.3z M129.4,317.1
		c-4.5,0-8.2-3.7-8.2-8.2c0-4.5,3.7-8.2,8.2-8.2c4.5,0,8.2,3.7,8.2,8.2C137.6,313.5,133.9,317.1,129.4,317.1z M129.4,291.3
		c-4.5,0-8.2-3.7-8.2-8.2c0-4.5,3.7-8.2,8.2-8.2c4.5,0,8.2,3.7,8.2,8.2C137.6,287.7,133.9,291.3,129.4,291.3z M154.7,317.1
		c-4.5,0-8.2-3.7-8.2-8.2c0-4.5,3.7-8.2,8.2-8.2s8.2,3.7,8.2,8.2C162.9,313.5,159.2,317.1,154.7,317.1z M154.7,291.3
		c-4.5,0-8.2-3.7-8.2-8.2c0-4.5,3.7-8.2,8.2-8.2s8.2,3.7,8.2,8.2C162.9,287.7,159.2,291.3,154.7,291.3z M179.9,317.1
		c-4.5,0-8.2-3.7-8.2-8.2c0-4.5,3.7-8.2,8.2-8.2c4.5,0,8.2,3.7,8.2,8.2C188.1,313.5,184.5,317.1,179.9,317.1z M179.9,291.3
		c-4.5,0-8.2-3.7-8.2-8.2c0-4.5,3.7-8.2,8.2-8.2c4.5,0,8.2,3.7,8.2,8.2C188.1,287.7,184.5,291.3,179.9,291.3z M205.2,317.1
		c-4.5,0-8.2-3.7-8.2-8.2c0-4.5,3.7-8.2,8.2-8.2s8.2,3.7,8.2,8.2C213.4,313.5,209.7,317.1,205.2,317.1z M205.2,291.3
		c-4.5,0-8.2-3.7-8.2-8.2c0-4.5,3.7-8.2,8.2-8.2s8.2,3.7,8.2,8.2C213.4,287.7,209.7,291.3,205.2,291.3z M230.5,317.1
		c-4.5,0-8.2-3.7-8.2-8.2c0-4.5,3.7-8.2,8.2-8.2c4.5,0,8.2,3.7,8.2,8.2C238.7,313.5,235,317.1,230.5,317.1z M230.5,291.3
		c-4.5,0-8.2-3.7-8.2-8.2c0-4.5,3.7-8.2,8.2-8.2c4.5,0,8.2,3.7,8.2,8.2C238.7,287.7,235,291.3,230.5,291.3z M255.7,317.1
		c-4.5,0-8.2-3.7-8.2-8.2c0-4.5,3.7-8.2,8.2-8.2c4.5,0,8.2,3.7,8.2,8.2C263.9,313.5,260.3,317.1,255.7,317.1z M255.7,291.3
		c-4.5,0-8.2-3.7-8.2-8.2c0-4.5,3.7-8.2,8.2-8.2c4.5,0,8.2,3.7,8.2,8.2C263.9,287.7,260.3,291.3,255.7,291.3z M255.7,85
		c-4.5,0-8.2-3.7-8.2-8.2c0-4.5,3.7-8.2,8.2-8.2c4.5,0,8.2,3.7,8.2,8.2C263.9,81.4,260.3,85,255.7,85z M255.7,59.3
		c-4.5,0-8.2-3.7-8.2-8.2c0-4.5,3.7-8.2,8.2-8.2c4.5,0,8.2,3.7,8.2,8.2C263.9,55.6,260.3,59.3,255.7,59.3z M281,317.1
		c-4.5,0-8.2-3.7-8.2-8.2c0-4.5,3.7-8.2,8.2-8.2c4.5,0,8.2,3.7,8.2,8.2C289.2,313.5,285.5,317.1,281,317.1z M281,291.3
		c-4.5,0-8.2-3.7-8.2-8.2c0-4.5,3.7-8.2,8.2-8.2c4.5,0,8.2,3.7,8.2,8.2C289.2,287.7,285.5,291.3,281,291.3z M281,265.5
		c-4.5,0-8.2-3.7-8.2-8.2c0-4.5,3.7-8.2,8.2-8.2c4.5,0,8.2,3.7,8.2,8.2C289.2,261.9,285.5,265.5,281,265.5z M281,239.8
		c-4.5,0-8.2-3.7-8.2-8.2c0-4.5,3.7-8.2,8.2-8.2c4.5,0,8.2,3.7,8.2,8.2C289.2,236.1,285.5,239.8,281,239.8z M281,214
		c-4.5,0-8.2-3.7-8.2-8.2c0-4.5,3.7-8.2,8.2-8.2c4.5,0,8.2,3.7,8.2,8.2C289.2,210.3,285.5,214,281,214z M281,188.2
		c-4.5,0-8.2-3.7-8.2-8.2c0-4.5,3.7-8.2,8.2-8.2c4.5,0,8.2,3.7,8.2,8.2C289.2,184.5,285.5,188.2,281,188.2z M281,162.4
		c-4.5,0-8.2-3.7-8.2-8.2c0-4.5,3.7-8.2,8.2-8.2c4.5,0,8.2,3.7,8.2,8.2C289.2,158.7,285.5,162.4,281,162.4z M281,136.6
		c-4.5,0-8.2-3.7-8.2-8.2c0-4.5,3.7-8.2,8.2-8.2c4.5,0,8.2,3.7,8.2,8.2C289.2,132.9,285.5,136.6,281,136.6z M281,110.8
		c-4.5,0-8.2-3.7-8.2-8.2c0-4.5,3.7-8.2,8.2-8.2c4.5,0,8.2,3.7,8.2,8.2C289.2,107.2,285.5,110.8,281,110.8z M281,85
		c-4.5,0-8.2-3.7-8.2-8.2c0-4.5,3.7-8.2,8.2-8.2c4.5,0,8.2,3.7,8.2,8.2C289.2,81.4,285.5,85,281,85z M281,59.3
		c-4.5,0-8.2-3.7-8.2-8.2c0-4.5,3.7-8.2,8.2-8.2c4.5,0,8.2,3.7,8.2,8.2C289.2,55.6,285.5,59.3,281,59.3z M306.3,317.1
		c-4.5,0-8.2-3.7-8.2-8.2c0-4.5,3.7-8.2,8.2-8.2c4.5,0,8.2,3.7,8.2,8.2C314.5,313.5,310.8,317.1,306.3,317.1z M306.3,291.3
		c-4.5,0-8.2-3.7-8.2-8.2c0-4.5,3.7-8.2,8.2-8.2c4.5,0,8.2,3.7,8.2,8.2C314.5,287.7,310.8,291.3,306.3,291.3z M306.3,265.5
		c-4.5,0-8.2-3.7-8.2-8.2c0-4.5,3.7-8.2,8.2-8.2c4.5,0,8.2,3.7,8.2,8.2C314.5,261.9,310.8,265.5,306.3,265.5z M306.3,239.8
		c-4.5,0-8.2-3.7-8.2-8.2c0-4.5,3.7-8.2,8.2-8.2c4.5,0,8.2,3.7,8.2,8.2C314.5,236.1,310.8,239.8,306.3,239.8z M306.3,214
		c-4.5,0-8.2-3.7-8.2-8.2c0-4.5,3.7-8.2,8.2-8.2c4.5,0,8.2,3.7,8.2,8.2C314.5,210.3,310.8,214,306.3,214z M306.3,188.2
		c-4.5,0-8.2-3.7-8.2-8.2c0-4.5,3.7-8.2,8.2-8.2c4.5,0,8.2,3.7,8.2,8.2C314.5,184.5,310.8,188.2,306.3,188.2z M306.3,162.4
		c-4.5,0-8.2-3.7-8.2-8.2c0-4.5,3.7-8.2,8.2-8.2c4.5,0,8.2,3.7,8.2,8.2C314.5,158.7,310.8,162.4,306.3,162.4z M306.3,136.6
		c-4.5,0-8.2-3.7-8.2-8.2c0-4.5,3.7-8.2,8.2-8.2c4.5,0,8.2,3.7,8.2,8.2C314.5,132.9,310.8,136.6,306.3,136.6z M306.3,110.8
		c-4.5,0-8.2-3.7-8.2-8.2c0-4.5,3.7-8.2,8.2-8.2c4.5,0,8.2,3.7,8.2,8.2C314.5,107.2,310.8,110.8,306.3,110.8z M306.3,85
		c-4.5,0-8.2-3.7-8.2-8.2c0-4.5,3.7-8.2,8.2-8.2c4.5,0,8.2,3.7,8.2,8.2C314.5,81.4,310.8,85,306.3,85z M306.3,59.3
		c-4.5,0-8.2-3.7-8.2-8.2c0-4.5,3.7-8.2,8.2-8.2c4.5,0,8.2,3.7,8.2,8.2C314.5,55.6,310.8,59.3,306.3,59.3z"/>
</g>
</svg>
