<?xml version="1.0" encoding="utf-8"?>
<!-- Generator: Adobe Illustrator 19.1.0, SVG Export Plug-In . SVG Version: 6.00 Build 0)  -->
<svg version="1.1" baseProfile="tiny" id="Layer_1" xmlns="http://www.w3.org/2000/svg" xmlns:xlink="http://www.w3.org/1999/xlink"
	 x="0px" y="0px" viewBox="0 0 360 360" xml:space="preserve">
<g>
	<path fill="#4D3E21" d="M305.1,215.7c-1.9,0.1-2.4-0.7-3-2.3c-1.8-4.6-3.6-9.3-5.7-13.8c-0.9-1.8-0.6-2.7,0.7-3.9
		c4.3-4.1,8.5-8.3,12.5-12.2c-8.7-8.8-17.1-17.3-25.8-25.9c-4.1,4.1-8.2,8.3-12.5,12.4c-0.8,0.7-2.4,1.4-3.3,1.1
		c-4.5-1.5-8.9-3.4-13.5-4.9c-2.3-0.8-3.2-1.9-3.2-4.5c0.2-5.8,0.1-11.6,0.1-17.5c-12.2,0-24,0-36.2,0c0,6-0.1,11.8,0.1,17.6
		c0.1,2.5-0.7,3.8-3.1,4.5c-4.5,1.5-8.9,3.4-13.5,4.9c-0.9,0.3-2.4-0.2-3.1-0.9c-4.3-4.2-8.4-8.6-12.4-12.6
		c-8.8,8.8-17.3,17.3-26.1,26.1c4,3.9,8.2,8.1,12.5,12.2c1.4,1.3,1.5,2.2,0.7,4c-2.1,4.4-3.9,8.9-5.6,13.5c-0.7,1.9-1.5,2.5-3.6,2.4
		c-5.8-0.2-11.6-0.1-17.4-0.1c0,12.3,0,24.1,0,36.1c5.7,0,11.1,0.2,16.5-0.1c2.7-0.1,4,0.6,4.8,3.4c1.2,4,2.7,7.9,4.7,11.5
		c1.4,2.6,1.4,4-0.9,6c-4.2,3.7-8,7.8-11.5,11.3c8.8,8.8,17.2,17.3,25.9,26c3.9-4,8-8.3,12.3-12.4c0.7-0.7,2.3-1.3,3.1-1
		c4.6,1.5,9.1,3.4,13.8,5c2.1,0.7,2.9,1.8,2.8,4.1c-0.2,5.7-0.1,11.4-0.1,17.2c12.3,0,24.2,0,36.3,0c0-5.9,0.1-11.5,0-17.1
		c0-2.1,0.6-3.2,2.7-3.9c4-1.3,8.2-2.6,12-4.4c2.8-1.4,4.4-0.9,6.4,1.2c3.7,4,7.7,7.8,11,11.2c8.8-8.8,17.2-17.2,25.9-25.9
		c-3.7-3.7-7.8-7.7-11.9-11.7c-1.5-1.4-1.8-2.6-0.8-4.6c2-4.1,3.8-8.3,5.3-12.6c0.8-2.3,1.7-3.4,4.3-3.3c5.4,0.2,10.8,0.1,16.3,0.1
		c0-12.1,0-23.9,0-36.2C316.6,215.6,310.9,215.5,305.1,215.7z M233.2,269.5c-20.8-0.2-35.6-16.6-35.4-36c0.2-20,16.8-35.8,36.2-35.3
		c19.6,0.5,35.6,16.9,35.1,36.1C268.5,254.1,253.3,269.7,233.2,269.5z"/>
	<path fill="#4D3E21" d="M91.2,133.1c5.9-28.8,33.2-46.7,60.9-41.9c22.3,3.9,36.8,17.4,43.2,39.2c0.7,2.2,1.4,2.5,3.4,1.9
		c3.8-1.1,7.7-2,11.5-2.7c7-1.3,14.1-2.4,21.4-3.6c-2.2-11.4-6.7-21.8-13.2-31.9c4.8-4.6,9.4-9.1,13.9-13.4
		c-8.6-8.6-17-17.1-25.6-25.7c-4.5,4.6-9.1,9.3-13.8,14.1c-8.3-6.8-17.1-11.4-27.2-12.6c-3.4-0.4-4.3-1.7-4.1-4.9
		c0.3-4.8,0.1-9.7,0.1-14.5c-12.3,0-24.2,0-36.4,0c0,6.2,0,12.4,0,18.8c-11.9,0.9-22,5.6-31.7,13.5c-4.6-5-9.1-9.7-13.3-14.3
		c-8.7,8.7-17.2,17-25.8,25.6c4.6,4.4,9.3,8.8,14.1,13.4c-5.9,9.4-10.3,18.5-12.5,28.6c-0.5,2.4-1.5,3.2-3.9,3.1
		c-5-0.2-9.9-0.1-14.8-0.1c0,12.3,0,24.3,0,36.3c5.2,0,10.3,0.1,15.3,0c2.1-0.1,2.7,0.7,3.4,2.6c2.1,6.5,4.4,12.9,7,19.3
		c1.3,3.3,3.4,6.3,5.4,10c-4.6,4.5-9.2,9-13.7,13.3c8.4,8.5,16.9,16.9,25.6,25.7c4.5-4.6,9.1-9.2,13.7-13.8
		c9.8,6.3,20,10.7,31.1,12.9c2.2-12,4.3-23.7,6.5-35.6c-0.3-0.1-1-0.4-1.7-0.6C102.2,188.4,85.3,161.5,91.2,133.1z"/>
	<path fill="#4D3E21" d="M125.4,144.1c0,10,8.2,18.2,18.4,18.1c9.7,0,18-8.3,18-17.9c0.1-10.1-8.1-18.4-18.1-18.4
		C133.6,125.9,125.4,134,125.4,144.1z"/>
</g>
</svg>
