<?xml version="1.0" encoding="utf-8"?>
<!-- Generator: Adobe Illustrator 19.1.0, SVG Export Plug-In . SVG Version: 6.00 Build 0)  -->
<svg version="1.1" baseProfile="tiny" id="Layer_1" xmlns="http://www.w3.org/2000/svg" xmlns:xlink="http://www.w3.org/1999/xlink"
	 x="0px" y="0px" viewBox="0 0 360 360" xml:space="preserve">
<g>
	<path fill="#4D3E21" d="M239.8,145c-3.7-3.3-6.1-4-10.6-1.7c-1.8,1-3.7,2-6.3,3.3c-0.7-2.2-1.8-4-1.7-5.7
		c0.6-10.3,1.3-20.6,2.1-30.8c0.5-6.8,1.5-13.5,2-20.3c0.3-3.7-1.5-6.7-5-8.1c-4.9-1.9-9.8-4-14.9-5.2c-6-1.4-12.2-2.1-18.4-2.6
		c-14-1-27.8,0.5-41.4,3.8c-7.1,1.7-14.2,3.5-20.2,8c-4.1,3.1-6.4,8.5-5.5,13.5c2.2,13.1,4.3,26.2,6.2,39.4c0.5,3.4,0.1,7,0.1,10.9
		c-1.8-0.8-3.1-1.8-4.5-2c-3.4-0.4-7.2-1.5-10.2-0.5c-4,1.4-6.2,8.1-5.6,12.5c0.9,6.5,3.6,12.2,7.6,17.4c1.3,1.7,2.6,2.5,4.7,2.6
		c15.8,0.8,31.6,2.1,47.3,2.6c22.2,0.8,44.4,0.8,66.5-2.7c1.2-0.2,2.3-0.9,3.3-1.7c5.6-4.7,8-10.9,9-18
		C244.9,154.2,244.5,149.2,239.8,145z"/>
	<path fill="#4D3E21" d="M234.9,255.5c-1.1-0.4-2.8,1.1-4.2,1.9c-0.5,0.3-0.8,0.9-1.1,1.4c-5.6,7-12.1,6.9-18,0.2
		c-3.6-4.1-7.6-8-12-11.1c-7.6-5.3-16.3-5-22.9-0.2c-2.4-1.2-4.3-2.6-6.5-3c-6.8-1.5-13.3,0.1-18.6,4.5c-4.6,3.8-8.5,8.4-12.8,12.6
		c-2.3,2.2-4.8,3.2-8.1,2.2c-4-1.2-6.6-3.9-9.1-6.9c-0.7-0.9-2.2-1.1-3.3-1.6c-0.5,1.1-1.4,2.2-1.4,3.3c0.2,6.7,5.2,15.1,14.3,17.7
		c8.6,2.5,17.3,2,26,0.4c5.2-1,10.2-2.3,14.6-5.7c2.5-2,7.5-1.3,10.2,0.5c2.1,1.4,4.5,2.8,6.9,3.5c8.5,2.6,17.2,3.7,26.2,2.9
		c10.8-1,18.5-6.9,21.2-17.3C236.5,258.6,237.2,256.2,234.9,255.5z"/>
	<circle fill="#4D3E21" cx="146" cy="213.2" r="24.6"/>
	<path fill="#4D3E21" d="M180,29C96.7,29,29,96.7,29,180s67.7,151,151,151c83.3,0,151-67.7,151-151S263.3,29,180,29z M180,307.8
		c-70.5,0-127.8-57.4-127.8-127.8c0-70.5,57.3-127.8,127.8-127.8c70.5,0,127.8,57.4,127.8,127.8C307.8,250.5,250.5,307.8,180,307.8z
		"/>
</g>
</svg>
