<?xml version="1.0" encoding="utf-8"?>
<!-- Generator: Adobe Illustrator 19.1.0, SVG Export Plug-In . SVG Version: 6.00 Build 0)  -->
<svg version="1.1" baseProfile="tiny" id="Layer_1" xmlns="http://www.w3.org/2000/svg" xmlns:xlink="http://www.w3.org/1999/xlink"
	 x="0px" y="0px" viewBox="0 0 360 360" xml:space="preserve">
<path fill="#CCC963" d="M297.6,212.9c17.9,0,32.4-14.7,32.4-32.9s-14.5-32.9-32.4-32.9c-2.1,0-4.2,0.2-6.3,0.6V95.2
	c2,0.4,4.1,0.6,6.3,0.6c17.9,0,32.4-14.7,32.4-32.9S315.5,30,297.6,30c-16.6,0-30.2,12.6-32.1,29h-53.3c-1.9-16.3-15.6-29-32.1-29
	c-16.6,0-30.2,12.6-32.2,29H94.5C92.6,42.6,79,30,62.4,30C44.5,30,30,44.7,30,62.9c0,14.9,9.7,27.5,23.1,31.5v54
	C39.7,152.5,30,165.1,30,180s9.7,27.5,23.1,31.5v54C39.7,269.6,30,282.2,30,297.1c0,18.2,14.5,32.9,32.4,32.9
	c16.6,0,30.2-12.6,32.2-29h53.3c1.9,16.3,15.6,29,32.2,29c16.6,0,30.2-12.6,32.1-29h53.3c1.9,16.3,15.6,29,32.1,29
	c17.9,0,32.4-14.7,32.4-32.9s-14.5-32.9-32.4-32.9c-2.1,0-4.2,0.2-6.3,0.6v-52.5C293.4,212.7,295.5,212.9,297.6,212.9z M265.5,293.1
	h-53.3c-0.7-6.1-3.1-11.7-6.6-16.3l32.1-32.7l33.4,34C268.1,282.5,266.1,287.6,265.5,293.1z M88.9,278.2l30.9-31.4l32.6,33.1
	c-2.4,3.9-4,8.4-4.5,13.3H94.5C93.9,287.6,91.9,282.5,88.9,278.2z M200,271.2c-5.5-4.4-12.5-7.1-20-7.1c-8.9,0-16.9,3.6-22.7,9.5
	l-32-32.5l23.2-23.6c8.5,7.3,19.5,11.8,31.5,11.8c12,0,23-4.4,31.5-11.8l20.7,21L200,271.2z M94.5,66.9h53.3
	c0.7,6.1,3,11.6,6.6,16.2l-32.2,32.7L88.9,81.8C91.9,77.5,93.9,72.4,94.5,66.9z M271.1,81.8l-35.9,36.5l-32-32.5
	c4.8-5,8-11.6,8.9-19h53.3C266.1,72.4,268.1,77.5,271.1,81.8z M159.9,88.7c5.5,4.5,12.5,7.1,20.1,7.1c6.3,0,12.2-1.8,17.2-5
	l32.6,33.1l-18.2,18.5c-8.5-7.3-19.5-11.8-31.5-11.8c-12,0-23,4.4-31.5,11.8l-20.8-21.1L159.9,88.7z M265.5,176.1h-37
	c-0.8-10.7-5-20.4-11.4-28l18.2-18.5l34,34.6C267.3,167.7,266,171.8,265.5,176.1z M143,148c-6.4,7.7-10.6,17.4-11.4,28h-37
	c-0.7-5.6-2.7-10.8-5.8-15.1l33.5-34L143,148z M94.5,183.9h37c0.8,10.7,5,20.4,11.4,28l-23.2,23.6l-33.2-33.7
	C90.9,197,93.7,190.8,94.5,183.9z M217,212c6.4-7.7,10.6-17.4,11.4-28h37c0.7,5.6,2.7,10.7,5.7,15l-33.5,34L217,212z M283.6,150.3
	c-3.7,1.8-6.9,4.3-9.7,7.3l-33.2-33.7l35.6-36.2c2.2,1.9,4.6,3.6,7.2,4.9V150.3z M60.9,95.8c0.5,0,1,0,1.5,0
	c8.2,0,15.6-3.1,21.3-8.1l33.1,33.6l-33.2,33.8c-5.7-5-13.1-8-21.1-8c-0.5,0-1,0-1.5,0V95.8z M60.9,212.9c0.5,0,1,0,1.5,0
	c6.8,0,13.2-2.1,18.4-5.8l33.5,34.1l-30.6,31.1c-5.7-5.1-13.1-8.1-21.3-8.1c-0.5,0-1,0-1.5,0V212.9z M283.6,267.4
	c-2.6,1.3-5.1,2.9-7.2,4.9l-33.2-33.7l33.2-33.8c2.2,1.9,4.6,3.5,7.2,4.8V267.4z"/>
</svg>
