<?xml version="1.0" encoding="utf-8"?>
<!-- Generator: Adobe Illustrator 19.1.0, SVG Export Plug-In . SVG Version: 6.00 Build 0)  -->
<svg version="1.1" baseProfile="tiny" id="Layer_1" xmlns="http://www.w3.org/2000/svg" xmlns:xlink="http://www.w3.org/1999/xlink"
	 x="0px" y="0px" viewBox="0 0 360 360" xml:space="preserve">
<g>
	<rect x="29" y="133.7" fill="#F06049" width="58.5" height="24.7"/>
	<rect x="272.5" y="133.7" fill="#F06049" width="58.5" height="24.7"/>
	<path fill="#F06049" d="M29,320.3h302V168.2H29V320.3z M234.1,212.9h58.5v17.3h-58.5V212.9z M60,212.9h20.6v-20.6h17.3v20.6h20.6
		v17.3H97.9v20.6H80.6v-20.6H60V212.9z"/>
	<polygon fill="#F06049" points="292,128.3 306.3,128.3 306.3,39.7 29,39.7 29,54 292,54 	"/>
	<polygon fill="#F06049" points="172.8,105.7 51.1,105.7 51.1,128.3 65.4,128.3 65.4,120 187.2,120 187.2,72.7 29,72.7 29,87 
		172.8,87 	"/>
</g>
</svg>
