<?xml version="1.0" encoding="utf-8"?>
<!-- Generator: Adobe Illustrator 19.1.0, SVG Export Plug-In . SVG Version: 6.00 Build 0)  -->
<svg version="1.1" id="Layer_1" xmlns="http://www.w3.org/2000/svg" xmlns:xlink="http://www.w3.org/1999/xlink" x="0px" y="0px"
	 viewBox="0 0 297.7 228.3" style="enable-background:new 0 0 297.7 228.3;" xml:space="preserve">
<style type="text/css">
	.st0{fill-rule:evenodd;clip-rule:evenodd;fill:#B7B3B5;}
	.st1{fill-rule:evenodd;clip-rule:evenodd;fill:#FFFFFF;}
</style>
<g>
	<path class="st0" d="M239.3,173.5c1.3-7.5,1.3-14.4,0.4-21.2c-1.8-13.1-7.4-24.2-17.1-33.3c-0.8-0.7-1.2-2.1-1.2-3.2
		c0.1-3.5-0.9-6.3-3.1-9.1c-11.4-14.4-16.6-30.5-12.3-48.7c3.8-15.7,17.9-24.9,34-23.4c18.3,1.7,30,15.9,29.3,36.2
		c-0.5,13.9-5.5,26.1-14.5,36.7c-4.9,5.7-2.8,13.7,4.1,16.3c10.4,3.8,20.3,8.4,29,15.3c6.3,5.1,10.2,11.1,9.6,19.7
		c-0.5,7.1-0.4,14.2,0,21.3c0.3,6.3-2.3,10.8-6.7,14.8c-7.1,6.3-15.4,10.5-24,14.1c-19.7,8.2-40.3,12.6-61.4,15.6
		c-24.1,3.4-48.4,4.3-72.7,3.4c-31.2-1.1-62-5.1-91.6-15.2c-12-4.1-23.6-9-33.5-17.2c-5.1-4.2-8-9.1-7.6-16.1c0.4-7,0.5-14,0-21
		c-0.6-8.5,3.3-14.3,9.5-19.2c8.6-6.9,18.4-11.5,28.7-15.3c7.5-2.8,9.4-10.5,4.3-16.7C31.9,94.3,26.8,79.7,28.7,62.9
		c2-18.1,17.5-30,35.7-28.2c14.2,1.4,26.9,11.7,28.5,29.7c1.4,16-3.5,30.1-13.5,42.4c-2.3,2.8-3.1,5.6-3,9.1c0,1.1-0.5,2.5-1.3,3.2
		c-13.5,12.8-18.5,28.8-17.5,47c0.1,2,0.3,4.1,0.6,6.1c0,0.3,0.2,0.5,0.6,1.3c0.6-1.7,1.1-3,1.6-4.3c5.3-14.4,12.3-27.7,23.8-38.2
		c9.2-8.4,20.3-13.9,31.6-18.9c2.5-1.1,5.1-1.9,7.6-3.1c6.9-3.2,8.9-12.5,3.9-18.3c-11.6-13.5-17.9-29.1-18.2-46.8
		c-0.3-16.4,4.9-30.7,20.2-39c21.6-11.7,55.5-3.2,59.2,31.2c2.2,20.3-4.3,38.1-17.1,53.7c-3.6,4.5-4,9.5-2.4,14.8
		c0.9,2.9,3.4,4,6,5.1c8.5,3.7,17.2,7.2,25.4,11.5c14.6,7.5,24.1,19.9,31.3,34.3C234.3,161.2,236.6,167.1,239.3,173.5z"/>
</g>
</svg>
