<?xml version="1.0" encoding="utf-8"?>
<!-- Generator: Adobe Illustrator 19.1.0, SVG Export Plug-In . SVG Version: 6.00 Build 0)  -->
<svg version="1.1" baseProfile="tiny" id="Layer_1" xmlns="http://www.w3.org/2000/svg" xmlns:xlink="http://www.w3.org/1999/xlink"
	 x="0px" y="0px" viewBox="0 0 360 360" xml:space="preserve">
<g>
	<g>
		<path fill="#D69B29" d="M24,231.9v80.6h312v-80.6H24z M247.1,304H38.8v-15.6h208.2V304z M247.1,280.3H38.8v-15.6h208.2V280.3z
			 M247.1,256.5H38.8v-15.6h208.2V256.5z M325,304h-67.7v-63.1H325V304z"/>
		<rect x="281.9" y="244.5" fill="#D69B29" width="16.7" height="8.3"/>
		<rect x="303.1" y="244.5" fill="#D69B29" width="16.7" height="8.3"/>
	</g>
	<g>
		<path fill="#D69B29" d="M24,139.7v80.6h312v-80.6H24z M247.1,211.8H38.8v-15.6h208.2V211.8z M247.1,188H38.8v-15.6h208.2V188z
			 M247.1,164.3H38.8v-15.6h208.2V164.3z M325,211.8h-67.7v-63.1H325V211.8z"/>
		<rect x="281.9" y="152.3" fill="#D69B29" width="16.7" height="8.3"/>
		<rect x="303.1" y="152.3" fill="#D69B29" width="16.7" height="8.3"/>
	</g>
	<g>
		<path fill="#D69B29" d="M24,47.5v80.6h312V47.5H24z M247.1,119.6H38.8v-15.6h208.2V119.6z M247.1,95.8H38.8V80.2h208.2V95.8z
			 M247.1,72.1H38.8V56.4h208.2V72.1z M325,119.6h-67.7V56.4H325V119.6z"/>
		<rect x="281.9" y="60.1" fill="#D69B29" width="16.7" height="8.3"/>
		<rect x="303.1" y="60.1" fill="#D69B29" width="16.7" height="8.3"/>
	</g>
</g>
</svg>
