<?xml version="1.0" encoding="utf-8"?>
<!-- Generator: Adobe Illustrator 19.1.0, SVG Export Plug-In . SVG Version: 6.00 Build 0)  -->
<svg version="1.1" baseProfile="tiny" id="Layer_1" xmlns="http://www.w3.org/2000/svg" xmlns:xlink="http://www.w3.org/1999/xlink"
	 x="0px" y="0px" viewBox="0 0 360 360" xml:space="preserve">
<g>
	<g>
		<path fill="#4D3E21" d="M322.8,128.8c-0.7-3.1-2-6-3.1-9.3c-7.5,4.8-14.7,9.4-21.9,14c-2.3,1.5-5.5,2.5-6.5,4.7
			c-0.9,1.8,1,4.8,1.4,7.3c0.3,2.2,0.3,4.4,0.4,6.3c-12.9-19.3-31.1-29.1-53.9-29.1c-16.4,0-29.6,8.1-39.9,20.5
			c-5.2,6.3-9.9,13.1-14.9,19.6c-1.2,1.5-2.8,2.6-4.3,3.9c-0.4-0.3-0.8-0.6-1.2-0.9c3.1-5.8,6.1-11.5,9.4-17.6
			c-10.6-7.5-22.2-12.8-36-12.4c-13.9,0.5-25.2,6.4-35,15.5c-6.2,5.7-12,11.9-17.8,18c-1.1,1.1-1.7,2.6-3.1,3.4
			c0.7-6.7,3.6-12.1,7.7-16.8c3.8-4.2,8.1-8,12-12.2c1-1.1,1.8-3,1.7-4.5c-0.6-7.9-1.6-15.7-2.4-23.5c-6.1,9.1-6.7,20.7-11.6,30.7
			c3.5-16.8,4.5-33.6,1.5-50.6c3.6,6.2,3.9,13.1,4.7,19.1c6.1-10.1,12.5-20.8,19.1-31.8c-4.1-2.6-9.8-4.7-12.5-10.6
			c1.1,0.7,2.1,1.6,3.3,2.2c2.3,1.3,4.4,2.8,6.9,3.7c7.1,2.6,12.7,0.6,17.1-5.6c2.9-4,5.8-8,8.7-12.1c-2.1-2.7-4.6-5.9-7.1-9.2
			c0.2-0.1,0.3-0.2,0.5-0.2c3.9,3.2,7.7,6.4,11.7,9.7c-5.3,1.9-6.9,6.7-8.3,11.6c5.3,5.5,13.5,0.1,19-7c-1.9-0.6-3.9-1.2-5.8-1.9
			c0.1-0.2,0.1-0.5,0.2-0.7c2.3,0.2,4.6,0.4,7.7,0.6c-1.6-6.9-3.1-13.5-4.7-20c0.3-0.1,0.7-0.2,1-0.3c2,6,4.2,11.9,5.8,18
			c1,3.8-1,6.9-4.2,9.1c-2.3,1.6-4.7,3.1-7.1,4.7c4.8,4.9,12.7,1.4,20.5-7.3c-1.8-0.7-3.6-1.3-5.4-1.9c0-0.2,0.1-0.4,0.1-0.6
			c2.1,0,4.1,0,6.6,0c-2.8-7.5-5.5-14.7-8.2-21.9c0.4-0.2,0.8-0.3,1.2-0.5c0.4,1,0.8,2,1.2,3c2.2,5,4.6,9.9,6.7,14.9
			c1,2.3,1.5,4.8,2.3,7.3c2.1-0.2,4.9-0.5,8.2-0.8c-2.8-7-5.5-13.6-8.2-20.2c0.2-0.1,0.5-0.2,0.7-0.4c0.7,0.9,1.5,1.7,2,2.7
			c2.3,4.8,4.6,9.7,6.8,14.5c1.4,3,0.7,5.5-1.7,7.7c-2.1,1.9-4.2,3.7-7,6.3c7.6,1,11-4.1,15.8-7.1c-1.8-0.5-3.2-0.9-4.5-1.3
			c0-0.3,0-0.6,0-0.9c1.8-0.2,3.7-0.4,5.4-0.6c-4-9.6-8-19.1-12-28.6c-1.1-2.7-2.5-4.2-5.8-4.2c-2.5,0-5.1-0.8-7.6-1.5
			c-5.2-1.5-10.4-3.2-15.5-4.9c-0.7,0-1.4,0-2.1,0c-6.9,1.2-12.2,5.4-17.6,9.5c-7.4,5.7-15.1,11.1-24.2,14.1c-1.9,0.6-3.7,2.2-5,3.7
			C104.2,67.9,94.9,80,84.9,91.4c-22.9,26.1-38.7,55.8-47.3,89.4c-1.1,4.3-1.8,8.8-2.6,13.2c0,3.1,0,6.2,0,9.3
			c0.2,0.5,0.5,1,0.6,1.6c1,5.3,1.8,6.1,7,6.9c13.9,2.3,27.7,1.4,41.6-0.3c7-0.8,14-1.8,21.1-2.1c-11.3,4.7-23.2,6.7-35.9,8.6
			c16.7,6.5,33.1,11.3,50.1,13.8c20.6,3.1,40.4-1.3,60.6-6c-7-5.9-13.6-11.6-20.4-17.3c-23.2,7.8-55.2,2.7-66.5-11.5
			c5.2,1.7,9.6,3.3,14.1,4.5c7.7,2,15.3,4.2,23.2,5.3c10.4,1.4,20.4-1.1,29.8-5.5c8.3-3.9,16.3-8.1,25.2-12.5
			c-2.6-2-4.8-3.6-7.3-5.5c7.7,1.1,13.6,4.8,17.9,10.5c6,8.1,11.2,16.8,16.8,25.2c8,12.2,15.5,24.8,24.2,36.5
			c10.5,14,24.7,24.3,38.5,34.9c2.7,2.1,5.5,4.2,8.7,6.7c3.2-5.4,6.4-10.6,9.3-16c8.9-16.6,14.4-34.5,19-52.7
			c2.7-10.5,6.1-20.9,8-31.6c2-11.2,2.5-22.6,3.7-34c0.1-1.3,0.4-2.6,0.6-3.8c0-5.7,0-11.4,0-17.1
			C324.3,137.5,323.8,133.1,322.8,128.8z"/>
		<path fill="#4D3E21" d="M218.2,246c-0.7-1.1-1.4-2.4-2.5-2.9c-9.1-4.6-18.2-9.2-27.6-13.3c-1.9-0.8-5.1,0.4-7.3,1.5
			c-0.8,0.4-0.8,3.4-0.4,5c1.2,4.7,2.6,9.4,4.3,13.9c9.5,26.3,26.7,46.9,48.8,63.5c8.1,6.1,16.7,11.6,25.1,17.3c0.2,0,0.5,0,0.7,0
			c5.4-7.4,10.7-14.8,16.1-22.1c1.2-1.7,2.4-3.4,3.2-4.5c-6.5-3.9-13.1-7-18.8-11.4C242.8,280.2,229.3,264.1,218.2,246z
			 M224.9,297.2c7.2,3.3,14,6.4,20.8,9.5c0.2-0.4,0.4-0.8,0.7-1.1c-1.8-3-3.4-6-7.2-7.4c-8.8-3.1-17.1-7.1-24.4-13.1
			c-6.7-5.5-11.2-12.4-13.2-21c9.2,11.2,19,21.5,34.1,25.4c-1.9-6.4-3.7-12.6-5.5-18.8c0.3-0.2,0.6-0.4,0.9-0.5
			c10,16.5,19.2,33.7,36.1,45C256.7,319.6,232.7,309.1,224.9,297.2z"/>
		<path fill="#4D3E21" d="M188.2,192.8c-7.6,4.6-14.8,8.9-22.2,13.4c12.5,10,26.2,18.3,42.7,22.3C204.1,217,195.4,196.3,188.2,192.8
			z"/>
		<path fill="#4D3E21" d="M139.6,84.2c5,1.3,9.3,2.9,13.8,3.3c7.6,0.8,7.6,0.5,10.1-6.5c0-0.1,0-0.2-0.1-0.9
			c-5.4-1-10.9-2.1-15.9-3.1C144.9,79.3,142.7,81.3,139.6,84.2z"/>
		<path fill="#4D3E21" d="M191.1,82.7c-2.1-0.1-4.2-0.2-6.3-0.4c-2.1-0.3-4.2-0.9-6.3-1.2c-2.9-0.4-5.9-0.9-8.8-0.6
			c-1.4,0.2-3.5,1.7-3.9,3.1c-1,3.2,1.6,7.9,4.7,9.1c1.2,0.5,2.8,0.4,4-0.1c0.4-0.2,0.4-2.2,0.2-3.2c-0.5-2.4-1.3-4.7-2-7.1
			c6.4-1.4,8-0.4,10.7,7.2C189.7,89.3,191.8,87.4,191.1,82.7z"/>
		<path fill="#4D3E21" d="M174.9,84.1c0.7,2.6,1.4,5,2,7.5c4.3-1.3,4.6-2.1,3.3-6.1C179.1,81.9,176.9,83.5,174.9,84.1z"/>
	</g>
</g>
</svg>
