<?xml version="1.0" encoding="utf-8"?>
<!-- Generator: Adobe Illustrator 19.1.0, SVG Export Plug-In . SVG Version: 6.00 Build 0)  -->
<svg version="1.1" baseProfile="tiny" id="Layer_1" xmlns="http://www.w3.org/2000/svg" xmlns:xlink="http://www.w3.org/1999/xlink"
	 x="0px" y="0px" viewBox="0 0 360 360" xml:space="preserve">
<path fill="#4D3E21" d="M160.5,37.6c13,0,26,0,38.9,0c5.5,2.3,7.8,6.4,7.3,12.3c-0.1,1.6,0,3.1,0,4.7c0,3.2,0,6.4,0,9.7
	c14.4,0,28.4,0,42.4,0c12.6,0,19.9,7.3,19.9,20.1c0,12.3,0,24.6,0,37c0,60.7,0,121.4,0,182c0,9.4-5,16.1-14,18.5
	c-0.3,0.1-0.6,0.3-1,0.5c-49.3,0-98.6,0-148,0c-0.4-0.2-0.8-0.4-1.2-0.5c-8.5-2.3-13.8-9.1-13.8-17.9c0-73.5,0-146.9,0-220.4
	c0-11.8,7.5-19.2,19.3-19.2c13.2,0,26.5,0,39.7,0c1,0,2,0,3.2,0c0-5,0.2-9.7-0.1-14.4C152.9,44,155,39.9,160.5,37.6z M189,108.3
	c-0.2-0.1-0.4-0.1-0.6-0.2c-18.5,32.9-37,65.9-55.8,99.3c15.9,0,31.1,0,46.7,0c-2.8,24.6-5.5,48.9-8.3,73.2c0.2,0.1,0.4,0.1,0.6,0.2
	c18.5-33.3,37-66.5,55.8-100.3c-15.9,0-31.2,0-46.7,0C183.5,156.2,186.2,132.3,189,108.3z"/>
</svg>
