<?xml version="1.0" encoding="utf-8"?>
<!-- Generator: Adobe Illustrator 19.1.0, SVG Export Plug-In . SVG Version: 6.00 Build 0)  -->
<svg version="1.1" baseProfile="tiny" id="Layer_1" xmlns="http://www.w3.org/2000/svg" xmlns:xlink="http://www.w3.org/1999/xlink"
	 x="0px" y="0px" viewBox="0 0 360 360" xml:space="preserve">
<path fill="#4D3E21" d="M345.7,177h-14.3v-3.2c0-0.2-0.2-0.3-0.3-0.3h-3.3c-0.2,0-0.3,0.2-0.3,0.3v3.2h-4.2v-5.6
	c0-0.2-0.2-0.4-0.4-0.4h-3.1c-0.2,0-0.4,0.2-0.4,0.4v5.6h-4.2v-8c0-0.3-0.2-0.5-0.5-0.5h-3c-0.3,0-0.5,0.2-0.5,0.5v8h-4.2v-14.3
	c0-0.4-0.3-0.7-0.7-0.7h-2.7c-0.4,0-0.7,0.3-0.7,0.7V177h-4.2v-9.5c0-0.3-0.2-0.5-0.5-0.5h-2.9c-0.3,0-0.5,0.2-0.5,0.5v9.5h-4.2
	v-15.8c0-0.4-0.3-0.7-0.7-0.7h-2.6c-0.4,0-0.7,0.3-0.7,0.7V177h-4.2v-8c0-0.3-0.2-0.5-0.5-0.5h-3c-0.3,0-0.5,0.2-0.5,0.5v8h-4.2
	v-14.5c0-0.4-0.3-0.7-0.7-0.7h-2.7c-0.4,0-0.7,0.3-0.7,0.7V177h-4.2v-27.3c0-0.5-0.4-0.9-0.9-0.9h-2.2c-0.5,0-0.9,0.4-0.9,0.9V177
	h-4.2v-21.2c0-0.4-0.4-0.8-0.8-0.8h-2.4c-0.4,0-0.8,0.4-0.8,0.8V177h-4.2v-28.3c0-0.5-0.4-0.9-0.9-0.9h-2.1c-0.5,0-0.9,0.4-0.9,0.9
	V177h-4.2v-46.1c0-0.6-0.5-1.2-1.2-1.2h-1.6c-0.6,0-1.2,0.5-1.2,1.2V177h-4.2v-38.9c0-0.6-0.5-1.1-1.1-1.1h-1.8
	c-0.6,0-1.1,0.5-1.1,1.1V177h-4.2v-48.8c0-0.7-0.5-1.2-1.2-1.2h-1.6c-0.7,0-1.2,0.5-1.2,1.2V177h-4.2v-72.5c0-0.8-0.7-1.5-1.5-1.5
	h-1.1c-0.8,0-1.5,0.7-1.5,1.5V177h-4.2v-67.6c0-0.8-0.6-1.4-1.4-1.4h-1.2c-0.8,0-1.4,0.6-1.4,1.4V177h-4.2V78.7
	c0-0.9-0.8-1.7-1.7-1.7h-0.6c-0.9,0-1.7,0.8-1.7,1.7V177h-4.2V88.6c0-0.9-0.7-1.6-1.6-1.6h-0.8c-0.9,0-1.6,0.7-1.6,1.6V177h-4.2
	v-72.5c0-0.8-0.7-1.5-1.5-1.5h-1.1c-0.8,0-1.5,0.7-1.5,1.5V177h-4.2v-49.8c0-0.7-0.5-1.2-1.2-1.2h-1.6c-0.7,0-1.2,0.5-1.2,1.2V177
	h-4.2v-66.6c0-0.8-0.6-1.4-1.4-1.4h-1.2c-0.8,0-1.4,0.6-1.4,1.4V177h-4.2V68.8c0-1-0.8-1.8-1.8-1.8H156c-1,0-1.8,0.8-1.8,1.8V177
	h-4.2V52.9c0-1-0.9-1.9-1.9-1.9h-0.2c-1,0-1.9,0.9-1.9,1.9V177h-4.2V72.2c0-1-0.8-1.7-1.7-1.7h-0.5c-1,0-1.7,0.8-1.7,1.7V177h-4.2
	V58.4c0-1-0.8-1.9-1.9-1.9h-0.3c-1,0-1.9,0.8-1.9,1.9V177h-4.2V45c0-1.1-0.9-2-2-2h-0.1c-1.1,0-2,0.9-2,2v132h-4.2V33
	c0-1.1-0.9-2-2-2c-1.1,0-2,0.9-2,2v144h-4.2v-73.5c0-0.8-0.7-1.5-1.5-1.5h-1.1c-0.8,0-1.5,0.7-1.5,1.5V177h-4.2v-69.6
	c0-0.8-0.6-1.4-1.4-1.4h-1.1c-0.8,0-1.4,0.6-1.4,1.4V177h-4.2V26.5c0-1.1-0.9-2-2-2c-1.1,0-2,0.9-2,2V177H84V34c0-1.1-0.9-2-2-2
	c-1.1,0-2,0.9-2,2v143h-4.2V59.8c0-1-0.8-1.8-1.8-1.8h-0.3c-1,0-1.8,0.8-1.8,1.8V177h-4.2V38.7c0-1.1-0.9-2-2-2s-2,0.9-2,2V177h-4.2
	V56.4c0-1-0.8-1.9-1.9-1.9h-0.3c-1,0-1.9,0.8-1.9,1.9V177H51V69.3c0-1-0.8-1.8-1.8-1.8h-0.5c-1,0-1.8,0.8-1.8,1.8V177h-4.2V46.4
	c0-1.1-0.9-1.9-1.9-1.9h-0.1c-1.1,0-1.9,0.9-1.9,1.9V177H23c-0.6,0-1,0.5-1,1s0.4,1,1,1h15.7v130.6c0,1.1,0.9,1.9,1.9,1.9h0.1
	c1.1,0,1.9-0.9,1.9-1.9V179H47v107.7c0,1,0.8,1.8,1.8,1.8h0.5c1,0,1.8-0.8,1.8-1.8V179h4.2v120.6c0,1,0.8,1.9,1.9,1.9h0.3
	c1,0,1.9-0.8,1.9-1.9V179h4.2v138.3c0,1.1,0.9,2,2,2s2-0.9,2-2V179h4.2v117.2c0,1,0.8,1.8,1.8,1.8h0.3c1,0,1.8-0.8,1.8-1.8V179H80
	v143c0,1.1,0.9,2,2,2c1.1,0,2-0.9,2-2V179h4.2v150.5c0,1.1,0.9,2,2,2c1.1,0,2-0.9,2-2V179h4.2v69.6c0,0.8,0.6,1.4,1.4,1.4H99
	c0.8,0,1.4-0.6,1.4-1.4V179h4.2v73.5c0,0.8,0.7,1.5,1.5,1.5h1.1c0.8,0,1.5-0.7,1.5-1.5V179h4.2v144c0,1.1,0.9,2,2,2c1.1,0,2-0.9,2-2
	V179h4.2v132c0,1.1,0.9,2,2,2h0.1c1.1,0,2-0.9,2-2V179h4.2v118.6c0,1,0.8,1.9,1.9,1.9h0.3c1,0,1.9-0.8,1.9-1.9V179h4.2v104.8
	c0,1,0.8,1.7,1.7,1.7h0.5c1,0,1.7-0.8,1.7-1.7V179h4.2v124.1c0,1,0.9,1.9,1.9,1.9h0.2c1,0,1.9-0.9,1.9-1.9V179h4.2v108.2
	c0,1,0.8,1.8,1.8,1.8h0.5c1,0,1.8-0.8,1.8-1.8V179h4.2v66.6c0,0.8,0.6,1.4,1.4,1.4h1.2c0.8,0,1.4-0.6,1.4-1.4V179h4.2v49.8
	c0,0.7,0.5,1.2,1.2,1.2h1.6c0.7,0,1.2-0.5,1.2-1.2V179h4.2v71.5c0,0.8,0.7,1.5,1.5,1.5h1.1c0.8,0,1.5-0.7,1.5-1.5V179h4.2v87.4
	c0,0.9,0.7,1.6,1.6,1.6h0.8c0.9,0,1.6-0.7,1.6-1.6V179h4.2v97.3c0,0.9,0.8,1.7,1.7,1.7h0.6c0.9,0,1.7-0.8,1.7-1.7V179h4.2v66.6
	c0,0.8,0.6,1.4,1.4,1.4h1.2c0.8,0,1.4-0.6,1.4-1.4V179h4.2v71.5c0,0.8,0.7,1.5,1.5,1.5h1.1c0.8,0,1.5-0.7,1.5-1.5V179h4.2v49.3
	c0,0.7,0.5,1.2,1.2,1.2h1.6c0.7,0,1.2-0.5,1.2-1.2V179h4.2v40.4c0,0.6,0.5,1.1,1.1,1.1h1.8c0.6,0,1.1-0.5,1.1-1.1V179h4.2v47.6
	c0,0.6,0.5,1.2,1.2,1.2h1.6c0.6,0,1.2-0.5,1.2-1.2V179h4.2v29.8c0,0.5,0.4,0.9,0.9,0.9h2.1c0.5,0,0.9-0.4,0.9-0.9V179h4.2v19.8
	c0,0.4,0.4,0.8,0.8,0.8h2.4c0.4,0,0.8-0.4,0.8-0.8V179h4.2v25.9c0,0.5,0.4,0.9,0.9,0.9h2.2c0.5,0,0.9-0.4,0.9-0.9V179h4.2v13.1
	c0,0.4,0.3,0.7,0.7,0.7h2.7c0.4,0,0.7-0.3,0.7-0.7V179h4.2v7c0,0.3,0.2,0.5,0.5,0.5h3c0.3,0,0.5-0.2,0.5-0.5v-7h4.2v14.8
	c0,0.4,0.3,0.7,0.7,0.7h2.6c0.4,0,0.7-0.3,0.7-0.7V179h4.2v8.5c0,0.3,0.2,0.5,0.5,0.5h2.9c0.3,0,0.5-0.2,0.5-0.5V179h4.2v13.3
	c0,0.4,0.3,0.7,0.7,0.7h2.7c0.4,0,0.7-0.3,0.7-0.7V179h4.2v7c0,0.3,0.2,0.5,0.5,0.5h3c0.3,0,0.5-0.2,0.5-0.5v-7h4.2v4.6
	c0,0.2,0.2,0.4,0.4,0.4h3.1c0.2,0,0.4-0.2,0.4-0.4V179h4.2v2.2c0,0.2,0.2,0.3,0.3,0.3h3.3c0.2,0,0.3-0.2,0.3-0.3V179h14.3
	c0.5,0,1-0.5,1-1S346.2,177,345.7,177z"/>
</svg>
