<?xml version="1.0" encoding="utf-8"?>
<!-- Generator: Adobe Illustrator 19.1.0, SVG Export Plug-In . SVG Version: 6.00 Build 0)  -->
<svg version="1.1" id="Layer_1" xmlns="http://www.w3.org/2000/svg" xmlns:xlink="http://www.w3.org/1999/xlink" x="0px" y="0px"
	 viewBox="0 0 274.9 253.6" style="enable-background:new 0 0 274.9 253.6;" xml:space="preserve">
<style type="text/css">
	.st0{fill-rule:evenodd;clip-rule:evenodd;fill:#B7B3B5;}
	.st1{fill-rule:evenodd;clip-rule:evenodd;fill:#FFFFFF;}
</style>
<g>
	<path class="st0" d="M137.2,253.6c-34.9,0-69.8,0-104.7,0c-15.8,0-28.1-9.6-31.6-24.6c-0.6-2.6-0.8-5.3-0.8-8
		C0,179.3,0,137.6,0,95.9c0-18.7,13.7-32.4,32.4-32.4c70,0,140,0,210,0c18.8,0,32.5,13.8,32.5,32.6c0,41.6,0,83.2,0,124.8
		c0,19-13.6,32.7-32.7,32.7C207.2,253.6,172.2,253.6,137.2,253.6z M137.4,223.1c35.6,0.1,64.5-28.7,64.6-64.4
		c0.1-35.6-28.7-64.6-64.4-64.7c-35.7-0.1-64.8,28.9-64.8,64.6C72.9,194.2,101.7,223,137.4,223.1z"/>
	<path class="st0" d="M179.9,52.5c0-6.4,0.1-12.6,0-18.9c0-2.1-0.3-4.4-1.1-6.3c-2-4.6-5.9-6.4-10.8-6.4c-13.3,0-26.7,0-40,0
		c-6.9,0-13.8,0-20.7,0c-8,0-12.2,4.3-12.3,12.3c0,6.3,0,12.7,0,19.2c-7,0-13.7,0-20.5,0c-0.1-0.1-0.3-0.2-0.3-0.3
		c0.1-8.7-0.3-17.4,0.6-26c1.5-14.7,15.5-26,31.4-26.1c16.6-0.1,33.3,0,49.9,0c4.1,0,8.2,0,12.3,0c17.4,0.1,30.5,11.7,32.1,29
		c0.7,7.7,0.1,15.5,0.1,23.5C193.8,52.5,187.1,52.5,179.9,52.5z"/>
	<path class="st0" d="M126.8,127c7.2,0,13.9,0,21,0c0,6.8,0,13.7,0,20.9c7.2,0,14.1,0,21.1,0c0,7.2,0,14,0,21c-6.9,0-13.7,0-20.9,0
		c0,7.1,0,13.9,0,21c-7.2,0-14,0-21.1,0c0-6.9,0-13.7,0-20.8c-7.2,0-14,0-21,0c0-7.1,0-13.8,0-20.9c6.8,0,13.6,0,20.9,0
		C126.8,141,126.8,134.1,126.8,127z"/>
</g>
</svg>
