<?xml version="1.0" encoding="utf-8"?>
<!-- Generator: Adobe Illustrator 19.1.0, SVG Export Plug-In . SVG Version: 6.00 Build 0)  -->
<svg version="1.1" baseProfile="tiny" id="Layer_1" xmlns="http://www.w3.org/2000/svg" xmlns:xlink="http://www.w3.org/1999/xlink"
	 x="0px" y="0px" viewBox="0 0 360 360" xml:space="preserve">
<g>
	<rect x="170.9" y="166.4" fill="#F38366" width="18.1" height="33"/>
	<rect x="170.9" y="212.6" fill="#F38366" width="18.1" height="33"/>
	<rect x="170.9" y="258.7" fill="#F38366" width="18.1" height="33"/>
	<path fill="#F38366" d="M35,35v290h290V35H35z M83.4,301.8L145.9,157h68.2l62.5,144.8H83.4z M283.3,205.4c-1.2-0.1-2.5-2-3.1-3.3
		c-8.2-18.9-20.7-35.2-38.7-47.7c-43.6-30.3-100.8-24.9-137.9,12.6c-10.4,10.5-18.3,22.4-23.8,35.6c-0.9,2.2-2,3.3-4.9,3.1
		c-3.9-0.2-7.9-0.1-12.5-0.1c1.2-3,2-5.6,3.1-8.1c12.7-29.3,33.7-52.4,65.9-66.2c42.3-18.2,90.9-11.4,125.9,17
		c18.6,15.1,31.6,33.4,39.4,54.7c0.2,0.6,0.4,1.3,0.8,2.6C292.6,205.6,287.9,205.8,283.3,205.4z M59.7,184.4c0-35.7,0-70.9,0-106.7
		c5,0,9.6,0,14.8,0c0.1,1.4,0.2,2.7,0.2,4c0,26,0.1,52-0.1,78c0,2-0.9,4.2-2.1,6C68.6,171.8,64.2,177.9,59.7,184.4z M107,130.1
		c0,2.8-1,4.5-3.4,6.1c-3.8,2.5-7.3,5.3-11.4,8.4c0-22.6,0-44.7,0-67c4.8,0,9.3,0,14.5,0c0.1,1.4,0.2,2.9,0.2,4.3
		C106.9,98,106.8,114.1,107,130.1z M139.2,115.2c0,2.2-0.6,3.5-3.1,4.3c-3.8,1.2-7.5,2.8-11.7,4.4c0-15.5,0-30.8,0-46.2
		c5,0,9.6,0,14.7,0c0,4.8,0,9.4,0,13.9C139.1,99.5,139,107.4,139.2,115.2z M156.9,113.7c0-11.9,0-23.8,0-36c4.7,0,9.4,0,14.3,0
		c0,11.4,0,22.6,0,34.3C166.3,112.6,161.8,113.1,156.9,113.7z M189.1,112c0-11.4,0-22.7,0-34.3c4.8,0,9.5,0,14.4,0c0,12.1,0,24,0,36
		C198.6,113.1,194,112.6,189.1,112z M221.1,77.7c5.2,0,9.7,0,14.6,0c0,15.4,0,30.6,0,46.2c-4.5-1.7-9-3.3-13.3-5.1
		c-0.7-0.3-1.2-1.5-1.2-2.3C221,103.6,221.1,90.8,221.1,77.7z M253.3,132c0-17.8,0-35.6,0.1-53.4c0-0.2,0.2-0.5,0.5-0.9
		c4.6,0,9.2,0,14.2,0c0,22.2,0,44.3,0,67c-4.9-3.6-9.6-7-14.1-10.4C253.4,133.8,253.3,132.8,253.3,132z M300.2,183.8
		c-4.8-6.8-9.3-13.2-13.8-19.7c-0.6-0.9-0.8-2-0.8-3.1c0-27.1,0-54.1,0-81.2c0-0.6,0.2-1.3,0.3-2.1c4.8,0,9.3,0,14.3,0
		C300.2,112.9,300.2,148.2,300.2,183.8z M300.3,67.3c-80.3,0-160.3,0-240.6,0c0-4.2,0-8.3,0-12.6c80.2,0,160.3,0,240.6,0
		C300.3,58.9,300.3,63.1,300.3,67.3z"/>
</g>
</svg>
