<?xml version="1.0" encoding="utf-8"?>
<!-- Generator: Adobe Illustrator 19.1.0, SVG Export Plug-In . SVG Version: 6.00 Build 0)  -->
<svg version="1.1" baseProfile="tiny" id="Layer_1" xmlns="http://www.w3.org/2000/svg" xmlns:xlink="http://www.w3.org/1999/xlink"
	 x="0px" y="0px" viewBox="0 0 360 360" xml:space="preserve">
<g>
	<path fill-rule="evenodd" d="M170.5,72.7c0,1.4,0.1,2.9,0.4,4.3c0.9,5.9,5.4,9.7,11.2,9.7c5.8-0.1,10.7-4,10.9-9.9
		c0.4-12,0.3-24.1,0.2-36.1c0-3.9-2-5.8-5.3-8c-1.3-0.8-2.8-0.7-4.2-0.7c-1.2,0-2.3,0-3.5,0c-7.6,3-10,6.7-9.8,14.3
		C170.7,55.5,170.5,63.5,170.5,72.7z"/>
	<path fill-rule="evenodd" d="M89.6,179.2c0-5.8-3.9-10.9-9.4-11.1c-12.2-0.4-24.5-0.3-36.7-0.3c-3.9,0-8,2-10.2,5.3
		c-0.8,1.3-2.9,2.8-2.9,4.2c0,1.2,0,2.3,0,3.5c6,7.6,8.9,10.1,16.5,9.8c7.1-0.3,14.7,0,21.8-0.1c3.7,0,7.6,0,11.3-0.4
		C85.5,189.4,89.6,184.6,89.6,179.2z"/>
	<path fill-rule="evenodd" d="M315,167.5c-7.1,0.3-13.7,0-20.8,0.1c-3.7,0-7.2,0-10.8,0.4c-5.5,0.7-9.3,5.4-9.3,10.9
		c0,5.8,3.9,10.9,9.4,11.1c12.2,0.4,24.5,0.3,36.7,0.3c3.9,0,6.1-2,8.2-5.3c0.8-1.3,1-2.8,1-4.2c0-1.2,0-2.3,0-3.5
		C326.5,169.6,322.5,167.2,315,167.5z"/>
	<path fill-rule="evenodd" d="M247.8,168.2c-2.6-17.2-10.7-31.4-24.4-42.1c-23.3-18.2-52.7-19.7-77.6-3.9
		c-18.1,11.5-28.1,28.5-30.3,49.7c-1.4,13.7,1.4,26.8,8,38.8c5.6,10.2,12,20,18.1,29.9c3.9,6.3,6.4,13,6.2,20.6
		c-0.2,6.4,3.2,9.4,9.5,9.5c8.1,0,40.8,0,49,0c6.4,0,9.7-3.1,9.5-9.5c-0.2-7.6,2.3-14.3,6.3-20.6c5.1-8.1,10.5-16.1,15.4-24.4
		C246.3,201.5,250.5,185.5,247.8,168.2z M161.3,157.6c-11.5,12-16.4,26.5-15.4,43.4c-9.3-10.9-12.3-34.2,1.7-51.2
		c14.6-17.7,39.3-20.5,56.9-9.8C187.1,140.2,172.7,145.6,161.3,157.6z"/>
	<path fill-rule="evenodd" d="M206.2,282.6c-8.1,0-40.5,0-48.7,0c-6.6,0-9.9,3.4-9.9,9.9c0,4.6,0,9.1,0,13.7
		c0,7.8,2.9,10.9,10.7,10.6c3.3-0.1,5.2,1,7.2,3.5c8.3,10.3,24.6,10.3,32.9,0c2.1-2.7,4.2-4,7.5-3.4c0.2,0,0.4,0,0.6,0
		c6.7-0.1,9.9-3.2,9.9-9.8c0-4.8,0-9.5,0-14.3C216.3,285.8,213.1,282.6,206.2,282.6z"/>
	<path fill-rule="evenodd" d="M100.3,113.5c0.5,0.5,1.2,1,1.8,1.4c3.8,2.6,7.7,3,11.8,0.8c3.9-2.1,5.9-5.5,6-8.6
		c0-4.5-1.1-7.2-3.3-9.5c-7.9-8-15.9-16-23.9-23.9c-3.5-3.5-7.9-4.7-12.6-2.8c-7.7,3.2-9.6,12.3-3.7,18.5
		C84.2,97.7,92.4,105.6,100.3,113.5z"/>
	<path fill-rule="evenodd" d="M253.5,117.1c4.7,0.1,7.5-1.1,9.8-3.4c7.9-7.9,15.9-15.8,23.7-23.7c3.5-3.5,4.8-7.8,2.9-12.5
		c-3.3-8-12.5-9.7-18.9-3.5c-6.4,6.2-12.7,12.6-19,19c-2.1,2.1-4.3,4.2-6.1,6.6c-2.7,3.7-2.9,7.8-0.7,11.8
		C247.3,115.1,250.7,116.9,253.5,117.1z"/>
	<path fill-rule="evenodd" d="M99.9,244.9c-7.6,7.5-15.1,15.1-22.7,22.7c-0.7,0.8-1.4,1.6-2,2.5c-2.6,3.7-2.8,7.5-0.9,11.5
		c2,4.1,5.3,6,9.8,6.2c0.1,0.2,0.3,0.5,0.4,0.7c2.6-1.3,5.7-2,7.8-4c8.3-7.9,16.5-16,24.4-24.3c5-5.2,4.5-12.2-0.7-16.8
		C111.3,239.6,104.8,240.1,99.9,244.9z"/>
	<path fill-rule="evenodd" d="M263.5,244.6c-3.5-3.5-7.8-4.8-12.6-2.8c-8,3.3-9.6,12.7-3.2,19.2c7.6,7.7,15.2,15.3,22.9,22.9
		c0.6,0.6,1.3,1.1,2,1.7c3.7,2.7,7.6,3.1,11.8,1.2c4.2-2,6.2-5.4,6.3-10c0.1-3.3-1.2-6.1-3.5-8.4
		C279.4,260.4,271.5,252.4,263.5,244.6z"/>
</g>
</svg>
