<?xml version="1.0" encoding="utf-8"?>
<!-- Generator: Adobe Illustrator 19.1.0, SVG Export Plug-In . SVG Version: 6.00 Build 0)  -->
<svg version="1.1" id="Layer_1" xmlns="http://www.w3.org/2000/svg" xmlns:xlink="http://www.w3.org/1999/xlink" x="0px" y="0px"
	 viewBox="0 0 298.3 275.2" style="enable-background:new 0 0 298.3 275.2;" xml:space="preserve">
<style type="text/css">
	.st0{fill-rule:evenodd;clip-rule:evenodd;fill:#B7B3B5;}
	.st1{fill-rule:evenodd;clip-rule:evenodd;fill:#FFFFFF;}
</style>
<g>
	<path class="st0" d="M298.3,9.4c0,85.4,0,170.9,0,256.3c-3.9,10.4-9.6,9.9-22.8,8.9c0-3.5,0-7.1,0-10.8c-11.6,0-23,0-34.7,0c0,3.8,0,7.4,0,11
		c-61.3,0-122.1,0-183.3,0c0-3.7,0-7.3,0-11c-11.7,0-23,0-34.7,0c0,3.8,0,7.4,0,11c-13.7,0.4-18.5,1.5-22.7-9.1
		C0,180.3,0,94.9,0,9.4C4-1,9.5-0.5,22.9,0.5c0,7.4,0,14.8,0,22.3c11.7,0,23,0,34.7,0c0-7.6,0-15,0-22.4c61.3,0,122.1,0,183.3,0
		c0,7.6,0,14.9,0,22.4c11.7,0,23,0,34.8,0c0-7.6,0-15,0-22.4C289.2-0.2,294.1-1.2,298.3,9.4z M114.7,137.3c0,14,0.4,28-0.1,41.9
		c-0.3,8.7,7.7,12.8,14.6,8.5c11.9-7.4,24.1-14.2,36.1-21.2c12.1-7,24.1-14.1,36.2-21.1c4.2-2.5,5.8-5.9,4.8-9.9
		c-0.8-3-3-4.6-5.5-6.1c-24-14-47.9-28-71.9-41.9c-7.5-4.4-14.2-0.5-14.2,8.2C114.7,109.5,114.7,123.4,114.7,137.3z M22.8,212.2
		c0,4.9,0.1,9.9,0,14.8c0,1.9,0.6,2.6,2.5,2.5c10-0.1,20-0.1,30,0c1.8,0,2.3-0.7,2.3-2.4c0-10-0.1-20,0-30c0-1.7-0.5-2.4-2.3-2.4
		c-10,0.1-20,0.1-30,0c-1.9,0-2.5,0.7-2.5,2.6C22.8,202.3,22.8,207.2,22.8,212.2z M258,229.5c4.9,0,9.9-0.1,14.8,0
		c1.9,0,2.8-0.4,2.8-2.6c-0.1-9.9-0.1-19.8,0-29.7c0-1.9-0.6-2.5-2.5-2.5c-10,0.1-20,0.1-30,0c-1.8,0-2.3,0.7-2.3,2.4
		c0,10,0.1,20,0,30c0,2,0.9,2.4,2.6,2.4C248.3,229.5,253.1,229.5,258,229.5z M23,57.3c0,11.6,0,22.9,0,34.3c11.5,0,22.8,0,34.2,0
		c0-11.5,0-22.9,0-34.3C45.7,57.3,34.5,57.3,23,57.3z M241,91.5c11.5,0,22.8,0,34.3,0c0-11.5,0-22.8,0-34.2c-11.5,0-22.8,0-34.3,0
		C241,68.7,241,80,241,91.5z M57.5,126c-11.3,0-22.2,0-33,0.1c-0.6,0-1.6,1.5-1.6,2.2c-0.1,10,0,20-0.1,29.9c0,1.8,0.6,2.4,2.4,2.4
		c10-0.1,20-0.1,29.9,0c1.9,0,2.5-0.7,2.5-2.5c-0.1-6.3,0-12.6,0-18.9C57.5,134.9,57.5,130.7,57.5,126z M241.3,126
		c-0.2,0.6-0.4,1-0.4,1.3c0,10.5,0,20.9-0.1,31.4c0,1.6,0.8,1.9,2.2,1.9c10.1,0,20.2,0,30.2,0c1.8,0,2.3-0.6,2.3-2.4
		c-0.1-10-0.1-20,0-29.9c0-1.8-0.6-2.4-2.3-2.4c-5,0.1-10.1,0-15.1,0C252.5,126,246.9,126,241.3,126z"/>
</g>
</svg>
