<?xml version="1.0" encoding="utf-8"?>
<!-- Generator: Adobe Illustrator 19.1.0, SVG Export Plug-In . SVG Version: 6.00 Build 0)  -->
<svg version="1.1" baseProfile="tiny" id="Layer_1" xmlns="http://www.w3.org/2000/svg" xmlns:xlink="http://www.w3.org/1999/xlink"
	 x="0px" y="0px" viewBox="0 0 360 360" xml:space="preserve">
<g>
	<path fill="#4D3E21" d="M340,299.1c0-81.3,0-162.6,0-243.8c0-15-4.9-19.8-20.1-19.8c-13.9,0-27.8,0-41.8,0c-35,0-70,0-105,0
		c-9.1,0-15.8,4.8-16.6,12.8c-0.7,6.8-0.1,13.8-0.1,20.9c5.2,0,10,0,15.4,0c0-4.7,0-9.1,0-13.7c51.1,0,101.6,0,152.2,0
		c0,69.6,0,138.7,0,207.8c-50.9,0-101.4,0-152.5,0c0-9.2,0-17.9,0-26.9c-5.3,0-9.9,0-15.2,0c0,24.9-0.3,49.1,0.1,73.3
		c0.1,8.6,7.5,14.8,16.2,14.8c19.2,0.1,38.4,0,57.6,0c30.9,0,61.7,0,92.6,0c11.2,0,17-5.8,17.2-17C340,304.7,340,301.9,340,299.1z
		 M245,308.3c-8,0-14.3-6.4-14.3-14.4c0-8,6.1-14.4,14.1-14.5c8.2-0.1,14.6,6.2,14.7,14.6C259.6,301.8,252.9,308.3,245,308.3z"/>
	<path fill="#4D3E21" d="M296.1,89.7c-31,0-61.6,0-92.3,0c0,19,0,37.5,0,56.3c30.8,0,61.4,0,92.3,0
		C296.1,126.9,296.1,108.4,296.1,89.7z"/>
	<path fill="#4D3E21" d="M296,225.2c0-22.2,0-43.8,0-65.6c-24,0-47.6,0-71.5,0c0,22.1,0,43.7,0,65.6
		C248.6,225.2,272.3,225.2,296,225.2z"/>
	<path fill="#4D3E21" d="M204.4,158.3c-25,0-49.8,0-75,0c0,17.6,0,34.7,0,51.8c25.3,0,50.1,0,75,0
		C204.4,192.7,204.4,175.6,204.4,158.3z"/>
	<path fill="#4D3E21" d="M182.1,84.8c-15.6,0-30.8,0-46.5,0c0,20.8,0,41,0,61.2c15.8,0,31.1,0,46.5,0
		C182.1,125.4,182.1,105.2,182.1,84.8z"/>
	<path fill="#4D3E21" d="M66.8,148.3c19.1,0,37.7,0,56.6,0c0-14.8,0-29.2,0-44.3c-19.1,0-37.8,0-56.6,0
		C66.8,119,66.8,133.6,66.8,148.3z"/>
	<path fill="#4D3E21" d="M20,181.4c15.2,0,29.9,0,44.8,0c0-11.9,0-23.4,0-35c-15.2,0-30,0-44.8,0C20,158.2,20,169.7,20,181.4z"/>
	<path fill="#4D3E21" d="M76.1,197c13.2,0,25.7,0,38.6,0c0-11.8,0-23.3,0-35c-13,0-25.7,0-38.6,0C76.1,173.8,76.1,185.1,76.1,197z"
		/>
</g>
</svg>
