<?xml version="1.0" encoding="utf-8"?>
<!-- Generator: Adobe Illustrator 19.1.0, SVG Export Plug-In . SVG Version: 6.00 Build 0)  -->
<svg version="1.1" baseProfile="tiny" id="Layer_1" xmlns="http://www.w3.org/2000/svg" xmlns:xlink="http://www.w3.org/1999/xlink"
	 x="0px" y="0px" viewBox="0 0 360 360" xml:space="preserve">
<path fill="#956EB0" d="M35,35v290h290V35H35z M292.6,286.2c-74.8,0-149.8,0-225,0c-0.4-9-0.4-17.7,2.7-26.1
	c1.4-3.7,4.1-6.5,7.3-8.8c6.6-4.8,14.2-7.8,21.7-10.8c16.1-6.6,32.1-13.4,48.3-19.9c3.4-1.4,4.4-3.3,4.5-6.9
	c0.1-5.4-0.5-10.1-3.7-14.9c-4.6-6.8-6.2-14.9-7.4-22.9c-6-1.4-10.8-6.5-11-12.9c-0.1-4.2,0.8-8.6,1.7-12.7c0.7-2.9,2.1-3.7,5.2-4.2
	c-0.5-4-1.2-8-1.4-12.1c-0.4-8.5-1.5-17.1,0.1-25.6c2.3-12.7,8.2-18.6,21-21.1c11.8-2.3,23.6-1.8,35.3,0.3
	c10.1,1.8,20.1,4.5,30.1,6.7c2.1,0.5,4.3,0.8,6.5,1.2c0,0.2,0,0.4-0.1,0.5c-5.2,4.4-6.3,9.8-4.7,16.4c2.4,9.6,2.1,19.4,0.5,29.1
	c-0.2,1.5-0.4,3-0.6,4.6c3.7,0.1,5,2.7,5.8,5.7c1.9,7,2.4,13.8-2.5,19.9c-1.8,2.3-3.9,4.3-7,4c-1.2,4.8-2,9.6-3.7,14.1
	c-1.9,4.8-4.6,9.3-7,13.9c-0.4,0.7-0.7,1.5-0.7,2.3c0,3.5,0.1,7,0.1,10.5c0,1.5,0.5,2.3,1.9,2.9c13,5.5,26,11.1,39,16.6
	c8.1,3.4,16.2,6.7,24.3,10.1c1.6,0.7,3.1,1.6,4.6,2.4c9.2,4.6,13.6,12.4,14.1,22.5C292.8,275.9,292.6,281,292.6,286.2z"/>
</svg>
