<?xml version="1.0" encoding="utf-8"?>
<!-- Generator: Adobe Illustrator 19.1.0, SVG Export Plug-In . SVG Version: 6.00 Build 0)  -->
<svg version="1.1" baseProfile="tiny" id="Layer_1" xmlns="http://www.w3.org/2000/svg" xmlns:xlink="http://www.w3.org/1999/xlink"
	 x="0px" y="0px" viewBox="0 0 360 360" xml:space="preserve">
<path fill="#4D3E21" d="M64,69.9c14.3-8.6,28-16.7,41.6-24.9c11.4-6.8,22.9-13.5,34.2-20.5c5.1-3.2,9.8-3.5,15.3-0.7
	c7.5,3.8,15.4,9.5,23.2,9.5c7.7,0,15.5-5.9,23.2-9.4c5.6-2.6,11.2-3.7,16.8-0.5c25.8,14.6,51.5,29.3,77.7,44.3
	c-23.6,30.4-54,48.1-92,53.6c0,10.6,0,21.2,0,32.1c3.1,0,6,0,9.1,0c0.6-5,0.7-9.8,1.7-14.5c2.7-12,13.3-20.3,25.9-20.5
	c13.7-0.2,24.9,7.3,28.2,19.3c1,3.7,1.5,7.5,1.5,11.3c0.1,27.3-0.6,54.6,0.2,81.8c0.5,17.6-5.2,31-19.2,41.8
	c-17.4,13.4-33.6,28.3-50.8,42.1c-11.5,9.2-22.4,19.5-37.9,22.6c-24.5,5-50.7-4.6-61-24.3c-3.7-7-5.7-15.6-6-23.6
	c-1-23-0.6-46.1-0.9-69.1c-0.1-9.3,3.6-16.6,10.9-22.5c15.8-12.9,31.3-26.1,47.1-39c3.3-2.7,4.9-5.4,4.7-9.7
	c-0.3-7.3-0.4-14.6,0-21.8c0.2-4.5-1.6-5.8-5.7-6.6C116.9,114.4,88.7,96.2,64,69.9z M156.4,244.7c0,3.8-0.1,7.2,0,10.6
	c0.1,6.8,3.3,10.4,9,10.6c5.7,0.1,9.4-4,9.4-10.9c0.1-10.3,0.1-20.6,0-30.9c0-7.7-2-9.7-9.7-9.7c-15.8-0.1-31.5-0.1-47.3,0
	c-6.8,0-9,1.8-9,8.4c0,24,0,48.1,0.4,72.1c0.1,7.4,3.1,14.1,8.5,19.5c14.6,15,44.8,15.8,62.3,1.2c22.3-18.7,44.2-37.8,66.6-56.4
	c7.2-6,11.1-13.2,11.1-22.4c0.1-29.9,0.2-59.8,0-89.7c0-9.9-6-15.4-15.5-15.4c-9.5,0-15.4,5.7-15.1,15.7c0.1,4.9,1.8,9.7,3,14.5
	c0.8,3.3,2.9,6.5,2.9,9.7c0.3,17.6,0.3,35.2,0,52.7c-0.2,11.5-6.4,18.3-17.6,20.6c-2.5,0.5-5.7,0.8-7.1,2.5
	c-5.2,6.4-11.6,9.7-19.7,9.6c-4.3,17.8-15.2,25.4-29.9,21.1c-13.5-4-18.8-15-14.9-33.3C147.9,244.7,151.8,244.7,156.4,244.7z
	 M269.7,68.5c-1.7-1.6-2.2-2.1-2.7-2.5c-17.6-9.8-35.2-19.7-53-29.1c-2.4-1.3-6.3-1.1-9.1-0.1c-6.6,2.4-12.8,6.1-19.4,8.3
	c-3.7,1.2-8.3,1.2-12,0.1c-6.2-1.7-12-4.6-17.9-7.3c-4.6-2.2-8.8-1.9-13.1,0.7c-8.5,5-17.2,9.7-25.8,14.6
	c-8.1,4.6-16.2,9.2-25.8,14.7c2.6,0.3,3.3,0.5,4.1,0.5c19.4,0,38.8,0.2,58.2-0.2c2.1,0,4.8-2.3,6-4.3c5-7.8,11.4-13,21.2-12.8
	c9.4,0.2,16,5,20.1,13.2c1.6,3.3,3.7,4.1,7.1,4.1c15.2-0.1,30.3-0.1,45.5-0.1C257.9,68.5,263.1,68.5,269.7,68.5z M190,153.3
	c0.1-2.1,0.3-3.5,0.3-4.9c0-23.8,0-47.7,0-71.5c0-8.3-3.8-12.5-10.8-12.3c-6.6,0.2-9.7,4.2-9.7,12.5c0,23.4,0,46.9,0,70.3
	c0,1.9,0,3.8,0,5.9C177,153.3,183.2,153.3,190,153.3z M203,110c26.1-3,48.3-13.1,68.4-31.4c-23.6,0-45.9,0-68.4,0
	C203,89.1,203,99.3,203,110z M156.3,78.6c-22.3,0-44.2,0-67.8,0c20.1,18.1,42.9,26.5,67.8,31.8C156.3,99.4,156.3,89.4,156.3,78.6z
	 M152.9,177.5c2.8,0.1,4.7,0.3,6.7,0.3c12.3,0,24.7-0.1,37,0.1c10.2,0.1,14.6,4.7,14.7,14.9c0,12.7,0,25.4,0,38.1
	c6.9-0.2,9.7-3.2,9.7-10.5c0.1-14.7,0.1-29.5,0-44.3c0-7.1-1.8-8.9-9-8.9c-12.5-0.1-25.1,0.6-37.6-0.2
	C165.2,166.3,158.9,169.9,152.9,177.5z M187.6,244.3c7.2-0.3,10.2-3.1,10.3-9c0.1-11.9,0-23.8,0-35.7c0-7-1.3-8.4-8.6-8.5
	c-15.1-0.1-30.3,0.3-45.4-0.2c-7.3-0.3-11.2,3.6-16.3,9.5c4.1,0,6.9,0,9.6,0c11.7,0.1,23.4,0.1,35.1,0.3
	c11.5,0.2,15.1,3.9,15.2,15.3C187.7,225.3,187.6,234.6,187.6,244.3z"/>
</svg>
