<?xml version="1.0" encoding="utf-8"?>
<!-- Generator: Adobe Illustrator 19.1.0, SVG Export Plug-In . SVG Version: 6.00 Build 0)  -->
<svg version="1.1" baseProfile="tiny" id="Layer_1" xmlns="http://www.w3.org/2000/svg" xmlns:xlink="http://www.w3.org/1999/xlink"
	 x="0px" y="0px" viewBox="0 0 360 360" xml:space="preserve">
<g>
	<path d="M307.1,140h-9.3l0.3-0.2l-106.5-75c0.5-1.5,0.9-3,0.9-4.6c0-7.8-6.4-14.2-14.2-14.2c-7.8,0-14.2,6.4-14.2,14.2
		c0,1.8,0.4,3.5,1,5L61.5,137.6l1.8,2.4h-8.6c-13.2,0-25.2,11.1-25.2,24.3v125.5c0,13.2,12,24.2,25.2,24.2h252.4
		c13.2,0,23.4-11,23.4-24.2V164.3C330.5,151.1,320.3,140,307.1,140z M178.3,51.3c4.9,0,8.9,4,8.9,8.9c0,4.9-4,8.9-8.9,8.9
		c-4.9,0-8.9-4-8.9-8.9C169.4,55.3,173.4,51.3,178.3,51.3z M167.9,69.6c2.6,2.8,6.3,4.7,10.4,4.7c4.3,0,8-2.1,10.6-5L289.3,140H67.1
		L167.9,69.6z M324.5,288.9c0,10.3-8,19.1-18.2,19.1H55.6c-10.3,0-18.1-8.8-18.1-19.1V162.1c0-10.3,7.8-18.1,18.1-18.1h238.2
		l1.3,0.9l0.6-0.9h10.6c10.3,0,18.2,7.8,18.2,18.1V288.9z"/>
	<polygon points="212.3,184.2 213.4,186.1 213.4,184.9 	"/>
	<path d="M306.5,169.6c0-5.9-4.8-10.6-10.6-10.6H60.1c-5.9,0-10.6,4.8-10.6,10.6v112.7c0,5.9,4.8,10.6,10.6,10.6h235.7
		c5.9,0,10.6-4.8,10.6-10.6V169.6z M113.5,171h10v22h15v-22h9v46h-9v-18h-15v18h-10V171z M107.5,177h-15v40h-9v-40h-13v-6h37V177z
		 M135.5,263.6V280h-6v-16.9L112.7,230h8.8l11.4,23.1l11.4-23.1h8.8L135.5,263.6z M193.5,260.7c0,5.8-0.8,10.6-4.4,14.4
		c-3.6,3.8-7.9,5.7-13.7,5.7c-5.7,0-10.1-1.9-13.7-5.7c-3.6-3.8-5.2-8.6-5.2-14.4v-8.5c0-5.8,1.9-10.6,5.4-14.4
		c3.5-3.8,8.2-5.7,13.9-5.7c5.8,0,9.5,1.9,13.2,5.7c3.6,3.8,4.5,8.6,4.5,14.4V260.7z M188.9,217l-3.6-9h-16.8l-3.6,9h-8.2l16.5-46
		h7.5l16.3,46H188.9z M241.5,264c0,5.3-2.4,9.4-5.9,12.4c-3.5,3-8.3,4.5-13.7,4.5c-5.4,0-11.8-1.5-15.2-4.5c-3.4-3-7.2-7.1-7.2-12.4
		v-34h13v34c0,3.4,0.3,6,2.2,7.8c1.9,1.8,4.1,2.8,7.2,2.8c3.2,0,5.8-0.9,7.7-2.8c2-1.8,2.9-4.4,2.9-7.8v-34h9V264z M241.5,217H232
		l-19.5-30.9V217h-13v-46h11.3l21.2,34.5l0.4,0.2V171h9V217z M277.2,217l-15.5-18h-2.2v18h-12v-46h12v22h1.4l15.4-22h9.3l0.1,0.5
		l-17.8,21.4l19.2,24.1H277.2z"/>
	<polygon points="176.8,180 170.7,202 183.1,202 177,180 	"/>
	<path d="M175.9,238.6c-3.5,0-6.8,1.3-8.8,3.8c-2,2.5-3.6,5.8-3.6,9.7v8.6c0,4,1.6,7.3,3.6,9.8c2,2.6,5,3.8,8.5,3.8
		c3.6,0,6.6-1.3,8.7-3.8c2.1-2.5,3.2-5.8,3.2-9.8v-8.6c0-4-1-7.2-3.1-9.7C182.3,239.9,179.5,238.6,175.9,238.6z"/>
</g>
</svg>
