<?xml version="1.0" encoding="utf-8"?>
<!-- Generator: Adobe Illustrator 19.1.0, SVG Export Plug-In . SVG Version: 6.00 Build 0)  -->
<svg version="1.1" baseProfile="tiny" id="Layer_1" xmlns="http://www.w3.org/2000/svg" xmlns:xlink="http://www.w3.org/1999/xlink"
	 x="0px" y="0px" viewBox="0 0 360 360" xml:space="preserve">
<g>
	<path fill="#4D3E21" d="M208.6,291.9c-6.1,0-12.3,0-18.7,0c-0.1-1-0.1-1.7-0.1-2.4c0-40.6,0-81.2-0.1-121.9c0-1.8,0.7-2.5,2.3-3.3
		c11.9-5.4,18.7-17.5,17-30c-1.9-13.7-13.2-24.2-26.8-25c-14.3-0.8-26.8,8.1-30.3,21.6c-3.5,13.6,3.1,27.4,16.1,33.3
		c2.1,0.9,2.5,2,2.5,4c0,40.1,0,80.2,0,120.4c0,1,0,1.9,0,3.2c-6.6,0-13,0-19.3,0c-9.5,0-17.6,5.9-18.8,15.3
		c-1,7.5-0.2,15.3-0.2,22.9c32.1,0,64.1,0,96.3,0c0-6.3,0-12.4,0-18.5C228.3,300.1,220.1,291.9,208.6,291.9z"/>
	<path fill="#4D3E21" d="M276,30c-4.5,4.5-9.1,9-13.7,13.6c27.8,25.2,43.1,56.6,43.1,94.5c0,38-15.3,69.5-43.7,95.1
		c4.2,4.2,8.2,8,12.1,11.9c0.6,0.6,1.2,1.1,1.7,1.6C341.1,189.8,341.7,87.3,276,30z"/>
	<path fill="#4D3E21" d="M54.6,138.1c0-38,15.4-69.4,43.2-94.5C93,38.8,88.5,34.4,84,29.9C16.3,89.7,21,192.4,84.2,246.4
		c4.5-4.4,8.9-8.9,13.7-13.6C69.9,207.6,54.6,176.1,54.6,138.1z"/>
	<path fill="#4D3E21" d="M248.5,57.1c-4.5,4.5-8.9,8.9-13.7,13.6c20.4,17.7,32,40,32,67.5c0,27.4-11.7,49.7-31.7,67.2
		c4.8,4.8,9.3,9.2,13.8,13.7C302.2,172.5,295.7,96.1,248.5,57.1z"/>
	<path fill="#4D3E21" d="M93.2,138c0-27.4,11.8-49.7,31.9-67.2c-4.8-4.8-9.3-9.3-13.8-13.7c-54,46.7-46.6,124.4,0.4,162.2
		c4.4-4.4,8.8-8.8,13.6-13.5C104.8,187.8,93.2,165.5,93.2,138z"/>
	<path fill="#4D3E21" d="M138.9,192.1c4.5-4.5,9-8.9,13.7-13.6c-12.4-10.4-20.8-23.3-20.8-40.3c0-17,8.3-29.9,20.8-40.4
		c-4.8-4.8-9.3-9.2-13.8-13.7C101.8,114.3,104.9,165.6,138.9,192.1z"/>
	<path fill="#4D3E21" d="M228.2,138.3c0,17-8.4,29.9-20.9,40.3c4.7,4.7,9.2,9.1,13.8,13.7c36.8-30.6,34.1-80.7,0.2-107.9
		c-4.5,4.5-9.1,9-13.8,13.7C220,108.4,228.2,121.3,228.2,138.3z"/>
</g>
</svg>
