<?xml version="1.0" encoding="utf-8"?>
<!-- Generator: Adobe Illustrator 19.1.0, SVG Export Plug-In . SVG Version: 6.00 Build 0)  -->
<svg version="1.1" id="Layer_1" xmlns="http://www.w3.org/2000/svg" xmlns:xlink="http://www.w3.org/1999/xlink" x="0px" y="0px"
	 viewBox="0 0 300 224.3" style="enable-background:new 0 0 300 224.3;" xml:space="preserve">
<style type="text/css">
	.st0{fill-rule:evenodd;clip-rule:evenodd;fill:#B7B3B5;}
	.st1{fill-rule:evenodd;clip-rule:evenodd;fill:#FFFFFF;}
</style>
<g>
	<path class="st0" d="M0,87.8c1-5.4,1.6-10.8,3-16c7.1-26.1,21.3-47.3,44.5-61.9c10.6-6.6,22.3-9.8,34.8-9.8
		C104.6,0,127,0,149.4,0.1c12.7,0,23.9,4.9,34.5,11.5c12,7.4,22.5,16.8,33.2,26c6.3,5.4,12.6,10.8,19,16.1c3.6,3,7.6,4.2,12.3,4.5
		c24.1,1.4,43,14.5,49.9,36.6c1,3.3,1.5,6.9,1.6,10.3c0.2,6.9,0.1,13.9,0.1,20.8c-0.1,7.6-4.6,12.2-12.2,12.4c-3.4,0.1-6.8,0-10.6,0
		c-0.7-12-5.5-21.7-15.4-28.5c-6.2-4.3-13.2-6.3-20.7-6c-9.2,0.4-17.1,3.9-23.5,10.4c-6.4,6.6-9.6,14.6-10,23.9
		c-34.6,0-69,0-103.4,0c-1.5-23.6-20.2-34.6-35.3-34.4C53,104,35.9,115.4,34.3,138.3c-2.6,0-5.2,0-7.8,0c-3.9,0-7.8-0.2-11.7,0.1
		c-7.4,0.6-12.5-2.3-14.8-9.5C0,115.2,0,101.5,0,87.8z M127.1,57.5c25.9,0,51.7,0,77.4,0c0.1-0.3,0.3-0.5,0.4-0.8
		c-9.3-7.5-18.6-15.1-28.1-22.4c-3.7-2.8-7.9-5.1-12-7.2c-6.4-3.3-13.2-4.5-20.4-4.2c-5.7,0.2-11.5,0-17.4,0
		C127.1,34.7,127.1,46.1,127.1,57.5z M103.8,22.9c-6,0-11.8-0.1-17.5,0c-3.9,0.1-7.8,0.1-11.6,0.8C62.1,25.9,52.4,33,44.2,42.2
		c-4.1,4.6-7.5,9.8-11.2,14.7c0.2,0.2,0.4,0.4,0.7,0.7c23.3,0,46.7,0,70.1,0C103.8,46,103.8,34.7,103.8,22.9z"/>
	<path class="st0" d="M101.9,178.2c8.7,0,17.2,0,25.6,0c1.7,0,2.8-0.4,3.9-1.9c9.9-12.9,27.2-12.8,37.3,0c0.7,0.9,2.3,1.7,3.6,1.7
		c12.4,0.1,24.8,0.1,37.2,0.1c8.7-21.2,28.8-25.6,42.4-21.7c14.8,4.3,25.4,18.5,24.9,33.8c-0.5,16.4-11.6,29.9-27.4,33.2
		c-15,3.1-32.5-3.9-39.7-22.3c-12.5,0-25,0-37.5,0.1c-1.1,0-2.6,0.8-3.3,1.7c-10.4,13-27.3,13-37.6,0.1c-0.8-0.9-2.3-1.7-3.6-1.7
		c-8.1-0.2-16.2-0.2-24.3-0.1c-0.8,0-1.9,1.3-2.4,2.2c-5.9,13.1-18.8,21.4-32.8,20.9c-19.2-0.7-34.5-17.1-33.4-36.1
		c1.1-19.7,17.9-34.6,37.5-32.8c13.3,1.3,22.8,8.3,28.6,20.4C101.2,176.7,101.6,177.6,101.9,178.2z M241.6,209.4
		c10.3,0.6,19.7-7.9,20.3-18.2c0.7-11.4-7.5-20.5-19.1-21.2c-10.1-0.6-19.6,8.1-20.2,18.7C222,199.6,230.4,208.8,241.6,209.4z
		 M49.6,189.9c0.1,10.9,9.1,19.8,19.8,19.6c10.8-0.2,19.5-9,19.6-19.7c0-10.7-9.1-19.8-19.8-19.8C58.4,170,49.5,179,49.6,189.9z"/>
</g>
</svg>
