<?xml version="1.0" encoding="utf-8"?>
<!-- Generator: Adobe Illustrator 19.1.0, SVG Export Plug-In . SVG Version: 6.00 Build 0)  -->
<svg version="1.1" baseProfile="tiny" id="Layer_1" xmlns="http://www.w3.org/2000/svg" xmlns:xlink="http://www.w3.org/1999/xlink"
	 x="0px" y="0px" viewBox="0 0 360 360" xml:space="preserve">
<g>
	<path fill="#4D3E21" d="M72.3,193.8c-7.2,3-14,5.8-20.9,8.7c0,2,0,4.1,0,6.1c5.9,2.4,11.7,6.9,17.6,7c59.4,0.5,118.8,0.3,178.2,0.3
		c15.9,0,31.8,0.6,47.6-0.3c5.7-0.3,11.1-4.5,16.6-7c0-1.4,0-2.7,0-4.1c-6.5-3.7-12.9-7.5-21.3-12.3c4.8-34.5-5.1-67.8-32.6-94.6
		c-22.3-21.8-49.6-31.8-81-31.1C125.3,67.7,62.5,115.5,72.3,193.8z M144.6,93.8c33.7-15.9,78.7-6.5,103.2,21.4
		c18,20.5,25.3,44.1,23.3,71.2c-0.6,7.5-3.1,10.8-11.2,10.2c-10.4-0.7-20.9-0.2-31.6-0.2c0-14.1,0-26.8,0-39.1
		c-8.2,2.6-14.1,5.5-20.3,6c-3.3,0.3-7.7-2.7-10.3-5.4c-6.7-6.8-5.6-15.3,3.4-26.9c-16.8-6.8-32.5-5.8-47.3,4.1
		c-18.8,12.4-24.1,29.7-18.7,61.3c-12.3,0-24.4,0.4-36.4-0.3c-2.3-0.1-5.8-4.2-6.3-7C85.3,151.5,107.5,111.4,144.6,93.8z"/>
	<path fill="#4D3E21" d="M248.3,235.8c-35.4,40.8-97.4,41.1-133.2,0.6c-9.1-10.3-17.8-10.5-29.1-9.1c13.8,33.6,55.6,58.6,96.5,58.2
		c40.1-0.4,81.5-25.8,94.2-58.3C265.9,226.2,257.2,225.6,248.3,235.8z"/>
	<path fill="#4D3E21" d="M49.8,100.6c0-15.6,0-30.6,0-46.5c15.9,0,31.1,0,46.7,0c0-6.7,0-12.5,0-19.5c-18.5,0-36.3-0.3-54.1,0.1
		c-6.5,0.1-11.7,4.5-11.9,10.9c-0.6,18.3-0.2,36.7-0.2,54.9C37.1,100.6,43.1,100.6,49.8,100.6z"/>
	<path fill="#4D3E21" d="M310.7,100.9c6.7,0,12.5,0,18.9,0c0-18.5,0.4-36.6-0.2-54.6c-0.2-7.3-5.9-11.5-13.1-11.6
		c-17.3-0.3-34.6-0.1-52.6-0.1c0,7.1,0,13.1,0,20c15.7,0,30.9,0,47,0C310.7,70.6,310.7,85.8,310.7,100.9z"/>
	<path fill="#4D3E21" d="M49.4,259.2c-6.7,0-12.6,0-19.3,0c0,18.2-0.3,36,0.1,53.8c0.1,6.5,4.4,11.7,10.9,11.9
		c18.3,0.6,36.7,0.2,55.2,0.2c0-6.7,0-12.7,0-19.5c-15.8,0-31,0-46.9,0C49.4,289.6,49.4,274.6,49.4,259.2z"/>
	<path fill="#4D3E21" d="M329.9,284.8c0-8.5,0-17,0-25.3c-7.4,0-13.4,0-19.9,0c0,15.7,0,30.6,0,46.5c-15.8,0-31,0-46.6,0
		c0,6.6,0,12.4,0,19.5c18.3,0,35.8,0.3,53.4-0.1c8.3-0.2,12.7-5.7,13-14.5C330.1,302.1,329.9,293.4,329.9,284.8z"/>
</g>
</svg>
