<?xml version="1.0" encoding="utf-8"?>
<!-- Generator: Adobe Illustrator 19.1.0, SVG Export Plug-In . SVG Version: 6.00 Build 0)  -->
<svg version="1.1" baseProfile="tiny" id="Layer_1" xmlns="http://www.w3.org/2000/svg" xmlns:xlink="http://www.w3.org/1999/xlink"
	 x="0px" y="0px" viewBox="0 0 360 360" xml:space="preserve">
<g>
	<path d="M236.7,54.9c-34.6,0-39.1,0-72,0c-54.2,0-96.3,40.9-96.3,80.4c0,1.8,0,3.1,0,4c0,1.3,0,1.7,0,1.7c0,0.9,0,2.2,0,4
		c0,52,45.6,90.8,82.1,90.8c32,0,83.5,0,83.5,0l67.5,46.1l-19.5-56c0,0,45.4-28.9,45.4-79.1c0-0.9,0-1.4,0-1.7c0-0.3,0-0.4,0-0.4
		c0-0.9,0-3.5,0-10.3C327.5,87.3,282.9,54.9,236.7,54.9z"/>
	<path d="M147.3,245.9c-39.9,0-88.8-42.6-88.8-97.6v-9.8c0-8.6,2-17.3,5.3-25.9c-19.8,14.8-31.3,35.6-31.3,57v12.4
		c0,46.4,46.8,73.5,47.2,73.8l4.7,1.8l-5,47.5l48.2-38.2h85.4c10.6,0,22-3.3,32.6-9.6l-16.5-11.4H147.3z"/>
</g>
</svg>
