<?xml version="1.0" encoding="utf-8"?>
<!-- Generator: Adobe Illustrator 19.1.0, SVG Export Plug-In . SVG Version: 6.00 Build 0)  -->
<svg version="1.1" baseProfile="tiny" id="Layer_1" xmlns="http://www.w3.org/2000/svg" xmlns:xlink="http://www.w3.org/1999/xlink"
	 x="0px" y="0px" viewBox="0 0 360 360" xml:space="preserve">
<g>
	<path fill="#4D3E21" d="M180,29C96.9,29,29,96.9,29,180.2C29,262.9,97,331,179.7,331C263,331,331,263.2,331,180.1
		C331,97,263.1,29,180,29z M179.9,313.5c-73.3,0-133.4-59.9-133.3-133c0-73.9,59.6-134,132.8-134c74.1,0,134.2,59.5,134.1,132.7
		C313.4,253.8,254,313.5,179.9,313.5z"/>
	<path fill="#4D3E21" d="M281.9,182.7c-7.5,0.8-15.2,1.1-22.4,2.9c-34.5,8.4-57.3,30.3-70.6,62.7c-0.8,2-1.7,3.9-2.5,5.9
		c-1.5-1.6-1.9-2.7-1.9-3.9c0-16.8,0.4-33.5-0.1-50.3c-0.5-16.8,5.4-29.3,19.8-38.7c9.5-6.1,13.5-16.4,14.2-28.6
		c-4,0-7.6-0.2-11.1,0c-4.2,0.3-5.9-1.4-5.8-5.6c0.2-7.4,0.1-14.8,0-22.2c0-3.1,0.4-6.6-4.1-6.8c-4.6-0.1-4.9,3.3-5,6.7
		c0,7.8-0.1,15.5,0,23.3c0.1,3.2-1.2,4.6-4.4,4.5c-5-0.1-10.1-0.2-15.1,0c-4,0.2-5.4-1.4-5.3-5.4c0.2-7.9,0.3-15.9-0.2-23.8
		c-0.1-1.9-2.6-4.8-4.5-5.2c-3.6-0.8-4.3,2.3-4.3,5.3c0,5.4,0,10.8,0,16.2c0,12.5,0,12.6-12.6,12.8c-4.2,0.1-4.7,1.5-4,5.3
		c2.1,11,7.6,19.7,16.9,26c10.5,7.2,16.6,16.4,16.4,29.8c-0.3,18.7,0.3,37.5,0.4,56.2c0,1.3-0.4,2.7-0.7,4c-0.4,0-0.9,0.1-1.3,0.1
		c-0.7-1.6-1.3-3.3-2.1-4.8c-5.1-9.3-9.3-19.3-15.7-27.6c-19.5-25.8-46.2-38.1-78.4-38.8c-3.8-0.1-5.9,1.3-5.3,5.4
		c0.9,6.8,1.3,13.7,2.9,20.2c18.4,73.8,104.6,106.2,166.9,62.6c28.2-19.8,43.4-47.4,46-81.9C288.3,184.4,286.5,182.2,281.9,182.7z"
		/>
</g>
</svg>
