<?xml version="1.0" encoding="utf-8"?>
<!-- Generator: Adobe Illustrator 19.1.0, SVG Export Plug-In . SVG Version: 6.00 Build 0)  -->
<svg version="1.1" baseProfile="tiny" id="Layer_1" xmlns="http://www.w3.org/2000/svg" xmlns:xlink="http://www.w3.org/1999/xlink"
	 x="0px" y="0px" viewBox="0 0 360 360" xml:space="preserve">
<g>
	<path fill="#4D3E21" d="M330.7,135.4c-6.9-34.9-25.3-62.2-54.7-82.1c-17.9-12.1-37.8-18.8-59.3-20.5c-0.7-0.1-1.3-0.3-2-0.5
		c-5.6,0-11.2,0-16.7,0c-0.9,0.2-1.7,0.4-2.6,0.5c-5.1,0.8-10.3,1.2-15.3,2.3c-32.9,7.2-59.1,24.7-78.1,52.4
		c-18,26.1-24.9,55.2-21.3,86.7c0.2,2.1,1.2,2.8,3,3.3c24.9,7.1,50.2,8,75.8,6.3c6-0.4,12-1,18.2-1.6c-1.4,4-6.1,6.5-4.5,11.5
		c16.6,0,33.2,0,49.9,0c0-4,0-7.8,0-11.9c-4.8,0-9.5,0-14.1,0c-4.7,0-9.4,0-14.5,0c5.6-8.5,11-16.3,15.9-24.4
		c3.1-5.2,5.9-10.7,7.6-16.4c2.2-7.6,0.5-14.9-6.1-20.1c-9.3-7.3-25.2-7-34.2,0.7c-2.2,1.9-3.8,4.3-5.9,6.7c3.5,2.8,6.4,5.1,9.4,7.4
		c2.5-3.8,5.2-7.1,9.6-7.9c8.6-1.7,16.2,1.5,13,12.9c-1,3.7-2.7,7.3-4.8,10.5c-6,9.4-12.4,18.5-18.7,27.7c-0.5,0.8-1.9,1.4-2.9,1.3
		c-4-0.3-7.9-0.8-11.9-1.4c-14.5-2.2-28.7-5.7-41.9-12.4c-8.8-4.5-16.7-10.2-22.1-18.6c-1.2-1.9-2.1-3.9-3.4-6.5
		c4.2,0.7,7.5,1.3,11.1,1.9c0.3-1.7,0.5-3,0.8-4.5c-3.7-0.7-7-1.4-10.7-2.2c2.4-11.4,6.3-21.9,12.1-31.8c3.3,2,6.3,3.8,9.5,5.7
		c0.8-1.4,1.5-2.6,2.4-4c-3.3-2-6.3-3.9-9.4-5.8c6.4-9.9,13.6-18.3,22.5-25.6c2.4,3,4.7,5.8,7.1,8.7c1.3-1.1,2.4-1.9,3.6-2.9
		c-2.4-3.1-4.6-5.9-6.9-8.9c9.4-7,19.1-12.5,30.1-16.2c1.2,3.7,2.4,7.2,3.6,10.7c1.5-0.5,2.8-0.9,4.4-1.4c-1.1-3.7-2.2-7.2-3.4-10.8
		c11.1-3.4,22.3-4.9,33.7-4.6c0,4.1,0,7.7,0,11.4c1.6,0,2.9,0,4.4,0c0.2-3.8,0.4-7.4,0.6-11.3c11.7,0.8,22.6,3.2,33.3,7.5
		c-1.5,3.7-2.9,7-4.4,10.6c1.5,0.6,2.9,1.2,4.3,1.8c1.6-3.6,3.1-7,4.6-10.6c10.7,4.9,20.1,10.9,28.6,18.8c-2.8,3-5.3,5.6-7.9,8.4
		c1.2,1.2,2.3,2.1,3.4,3.2c2.8-2.9,5.3-5.5,8-8.3c8.3,8.2,15,17.3,20.4,27.6c-3.5,1.7-6.8,3.4-10.4,5.2c0.8,1.5,1.4,2.8,2.1,4.1
		c3.6-1.7,6.9-3.3,10.4-5c4.9,10.6,8,21.4,9.3,32.9c-4.1,0.5-7.7,0.9-11.5,1.3c0.3,1.7,0.5,3.1,0.8,4.6c3.9-0.4,7.5-0.7,11.2-1
		c0.9,11.6,0.1,22.8-2.7,34c-3.8-1-7.3-1.8-11-2.8c-0.4,1.6-0.8,2.9-1.2,4.4c3.7,1,7.3,2,11,3.1c-3.3,11.3-8.1,21.4-14.6,30.9
		c-3.2-2.3-6.1-4.3-9.2-6.4c-1,1.4-1.8,2.5-2.7,3.8c3.2,2.3,6.1,4.5,9.1,6.6c-7.1,9.3-15,17.1-24.4,23.8c-2.2-3.1-4.3-6.1-6.4-9.2
		c-1.4,1-2.6,1.9-3.8,2.7c2.1,3.2,4.1,6,6.2,9.1c-1.1,0.7-2.1,1.5-3.1,2c-5.1,2.6-10.3,5.1-15.4,7.8c-0.8,0.4-2,1.3-2,2
		c-0.2,5.5-0.1,10.9-0.1,16.7c1.1-0.3,2-0.5,2.8-0.8c43.4-16.5,71-47.1,82-92.2c1.5-6.1,2.1-12.5,3.1-18.8c0-5.6,0-11.2,0-16.7
		C332.2,145.6,331.7,140.5,330.7,135.4z"/>
	<path fill="#4D3E21" d="M225.9,246.5c-12.1-11.3-23.7-23.1-35.4-34.8c-3.4-3.4-7.2-5-12-4.9c-5.9,0.2-11.9,0-18.1,0
		c0-2.2,0-4.1,0-6c0-7.6-3.7-11.3-11.4-11.3c-36.3,0-72.5,0.1-108.8-0.1c-6.1,0-10.7,1.5-13.2,7.3c0,23.1,0,46.2,0,69.3
		c1-0.1,2-0.3,2.9-0.3c64.6,0,129.3,0,193.9,0c2.7,0,5.5,0,8.2,0C233.1,258,231.7,251.9,225.9,246.5z M209.7,250.4
		c-5.7,0.1-11.3,0-17,0c-5.9,0-11.7-0.1-17.6,0c-2.2,0-3-0.8-2.9-3c0.1-8.8,0.1-17.7,0-26.5c0-2.1,0.7-2.6,2.8-2.8
		c4.4-0.4,7.8,0.8,11,4.1c8.2,8.4,16.9,16.3,25.3,24.4c0.7,0.7,1,1.8,1.5,2.7C211.7,249.7,210.7,250.4,209.7,250.4z"/>
	<path fill="#4D3E21" d="M232.1,271.3c-1.2,0-2.2,0-3.2,0c-54.9,0-109.9,0-164.8,0c-12.3,0-24.7,0.1-37,0.2c0,8,0,15.9,0,23.9
		c1.5,4,3.9,7.2,8.3,7.6c4.9,0.4,9.9,0.1,14.8,0.1c2.8-14.4,13.9-22.2,25-23.1c5.7-0.4,11.1,0.8,16,3.8c7.3,4.4,11.5,11.1,13.1,19.2
		c18.1,0,35.8,0,53.6,0c3.4-16.2,16.1-22.8,25.9-23.1c5.9-0.2,11.4,1.3,16.4,4.7c6.6,4.5,10.4,10.8,11.9,18.6c3.3,0,6.4,0,9.4,0
		c6.9,0,11-4,11-10.9c0-6.1,0-12.1,0-18.2C232.3,273.2,232.2,272.3,232.1,271.3z"/>
	<path fill="#4D3E21" d="M77.1,286.4c-9.8,0-18.7,7.4-20.2,16.7c-1.7,10.6,4,20.2,14,23.5c0.9,0.3,1.8,0.7,2.7,1c2.4,0,4.8,0,7.2,0
		c0.9-0.3,1.8-0.7,2.7-1c9.7-3.2,15.5-12.8,13.9-23C95.9,293.9,87.1,286.4,77.1,286.4z M77.3,317.3c-5.8,0.1-10.4-4.6-10.4-10.4
		c0-5.6,4.7-10.3,10.2-10.2c5.6,0,10.2,4.6,10.2,10.3C87.4,312.6,82.9,317.2,77.3,317.3z"/>
	<path fill="#4D3E21" d="M184.9,286.4c-9.9,0-18.7,7.4-20.3,16.9c-1.7,10.3,4.1,20,13.9,23.2c0.9,0.3,1.8,0.7,2.7,1
		c2.4,0,4.8,0,7.2,0c0.9-0.3,1.8-0.7,2.7-1c9.9-3.2,15.6-12.7,14-23.2C203.6,293.9,194.8,286.5,184.9,286.4z M184.9,317.3
		c-5.6,0-10.2-4.5-10.3-10.2c-0.1-5.7,4.7-10.5,10.3-10.4c5.6,0.1,10.1,4.7,10.1,10.4C195,312.7,190.5,317.3,184.9,317.3z"/>
	<path fill="#4D3E21" d="M265,119.9c-12.1,14.4-24.2,28.8-36.7,42.9c-3.1,3.6-2.7,7.1-2.4,11.2c11.7,0,23.1,0,34.8,0
		c0,6.7,0,13.2,0,19.7c4.5,0,8.6,0,13.1,0c0-6.7,0-13.2,0-19.9c2.7,0,5.1,0,7.6,0c0-3.6,0-6.9,0-10.8c-2.6,0-5,0-7.7,0
		c0-15.5,0-30.8,0-46C270,116.1,267.5,117,265,119.9z M260.5,162.9c-6.3,0-12.5,0-19.4,0c6.6-7.7,12.8-15,19.4-22.7
		C260.5,148.2,260.5,155.5,260.5,162.9z"/>
</g>
</svg>
