<?xml version="1.0" encoding="utf-8"?>
<!-- Generator: Adobe Illustrator 19.1.0, SVG Export Plug-In . SVG Version: 6.00 Build 0)  -->
<svg version="1.1" id="Layer_1" xmlns="http://www.w3.org/2000/svg" xmlns:xlink="http://www.w3.org/1999/xlink" x="0px" y="0px"
	 viewBox="0 0 297.7 300" style="enable-background:new 0 0 297.7 300;" xml:space="preserve">
<style type="text/css">
	.st0{fill-rule:evenodd;clip-rule:evenodd;fill:#B7B3B5;}
	.st1{fill-rule:evenodd;clip-rule:evenodd;fill:#FFFFFF;}
</style>
<g>
	<path class="st0" d="M29.9,300c-0.2-0.2-0.4-0.5-0.6-0.5c-5.8-1.9-8.4-6.1-8.4-11.9c-0.1-10.9-0.1-21.9,0-32.8
		c0.1-7.9,4.7-12.2,12.6-12.2c15.3-0.1,30.7,0,46,0c1.1,0,2.1,0,4,0c-24.5-41.6-48.8-82.7-73-123.7c11.8,9.3,25.1,14.1,40.1,13.1
		c15.1-1,27.8-7.1,37.7-19.1c0.7,1.1,1.3,2.1,1.9,3c24,41.2,48.1,82.4,72.1,123.6c1.4,2.5,3,3.3,5.8,3.2c15.6-0.1,31.2-0.1,46.9-0.1
		c9.5,0,13.7,4.3,13.7,13.8c0,9.5-0.2,18.9,0.1,28.4c0.2,7.3-2,12.7-9.3,15.3C156.1,300,93,300,29.9,300z"/>
	<path class="st0" d="M297.7,93.2c-1,5.4-4.6,8.4-9.1,11.1c-17.5,10.3-34.8,20.8-52.2,31.2c-7.6,4.5-12.8,3.6-18.3-3.3
		c-7-8.8-14.1-17.5-21-26.3c-1.3-1.6-2.5-2.3-4.6-2.3c-6.6,0.1-13.3,0.1-19.9,0.1c-7.9,0-11.8-3.2-13.4-11.4c-19.7,0-39.4,0-59.8,0
		c5.8-15.5,6.9-30.6-0.1-46c20.2,0,40,0,59.9,0c0.2-0.8,0.3-1.4,0.4-1.9c1.1-5.9,5.5-9.6,11.8-9.7c7-0.1,14.1-0.1,21.1,0
		c2.2,0.1,3.5-0.7,4.9-2.4c5.8-7.5,11.8-14.8,17.7-22.2c3.2-4,6.1-8.3,11.3-10.1c1.4,0,2.7,0,4.1,0c3.2,1.7,6.4,3.2,9.5,5.1
		c16.2,9.6,32.3,19.4,48.5,29c4.3,2.6,8,5.4,9.4,10.5c0,1,0,2,0,2.9c-1.2,2.2-1.9,4.8-3.5,6.5c-4.1,4.4-9.5,4.6-15.4,1
		c-14.9-8.9-29.8-17.9-44.7-26.8c-0.9-0.5-1.8-1-2.9-1.6c-4.8,6-9.5,11.8-14.2,17.7c-3.8,4.8-9,9.2-10.9,14.7
		c-1.9,5.5-0.6,12.2-0.5,18.3c0,1.6,0.7,3.5,1.7,4.7c7.4,9.5,14.9,18.8,22.4,28.2c0.5,0.6,1,1.1,1.6,1.7c1.1-0.6,2-1.1,2.9-1.7
		c14.9-8.9,29.8-17.9,44.7-26.8c3.4-2,6.9-3.1,10.9-1.8c4.6,1.5,6.6,5.1,8,9.3C297.7,91.6,297.7,92.4,297.7,93.2z"/>
	<path class="st0" d="M0,69.4c-0.1-24.2,19.6-44,43.9-44c24,0,43.8,19.7,43.9,43.8c0.1,24-19.6,43.8-43.7,43.9
		C19.7,113.2,0.1,93.7,0,69.4z M43.8,43.7c-14,0-25.5,11.5-25.6,25.5C18.1,83.1,30.1,95.1,44,94.9C58,94.7,69.4,83.1,69.4,69.2
		C69.3,55.1,57.9,43.7,43.8,43.7z"/>
	<path class="st0" d="M43.7,81.4c-6.8,0-12.2-5.5-12.1-12.4c0.1-6.6,5.6-12.1,12.2-12C50.5,57,56,62.6,56.1,69.2
		C56.1,75.9,50.5,81.4,43.7,81.4z"/>
</g>
</svg>
