<?xml version="1.0" encoding="utf-8"?>
<!-- Generator: Adobe Illustrator 19.1.0, SVG Export Plug-In . SVG Version: 6.00 Build 0)  -->
<svg version="1.1" baseProfile="tiny" id="Layer_1" xmlns="http://www.w3.org/2000/svg" xmlns:xlink="http://www.w3.org/1999/xlink"
	 x="0px" y="0px" viewBox="0 0 360 360" xml:space="preserve">
<path fill="#4D3E21" d="M180.1,30C97.8,30,30.1,97.5,30,179.7C29.9,262.9,96.8,330,179.8,330c83.4,0,150.1-66.4,150.2-149.6
	C330.1,97.5,262.8,30,180.1,30z M92.8,273.8c-54.5-51.1-50.1-129.5-12.3-173c9.5,9.4,19,18.7,28.2,28.4c1.6,1.7,2.1,5.1,2.1,7.8
	c0.1,43.8,0.1,87.6,0.1,131.5c0,2.6,0,5.1,0,8.1c46.4,0,92.1,0,138,0c0.3-1.8,0.5-3.5,0.9-5.9c3,3.6,5.7,6.8,8.4,10
	C219.9,315.2,144.9,322.5,92.8,273.8z M229.7,158.5c0,20,0,38.9,0,59.3c-2.3-2.2-4-3.7-5.6-5.3c-29.4-29.4-58.7-59-88.4-88.1
	c-5-4.9-6.8-9.7-5-16.6c13.3,0,26.8,0,41.1,0c0,16.8,0,33.5,0,50.7C191.3,158.5,210.1,158.5,229.7,158.5z M191.9,138.9
	c0-9.8,0-19.5,0-30.4c12.6,10.1,24.6,19.7,38.1,30.4C216.2,138.9,204.3,138.9,191.9,138.9z M231.6,257.1c-35,0-67.8,0-101,0
	c0-35,0-69.9,0-106.4c10.8,10.8,20.4,20.6,30.2,30.4c21.8,21.8,43.7,43.6,65.4,65.6C228.4,249.1,229.4,252.8,231.6,257.1z
	 M275.8,264.4c-8.3-8.3-16.8-16.5-24.9-25.1c-1.3-1.4-1.4-4.4-1.4-6.7c-0.1-32.4-0.1-64.9,0-97.3c0-4.2-1.2-6.8-4.5-9.4
	c-14.8-11.6-29.4-23.5-44.2-35.2c-1.9-1.5-4.6-2.8-7-2.8c-26.5-0.2-53-0.1-79.6-0.1c-0.8,0-1.7,0.2-3.1,0.4
	c-0.2,3.6-0.4,6.5-0.6,10.6c-5-5.7-9.3-10.5-13.5-15.4c39.5-38.2,117.9-47.6,172.1,4.9C322.1,139.6,318.1,219,275.8,264.4z"/>
</svg>
