<?xml version="1.0" encoding="utf-8"?>
<!-- Generator: Adobe Illustrator 19.1.0, SVG Export Plug-In . SVG Version: 6.00 Build 0)  -->
<svg version="1.1" id="Layer_1" xmlns="http://www.w3.org/2000/svg" xmlns:xlink="http://www.w3.org/1999/xlink" x="0px" y="0px"
	 viewBox="0 0 266.8 300" style="enable-background:new 0 0 266.8 300;" xml:space="preserve">
<style type="text/css">
	.st0{fill-rule:evenodd;clip-rule:evenodd;fill:#B7B3B5;}
	.st1{fill-rule:evenodd;clip-rule:evenodd;fill:#FFFFFF;}
</style>
<g>
	<path class="st0" d="M36.3,150c-4.9-5.4-10-10.6-14.6-16.2c-8.1-9.6-15.2-19.9-19.2-32c-3.3-10-4.1-20,2.5-29.1
		c5.6-7.7,13.9-10.8,22.8-12.4c16.6-2.9,32.9-0.1,49,3.7c2.6,0.6,5.3,1.3,8,2c2.2-6.9,4.1-13.7,6.5-20.4
		c4.3-11.9,9.6-23.3,18.1-32.9c2.8-3.1,6-6,9.4-8.3c10.6-7,23.1-5.7,32.8,2.6c8.8,7.6,14.9,17.1,19.3,27.6
		c4.2,10.1,7.6,20.6,11.5,31.1c6.7-1.4,13.9-3.2,21.2-4.5c12.6-2.2,25.2-3.2,37.8-0.4c3.6,0.8,7.2,2,10.5,3.6
		c11.5,5.6,16.9,17.5,14.4,30.1c-2.3,11.3-7.3,21.2-14.2,30.2c-6,7.8-12.8,15-19.2,22.5c-0.8,0.9-1.6,1.7-2.4,2.5
		c4.9,5.4,9.7,10.4,14.3,15.8c8.3,9.8,15.6,20.3,19.7,32.6c2,6.1,3.1,12.4,1.9,18.7c-2.1,10.5-8.8,16.9-18.6,20.3
		c-11.5,4.1-23.4,4.3-35.3,2.6c-9.4-1.4-18.7-3.6-28.1-5.5c-0.7-0.1-1.5-0.3-2.3-0.4c-1.8,5.7-3.3,11.3-5.2,16.9
		c-4.5,13.2-10,25.9-19.4,36.4c-3.4,3.7-7.4,7.1-11.7,9.6c-9.8,5.6-21.6,3.6-30.4-4c-8.8-7.6-14.9-17.1-19.2-27.6
		c-3.8-9.1-6.6-18.5-9.8-27.8c-0.4-1.1-0.7-2.2-1-3.3c-7.4,1.6-14.6,3.4-21.9,4.7c-14.6,2.5-29.3,3.5-43.7-1.3
		c-14.3-4.7-21.7-17.7-18.7-32.5c3.1-14.8,11.2-26.9,20.6-38.3C26,160.9,31.2,155.6,36.3,150z M183.1,150
		c-0.4-8.2-0.6-16.5-1.2-24.8c-0.1-1.5-1-3.5-2.2-4.3c-14-9.9-28.8-18.4-44.3-25.6c-1.1-0.5-2.9-0.5-4,0
		c-15.5,7.2-30.3,15.8-44.3,25.6c-1,0.7-2,2.2-2.1,3.5c-1.4,17.1-1.4,34.1,0,51.2c0.1,1.3,1.1,2.9,2.2,3.7
		c13.9,9.7,28.5,18.1,43.7,25.4c1.8,0.8,3.1,0.8,4.9,0c15.1-7.2,29.5-15.5,43.3-25c1.9-1.3,2.7-2.8,2.8-5
		C182.3,166.5,182.7,158.3,183.1,150z M184.8,76.8c1.7,13.6,3.2,26.4,4.9,39.3c0.1,1,1.1,2,2,2.6c3.8,2.9,7.8,5.5,11.6,8.5
		c6.2,4.8,12.3,9.8,18.8,15c2.2-2.6,4.4-5.2,6.5-7.9c7.5-9.8,14.3-20,17.2-32.3c1.1-4.4,1.3-8.9-0.2-13.3c-2.3-6.8-7.9-9.9-14.2-12
		c-9.8-3.3-20-3.1-30.2-2.1C195.7,75.1,190.1,76.1,184.8,76.8z M44.6,142.1c0.6-0.2,0.8-0.3,1-0.4c10-7.8,20.1-15.5,30-23.4
		c0.8-0.7,1.4-2,1.6-3.2c1-7.6,1.8-15.3,2.8-23c0.7-5,1.6-10,2.5-15.4c-6-0.8-11.6-1.8-17.3-2.3c-10.1-0.9-20.1-1-29.9,2.2
		C29,78.8,23.4,82,21.1,88.8c-1.5,4.4-1.2,8.9-0.1,13.3C24.9,117.8,34.4,130.1,44.6,142.1z M222.4,157.9c-0.8,0.2-1,0.2-1.1,0.3
		c-10.1,7.8-20.2,15.6-30.3,23.5c-0.7,0.6-1.2,1.7-1.4,2.7c-1,7.8-1.8,15.7-2.9,23.5c-0.7,4.9-1.6,9.8-2.5,15.1
		c5.9,0.8,11.6,1.8,17.3,2.3c10.1,0.9,20.1,1,29.9-2.2c6.3-2.1,11.9-5.2,14.2-12c1.5-4.4,1.2-8.9,0.2-13.3
		c-2.1-9.3-6.6-17.5-12-25.2C230.1,167.6,226.1,162.7,222.4,157.9z M171,230.7c-0.6-0.3-0.9-0.5-1.2-0.7
		c-11.6-4.8-23.3-9.6-34.9-14.2c-1-0.4-2.5-0.2-3.5,0.3c-5.4,2.3-10.7,4.8-16.1,7c-6.4,2.6-12.9,5-19.8,7.6
		c2.7,6.3,5.1,12.6,7.9,18.7c4,8.4,9,16.2,16,22.6c8.9,8,19,8.2,27.8,0.1C159.5,260.8,165.5,245.9,171,230.7z M82.3,222.8
		c0-0.7,0-1.1,0-1.5c-1.7-11.8-3.4-23.6-4.9-35.4c-0.3-2.6-1.3-4.1-3.4-5.6c-8.4-6.3-16.6-12.7-24.9-19.1c-1.4-1.1-2.8-2.3-4.4-3.6
		c-8.6,9.8-16.3,19.8-21,31.8c-1.7,4.4-3,9.1-3.4,13.8c-0.9,8.7,2.9,14.5,10.8,18.3c6.6,3.1,13.6,4.1,20.8,4.3
		C62.1,226.1,72.1,225,82.3,222.8z M171,69.3c-4.7-13.3-9.9-26-19.1-36.6c-2.9-3.3-6.4-6.4-10.2-8.6c-7.7-4.3-15.3-2.6-22.5,4
		c-7.2,6.6-12.2,14.7-16.3,23.4c-2.7,5.8-4.9,11.8-7.2,17.3c12.6,5.3,24.6,10.4,36.7,15.4c0.8,0.3,2.1,0,3-0.4
		c4.7-2,9.2-4.2,13.9-6.1C156.4,75,163.6,72.2,171,69.3z M76,171.5c0-14.8,0-28.5,0-43.1c-8.4,7.4-16.2,14.3-24.5,21.6
		C59.9,157.4,67.7,164.2,76,171.5z M215.3,150c-8.5-7.4-16.3-14.2-24.5-21.5c0,14.7,0,28.4,0,43.1
		C199.1,164.2,206.9,157.3,215.3,150z M143.5,210.5c10.5,3.5,20.4,6.9,30.9,10.4c2.2-11,4.2-21.2,6.4-31.9
		C168.1,196.3,156.2,203.2,143.5,210.5z M92.5,220.9c10.6-3.6,20.5-7,30.8-10.4c-12.6-7.3-24.5-14.2-37.2-21.5
		C88.2,199.8,90.3,210,92.5,220.9z M86.1,111c12.7-7.4,24.7-14.2,37.2-21.5C112.9,86,103,82.7,92.5,79.1
		C90.3,90,88.2,100.2,86.1,111z M180.6,110.9c-1.6-8.3-3.1-16.1-4.6-23.8c-0.5-2.5-1.3-4.9-2.1-7.9c-10.2,3.4-20.1,6.8-30.4,10.3
		C156.1,96.8,168,103.7,180.6,110.9z"/>
	<path class="st0" d="M133.5,115.5c19,0.1,34.4,15.6,34.4,34.6c0,19.1-15.6,34.6-34.8,34.5c-19-0.1-34.3-15.7-34.3-34.7
		C99,130.8,114.5,115.4,133.5,115.5z"/>
</g>
</svg>
