<?xml version="1.0" encoding="utf-8"?>
<!-- Generator: Adobe Illustrator 19.1.0, SVG Export Plug-In . SVG Version: 6.00 Build 0)  -->
<svg version="1.1" baseProfile="tiny" id="Layer_1" xmlns="http://www.w3.org/2000/svg" xmlns:xlink="http://www.w3.org/1999/xlink"
	 x="0px" y="0px" viewBox="0 0 360 360" xml:space="preserve">
<g>
	<ellipse fill="#9FCBEB" cx="149.3" cy="114.6" rx="32.2" ry="44.8"/>
	<path fill="#9FCBEB" d="M180.8,148.3h-0.5c-7.4,11.7-18.6,19.2-31,19.2c-12.5,0-23.6-7.5-31-19.2h-0.5c-13.2,0-24,10.8-24,24v106.1
		h111V172.3C204.8,159.1,194,148.3,180.8,148.3z"/>
	<path fill="#9FCBEB" d="M191.5,129c5.5,9.4,13.8,15.3,23.1,15.3c16.5,0,29.8-18.5,29.8-41.4c0-22.9-13.3-41.4-29.8-41.4
		c-11.1,0-20.7,8.4-25.9,20.9c3.3,8.1,5.1,17.5,5.1,27.5C193.9,116.6,193,123,191.5,129z"/>
	<path fill="#9FCBEB" d="M265.9,254.3v-98.1c0-12.2-10-22.2-22.2-22.2h-0.4c-6.8,10.8-17.1,17.8-28.7,17.8c-0.7,0-1.4,0-2.1-0.1
		c4.1,5.8,6.5,12.9,6.5,20.5v82.1H265.9z"/>
	<polygon fill="#9FCBEB" points="68.8,68.8 103.9,68.8 103.9,42 42,42 42,318 103.9,318 103.9,291.2 68.8,291.2 	"/>
	<polygon fill="#9FCBEB" points="256.1,42 256.1,68.8 291.2,68.8 291.2,291.2 256.1,291.2 256.1,318 318,318 318,42 	"/>
</g>
</svg>
