<?xml version="1.0" encoding="utf-8"?>
<!-- Generator: Adobe Illustrator 19.1.0, SVG Export Plug-In . SVG Version: 6.00 Build 0)  -->
<svg version="1.1" baseProfile="tiny" id="Layer_1" xmlns="http://www.w3.org/2000/svg" xmlns:xlink="http://www.w3.org/1999/xlink"
	 x="0px" y="0px" viewBox="0 0 360 360" xml:space="preserve">
<g>
	<path fill="#3CB76B" d="M247.4,168.1c-44.2,0-88.3,0-132.5,0c-8.6,0-13.8,5.2-13.8,13.8c0,27.5,0,54.9,0,82.4c0,0.9,0,1.8,0,2.9
		c19.9,0,39.3,0,59,0c0,1,0,1.7,0,2.5c0,6.7,3.4,10.1,10,10.1c8.7,0,17.4,0,26.1,0c4.8,0,7.9-2.9,8.1-7.8c0.1-1.5,0-3.1,0-4.8
		c19.1,0,37.8,0,56.9,0c0-1.4,0-2.5,0-3.5c0-27.2,0-54.4,0-81.6C261.4,173.4,256.2,168.1,247.4,168.1z M248.6,256.5
		c-44.9,0-89.7,0-134.6,0c0-25.2,0-50.3,0-75.6c44.8,0,89.6,0,134.6,0C248.6,206.2,248.6,231.2,248.6,256.5z"/>
	<path fill="#3CB76B" d="M255,119.3c-19.8-4.1-36,2-49.6,18.7l-1.7,2.2c-1,1.3-2.9,1.6-4.2,0.6l-6.8-4.8c-1.4-1-1.8-2.9-0.8-4.3
		c3.9-5.9,8.3-10.6,13.5-14.4c3.3-2.4,7.1-4.9,11.6-7.4c0.4-0.2,0.5-0.3,0.5-0.3c-2.3-13.7-9.7-31.2-32.8-36.4
		c-15.1-3.4-28-2.2-39.4,3.8c-15.7,8.2-24,20.9-24.6,37.9c-0.1,3.8,0.6,7.7,1.4,11.8c0.4,1.9,0.8,3.9,1,5.8c0.1,0.5,0.2,1.1,0.3,1.7
		l0.2,1.1c0.2,0.9-0.1,1.8-0.7,2.5c-0.6,0.7-1.5,1.1-2.4,1.1h-10.9c-0.1,0-0.1,0-0.2,0c-11,0-21.2,4.2-28.8,11.9
		c-7.5,7.5-11.5,17.5-11.4,28.1c0.1,14,6,25.1,17.4,33.1c0-10.3,0-20.6,0-30.8c0-9.8,6-24,15.2-26.6c1.9-0.6,4-0.9,6-0.9
		c45,0,102.5,0,147.5,0c16.7,0,20.7,15.7,20.8,27.4c0,8.9,0,17.7,0,26.6c10.8-9.2,16.9-20.5,18.3-34.6
		C296.7,147.9,279.5,124.4,255,119.3z"/>
	<path fill="#3CB76B" d="M35,35v290h290V35H35z M276,225c0,13,0,25.9,0,38.9c0,1,0,2.1,0,3.3c5.7,0,4.9,0,10.7,0
		c-0.3,6.4,0.9,12.8-1.1,18.9c-3,9.2-11,14.9-20.7,14.9c-55.8,0-111.7,0-167.5,0c-11.3,0-19.9-7.3-21.2-18.5
		c-0.6-4.9-0.1-9.9-0.1-15.1c5.5,0,4.7,0,10.5,0c0-1.2,0-2.2,0-3.2c0-11.8,0-23.7,0-35.5c-17.7-5.4-32.7-29.1-32.2-51.4
		c0.6-24.7,20.3-51.3,51.5-53c0-0.6-0.1-1.2-0.1-1.9c-0.2-3.7-0.4-7.6,0-11.4c1.8-17.6,10.6-32,26-42.7c24.5-17,60.4-14.5,81.9,5.6
		c8.7,8.2,14.5,18.6,17.2,30.8c38.7-7.2,69.6,19.3,76.5,49C314.9,185.8,296.9,214.2,276,225z"/>
</g>
</svg>
