<?xml version="1.0" encoding="utf-8"?>
<!-- Generator: Adobe Illustrator 19.1.0, SVG Export Plug-In . SVG Version: 6.00 Build 0)  -->
<svg version="1.1" baseProfile="tiny" id="Layer_1" xmlns="http://www.w3.org/2000/svg" xmlns:xlink="http://www.w3.org/1999/xlink"
	 x="0px" y="0px" viewBox="0 0 360 360" xml:space="preserve">
<g>
	<path fill="#4D3E21" d="M55.5,265c41.5,0,83,0,124.5,0c41.5,0,83,0,124.5,0c18.6,0,27.3-8.8,27.3-27.6c0-11.1,0-22.2,0-33.2
		c0-40.5,0-80.9,0-121.4c0-16.2-9.4-25.6-25.4-25.8c-2.1,0-4.2,0.2-6.3,0.2c-82-0.1-163.9-0.1-245.9-0.2c-16.5,0-25.9,9.4-25.9,25.8
		c0,51.7,0,103.4,0,155.1C28.3,256.3,37,265,55.5,265z M55.5,78.1c41.7,0.2,83.4,0.1,125.1,0.1c41,0,82,0,122.9,0
		c7.2,0,7.2,0,7.2,7.4c0,50.5,0,101,0,151.4c0,6.9,0,6.9-7.1,6.9c-60.8,0-121.7,0-182.5,0c-22,0-43.9-0.1-65.9,0.1c-4.6,0-6-1.4-6-6
		c0.1-51.2,0.1-102.4,0-153.5C49.2,79.5,50.7,78,55.5,78.1z"/>
	<path fill="#4D3E21" d="M315.5,272.2c-18.1-0.3-36.2-0.2-54.3-0.2c-71.4,0-142.7,0.1-214.1,0.2c-2.3,0-4.6,0-6.8,0.4
		c-8.2,1.4-13.5,9.3-12,17.5c1.6,8.6,7.2,12.6,17.8,12.6c44.5,0,89,0,133.4,0c0,0.1,0,0.2,0,0.3c39.2,0,78.4,0,117.6,0
		c7,0,14.1-0.1,21.1-0.5c6.9-0.3,12.1-5.2,13.4-12C333.7,280.2,326.9,272.3,315.5,272.2z"/>
	<path fill="#4D3E21" d="M179.1,228.1c37.4,0.4,67.8-30.5,67.8-63.9c1.1-37.6-27.7-68.8-63.9-70.1c-37.9-1.4-68.3,28.2-70.1,64.6
		C111.1,196.7,142.9,227.7,179.1,228.1z M156.4,144.8c0.9-8.8,6.2-13.8,14.1-16.5c2.6-0.9,4.3-1.7,4.1-5c-0.2-3.5,1.3-6.5,5.2-6.5
		c3.6,0,4.9,2.8,5,6.2c0,0.9,0.1,1.7,0.3,3c3.4,0.6,6.4,1,9.2,1.7c3.8,1,5.7,3.6,4.9,7.5c-0.8,3.7-3.7,4.8-7.3,4.3
		c-4-0.5-8.1-1.4-12-0.9c-2.5,0.3-5.7,2.2-6.8,4.3c-1.9,3.5,1.2,6,4.1,7.4c4.9,2.4,10.1,4.1,14.9,6.6c6.4,3.2,11.4,7.7,11.9,15.5
		c0.6,9.7-4.9,17.4-14.8,20.3c-3.5,1-5.6,2.2-5,6.4c0.5,3.5-1.5,5.8-5.1,6c-3.6,0.2-5-2.5-4.8-5.6c0.2-4.2-1.5-5.7-5.6-5.4
		c-2,0.2-4.2-0.4-6.2-0.9c-4.1-1-6.5-3.4-5.6-8c0.8-3.9,3.9-5,8.7-4.1c4.7,0.9,9.6,1.3,14.4,1.5c4.5,0.2,5.9-3.1,6.6-6.8
		c0.8-3.8-1.3-5.9-4.5-7.3c-4.7-2-9.5-3.7-14.1-5.9C160.6,159.3,155.5,153.9,156.4,144.8z"/>
</g>
</svg>
