<?xml version="1.0" encoding="utf-8"?>
<!-- Generator: Adobe Illustrator 19.1.0, SVG Export Plug-In . SVG Version: 6.00 Build 0)  -->
<svg version="1.1" baseProfile="tiny" id="Layer_1" xmlns="http://www.w3.org/2000/svg" xmlns:xlink="http://www.w3.org/1999/xlink"
	 x="0px" y="0px" viewBox="0 0 360 360" xml:space="preserve">
<g>
	<path fill="#4D3E21" d="M324.5,98.5c-3.1-15.1-16-24.7-31-23.1c-15.1,1.7-25.5,13.7-25,29.3c0.1,3.7-0.9,5.6-4.2,7.3
		c-11.9,6.4-23.7,13.2-35.5,19.9c-13.8,7.8-27.6,15.5-41.3,23.3c-13.5-12.6-28.5-16.7-45.4-9.1c-14.6,6.6-22.5,18.5-22.6,34.5
		c-0.2,19.6,10.3,32.1,28.5,38.8c-0.9,18.5-1.8,37-2.9,55.5c-0.1,1.3-2.1,3-3.6,3.6c-13.2,5.7-20.2,19.8-16.6,33.4
		c3.4,12.6,14.4,21.1,27.3,21.2c12.8,0,24.2-8.5,27.4-20.4c3.5-12.8-1.7-26-13.2-32.3c-3.3-1.9-4.6-3.6-4.3-7.6
		c1.1-16.2,1.8-32.4,2.4-48.5c0.1-3.1,0.9-4.5,4.1-5.5c19.7-5.7,31.4-24.2,27.7-44.4c-0.6-3.5,0.2-4.9,3-6.5
		c24.4-13.6,48.8-27.3,73-41.1c3.1-1.8,5.1-2,8.2,0.2c9.4,6.7,22.1,6.5,31.7,0.1C321.7,120.8,326.7,109.1,324.5,98.5z M168.1,305.2
		c-0.2,8.5-7.7,15.4-16.3,15.1c-8.7-0.3-15.2-7.5-14.8-16.4c0.3-8.5,7.4-14.9,16.1-14.6C161.3,289.4,168.3,296.9,168.1,305.2z
		 M158,203.4c-11.7,0-21.7-10.2-21.7-22c0-12.1,10.2-22.3,22.1-22.2c11.7,0.1,21.7,10.3,21.8,22.1
		C180.3,193.3,170.1,203.5,158,203.4z M296.7,119.3c-8.2,0.1-15.5-7-15.7-15.4c-0.2-8.8,6.6-15.9,15.4-16
		c8.4-0.1,15.6,6.7,15.8,15.2C312.4,111.7,305.2,119.1,296.7,119.3z"/>
	<path fill="#4D3E21" d="M149.9,45.6c0.1-10.4-8-18.6-18.4-18.6c-10.6,0-18.6,7.8-18.8,18.3c-0.1,10.4,7.9,18.6,18.4,18.7
		C141.6,64,149.8,56,149.9,45.6z"/>
	<path fill="#4D3E21" d="M260.3,268.7c-10.3-0.1-18.6,8.1-18.7,18.4c-0.1,10.4,7.9,18.7,18.2,19c10.3,0.2,19-8.3,19.1-18.7
		C279,277.2,270.6,268.8,260.3,268.7z"/>
	<path fill="#4D3E21" d="M53.8,183.2c-10.5-0.1-18.8,8.3-18.8,18.9c0.1,10.3,8.4,18.4,18.7,18.4c10.3-0.1,18.6-8.3,18.6-18.6
		C72.4,191.8,63.9,183.3,53.8,183.2z"/>
	<path fill="#4D3E21" d="M225.5,244.3c-1.3-1.2-5.6-0.4-7.5,0.9c-2.7,1.8-2.9,5.4-0.8,8c4.1,4.8,8.3,9.4,13,13.5
		c1.4,1.2,4.8,1.2,6.7,0.4c1.7-0.7,2.7-3.3,3.8-4.7c-0.5-1.6-0.6-2.6-1.1-3.1C235.1,254.2,230.7,248.9,225.5,244.3z"/>
	<path fill="#4D3E21" d="M196.8,213.8c-1.5-1.2-5.8-0.5-7.8,0.8c-2.7,1.8-2.8,5.3-0.6,7.9c4,4.6,8.1,9.2,12.6,13.2
		c1.4,1.3,4.7,1.5,6.7,0.8c1.8-0.6,2.9-3.1,4.1-4.5c-0.6-1.9-0.6-3.2-1.3-4C206.1,223.1,201.9,218,196.8,213.8z"/>
	<path fill="#4D3E21" d="M105.5,186.2c-6,1-11.9,2.3-17.8,3.8c-3.7,1-5.1,4.2-3.8,7.4c0.9,2.3,3.6,3.8,4.9,5.2
		c7.5-1.6,13.5-2.7,19.3-4.2c3.6-0.9,4.9-3.8,4.2-7.3C111.6,187.4,109,185.6,105.5,186.2z"/>
	<path fill="#4D3E21" d="M143.2,107.8c-2.1,1-4.7,4-4.6,6c0.4,5.7,1.5,11.5,3.4,16.9c0.7,2,4.6,4,6.8,3.8c2.1-0.2,4-3.3,5.7-4.7
		c-1.5-7.2-2.5-13.1-4.1-18.8C149.5,107.8,146.1,106.4,143.2,107.8z"/>
	<path fill="#4D3E21" d="M146.6,90.7c-0.7-5.4-1.9-10.7-3.1-16c-0.9-3.5-3.5-5.3-7.1-4.7c-3.6,0.6-5.3,3.1-5.2,7.7
		c0.9,4.6,1.9,10.1,3.3,15.5c0.9,3.3,3.6,4.8,6.9,4.2C145,96.7,147,94.2,146.6,90.7z"/>
</g>
</svg>
