<?xml version="1.0" encoding="utf-8"?>
<!-- Generator: Adobe Illustrator 19.1.0, SVG Export Plug-In . SVG Version: 6.00 Build 0)  -->
<svg version="1.1" id="Layer_1" xmlns="http://www.w3.org/2000/svg" xmlns:xlink="http://www.w3.org/1999/xlink" x="0px" y="0px"
	 viewBox="0 0 300 300" style="enable-background:new 0 0 300 300;" xml:space="preserve">
<style type="text/css">
	.st0{fill-rule:evenodd;clip-rule:evenodd;fill:#B7B3B5;}
	.st0:active{fill:white}
	.st1{fill-rule:evenodd;clip-rule:evenodd;fill:#FFFFFF;}
</style>
<g>
	<path class="st0" d="M300,238c0,16.8,0,33.6,0,50.4c-1.6,4.7-4.7,7.8-9.4,9.4c-20.7,0-41.4,0-62.1,0c-5.3-2.1-9.1-5.5-9.2-11.5
		c-0.1-15.4-0.2-30.8,0-46.3c0.1-6.9,5.1-11.2,12-11.3c5.2-0.1,10.3,0,15.5,0c2.2,0,4.4,0,6.7,0c0-23.3,0-46.3,0-69.2
		c-30.8,0-61.3,0-91.9,0c0,23.1,0,46.1,0,69c0.5,0.1,0.6,0.2,0.8,0.2c6.6,0,13.3,0,19.9,0c9.2,0,13.6,4.4,13.6,13.6
		c0,13.4-0.2,26.8,0.1,40.1c0.2,7.3-2,12.7-9.3,15.4c-24.6,0-49.2,0-73.8,0c-5.4-2.2-9.1-5.6-9.2-11.8c-0.1-15.2-0.2-30.5,0-45.7
		c0.1-7.1,5-11.5,12.1-11.6c2.9,0,5.9,0,8.8,0c4.5,0,8.9,0,13.4,0c0-23.3,0-46.3,0-69.2c-30.8,0-61.3,0-91.9,0c0,23.1,0,46.1,0,69.2
		c7.2,0,14.1,0,21,0c8.8,0,13.3,4.5,13.3,13.4c0,13.5-0.2,26.9,0.1,40.4c0.2,7.3-2,12.7-9.3,15.3c-20.7,0-41.4,0-62.1,0
		c-4.7-1.6-7.8-4.7-9.4-9.4c0-16.8,0-33.6,0-50.4c2.4-7.4,7.8-10,15.2-9.4c2.6,0.2,5.2,0,7.8,0c0.1-1.3,0.1-2.1,0.1-2.8
		c0-25.5,0-51-0.1-76.4c0-8.1,4.8-13.2,12.8-13.2c32.9,0,65.8,0.1,98.7,0.1c1.2,0,2.5,0,3.8,0c0-15.6,0-30.8,0-46.3
		c-1.3,0-2.5,0-3.6,0c-10.1,0-20.1,0.1-30.2,0c-7.6-0.1-12.1-4.5-12.1-12.1c-0.1-22.7-0.1-45.3,0-68c0-6.1,2.7-9.6,8.4-11.6
		c0.4-0.1,0.7-0.4,1-0.5c32,0,64.1,0,96.1,0c7.2,2.3,9.7,7.3,9.6,14.7c-0.3,21.4-0.1,42.8-0.1,64.1c0,9-4.2,13.2-13.3,13.3
		c-9.7,0-19.3,0-29,0c-1.1,0-2.3,0-3.5,0c0,15.6,0,30.9,0,46.2c0.8,0.1,1.4,0.1,2,0.1c33.2,0,66.4,0,99.6-0.1
		c8.5,0,13.6,4.7,13.6,12.9c0,25.2-0.1,50.4-0.1,75.6c0,1.2,0,2.5,0,3.9c1.4,0.1,2.3,0.1,3.3,0.1c2.8,0,5.7-0.1,8.5,0
		C294.8,228.9,298,232.7,300,238z"/>
	<path class="st1" d="M0,288.4c1.6,4.7,4.7,7.8,9.4,9.4c-3.1,0-6.2,0-9.4,0C0,294.7,0,291.6,0,288.4z"/>
	<path class="st1" d="M290.6,297.8c4.7-1.6,7.8-4.7,9.4-9.4c0,3.1,0,6.3,0,9.4C296.9,297.8,293.7,297.8,290.6,297.8z"/>
</g>
</svg>
