<?xml version="1.0" encoding="utf-8"?>
<!-- Generator: Adobe Illustrator 19.1.0, SVG Export Plug-In . SVG Version: 6.00 Build 0)  -->
<svg version="1.1" baseProfile="tiny" id="Layer_1" xmlns="http://www.w3.org/2000/svg" xmlns:xlink="http://www.w3.org/1999/xlink"
	 x="0px" y="0px" viewBox="0 0 360 360" xml:space="preserve">
<g>
	<path fill="#4D3E21" d="M180.8,132.2c-1.1,1.2-1.8,2-2.6,2.8c-7.1,7.1-13.9,14.3-21.3,21.1c-4.1,3.8-6.6,8.1-7.5,13.6
		c-0.8,4.8-2,9.6-3,14.4c1.7-0.5,2.6-1.3,3.4-2.1c15.8-15.8,31.6-31.6,47.4-47.3c0.9-0.9,2.4-2.1,3.2-1.8c4,1.3,7.8,3.1,12.4,5
		c-21.6,21.6-42.4,42.4-63.6,63.5c1.9,2.2,3.7,4.6,5.7,6.8c2,2.3,3.7,2.2,6-0.2c19.2-19.4,38.6-38.7,57.9-58c0.9-0.9,1.8-1.7,3.1-3
		c1.5,3.3,2.9,6,4.1,8.9c1.2,2.7,0.7,4.8-1.6,7.1c-15.5,15.3-30.8,30.7-46.2,46.1c-0.8,0.8-1.5,1.6-2.3,2.5c0.2,0.3,0.3,0.6,0.5,0.9
		c5.9-0.9,11.8-1.7,17.7-2.8c1.6-0.3,3.3-1.3,4.5-2.5c8.7-8.6,17.3-17.2,26-25.9c0.7-0.7,1.5-1.3,2.2-2c0.2,0.1,0.4,0.3,0.6,0.4
		c-1.1,7-2.3,13.9-3.5,21.4c2.3-0.7,4.2-1.2,6-1.9c4.2-1.5,8.3-3.8,12.6-4.3c8-0.9,10.6-5,10.7-12.7c0.1-10.8,1.2-21.6-1.5-32.2
		c-6.7-25.8-31.7-44.6-58.5-44.6c-17,0-33.6,2.7-49.7,8.2c-14,4.7-27.9,9.4-42,14c-3.8,1.2-7.9,1.9-11.8,2.8
		c-0.2-0.3-0.3-0.6-0.5-0.8c4.5-4.5,8.8-9.3,13.6-13.4c5.4-4.6,8.4-10.1,9.5-16.9c0.4-2.3,1.1-4.5,1.5-6.8c0.4-2,0.5-4,0.9-6.7
		c-1.5,1.5-2.4,2.3-3.3,3.1c-13.4,13.3-26.7,26.7-40.1,40c-0.8,0.8-2.3,1.9-3.2,1.7c-4.1-1.1-8.1-2.6-12.8-4.2
		c6-6,11.4-11.4,16.8-16.8c13.4-13.3,26.7-26.7,40-40.1c0.8-0.8,1.8-2.5,1.5-3.2c-1.7-3.6-3.8-7.1-5.9-10.9
		c-21.4,21.5-42.4,42.4-63.4,63.5c-0.9-0.7-1.7-1.3-2.5-2c-5.9-4.9-13.7-4.5-18.6,1c-4.9,5.5-4.7,13.8,1.4,18.7
		c6.2,4.9,12.7,9.7,19.8,13.4c17.7,9.3,36.6,9.7,55.5,5c15.7-3.9,30.9-9.5,46.3-14.4C157.4,136.8,168.5,133.3,180.8,132.2z"/>
	<path fill="#4D3E21" d="M334.5,222c-15.6-13-33.9-17.9-53.8-18c-13.5-0.1-26.3,3.5-39,7.6c-19.7,6.4-39.3,13.5-60.1,15.2
		c-8.4,0.7-17.3,1-25.4-1c-14.7-3.5-25.7-20.7-24.3-35.7c0.9-9.7,2-19.3,3-28.9c-8.2,2.4-17.2,4.8-26.1,7.6
		c-0.9,0.3-1.8,1.9-1.9,2.9c-0.5,4.2-0.8,8.4-1.1,12.6c-1,13.7,0.8,26.8,7.9,38.8c9.2,15.5,22.2,26,40.1,29.2
		c13.2,2.4,26.6,1.4,39.8-0.7c20.3-3.2,39.9-9.5,59.3-16c11.1-3.7,22.3-5.6,34-4.3c11.1,1.3,21.9,3.7,31,10.8c6.4,5.1,14.2,4.7,19-1
		C341.8,235.3,340.9,227.3,334.5,222z"/>
	<path fill="#4D3E21" d="M293.9,247.9c-2.4-1-4-0.4-5.8,1.4c-16.8,17-33.7,33.8-50.6,50.7c-0.8,0.8-1.3,2.1-1.9,3.1
		c-0.5-0.3-1-0.5-1.5-0.8c-0.8-4-1.4-8-2.4-11.9c-0.5-2.2,0.2-3.5,1.6-4.9c11.6-11.5,23.1-23.1,34.6-34.6c0.8-0.8,1.6-1.7,3-3.1
		c-1.8,0.2-2.9,0.2-3.9,0.5c-5.3,1.2-10.6,2.3-15.8,3.9c-2.5,0.8-5,2.3-7,4c-4.1,3.8-7.9,7.9-11.9,11.9c-0.3-0.2-0.5-0.4-0.8-0.5
		c0.7-3.3,1.5-6.6,2.3-10.1c-8.8,2.4-17.1,4.8-25.5,6.8c-2.8,0.7-3.5,2-3.8,4.4c-1.2,10.8-1,21.5,1.3,32.1
		c2.7,12.8,7.9,24.5,16.6,34.4c5,5.7,12.9,6.3,18.5,1.6c5.4-4.5,6.2-12.5,1.7-18.3c-0.7-1-1.5-1.9-2.6-3.2
		c21.2-21.2,42.2-42.2,63.8-63.8C300.5,250.3,297.1,249.2,293.9,247.9z"/>
	<path fill="#4D3E21" d="M130.7,86.4c-0.9,5.4-2,10.9-3.1,16.6c7.5-2.5,14.8-5.4,22.3-7.2c5.3-1.2,6.9-3.7,7.3-8.8
		c2.1-23.9-4.8-44.7-20.9-62.4c-3.4-3.7-7.7-5.3-12.6-4.1c-10,2.3-13.5,13.6-6.7,21.7C127.7,55,133.5,69.4,130.7,86.4z"/>
</g>
</svg>
