<?xml version="1.0" encoding="utf-8"?>
<!-- Generator: Adobe Illustrator 19.1.0, SVG Export Plug-In . SVG Version: 6.00 Build 0)  -->
<svg version="1.1" baseProfile="tiny" id="Layer_1" xmlns="http://www.w3.org/2000/svg" xmlns:xlink="http://www.w3.org/1999/xlink"
	 x="0px" y="0px" viewBox="0 0 360 360" xml:space="preserve">
<g>
	<path fill="#4D3E21" d="M341.2,127c1.7-0.1,3.5,0,5.3,0c0-13.3,0-26.1,0-39.1c-111.1,0-221.9,0-333,0c0,13.1,0,26,0,39.2
		c2.2,0,4.1-0.2,6,0c3.5,0.4,5.8,3.4,5.6,7.1c-0.1,3.7-2.6,6.2-6.3,6.2c-1.8,0-3.5,0-5.4,0c0,44.2,0,88,0,131.8
		c35.7,0,71.1,0,106.8,0c0-6.7-0.1-13,0-19.4c0.2-9.1,7.9-15.4,15.7-12.7c5,1.7,8.3,7,8.4,13.5c0.1,6.2,0,12.4,0,18.5
		c67.7,0,134.8,0,202,0c0-44.1,0-87.8,0-131.8c-1.9,0-3.4,0-5,0c-4-0.1-6.4-2.4-6.6-6.3C334.7,130.1,337.2,127.2,341.2,127z
		 M333,151.6c0.9,0.5,1.8,1.9,1.8,3c0.1,34.7,0,69.4,0,104.1c0,0.1-0.1,0.2-0.2,0.6c-3.7,0-7.4,0-11.6,0c0-8.4,0-17,0-25.8
		c-4,0-7.7,0-11.7,0c0,8.5,0,17,0,25.8c-4.1,0-7.9,0-12,0c0-8.5,0-17,0-25.8c-4,0-7.6,0-11.7,0c0,8.5,0,17,0,25.8
		c-4.2,0-7.9,0-12.1,0c0-8.5,0-17,0-25.8c-4.2,0-7.9,0-11.9,0c0,8.6,0,17,0,25.8c-4.1,0-7.9,0-12.1,0c0-8.5,0-17,0-25.7
		c-3.9,0-7.6,0-11.6,0c0,8.4,0,17,0,25.8c-4.1,0-7.9,0-12.1,0c0-8.4,0-16.9,0-25.8c-4,0-7.6,0-11.7,0c0,8.4,0,17,0,25.7
		c-4.2,0-7.9,0-12.1,0c0-8.5,0-17,0-25.8c-4.2,0-7.9,0-12,0c0,8.6,0,17.1,0,25.9c-4.1,0-7.9,0-12,0c0-8.6,0-17,0-25.8
		c-3.9,0-7.6,0-11.6,0c0,8.3,0,16.9,0,25.7c-4.2,0-8.1,0-12.4,0c0.8-10.4-1-19.9-8.7-26.8c-4.8-4.3-10.4-6.3-16.6-5.8
		c-7.2,0.6-13,4.3-17.4,10.6c-4.5,6.4-4.9,14-4.5,22c-4.1,0-7.9,0-12,0c0-8.5,0-16.9,0-25.7c-4,0-7.7,0-11.9,0c0,8.4,0,17,0,25.8
		c-4.2,0-7.9,0-12.2,0c0-8.5,0-17.1,0-25.8c-4.1,0-7.7,0-11.7,0c0,8.6,0,17.2,0,25.9c-4.3,0-8,0-12.1,0c0-8.7,0-17.2,0-26
		c-4,0-7.7,0-11.6,0c0,8.6,0,17,0,25.8c-4.1,0-8,0-12,0c0-1.2-0.1-2.4-0.1-3.6c0-33.2,0-66.4-0.1-99.6c0-2.4,0.5-3.7,2.5-4.9
		c6.2-3.7,9.3-9.6,9.2-17.4c-0.1-7.7-3.2-13.7-9.4-17.2c-1.8-1-2.4-2.1-2.3-4.3c0.1-3.7,0-7.4,0-11.3c103.3,0,206.3,0,309.7,0
		c0,4.4,0.1,8.8-0.1,13.3c0,0.7-1,1.5-1.7,1.9c-6.4,3.8-9.9,9.7-9.9,17.8C323.1,141.8,326.7,147.6,333,151.6z"/>
	<path fill="#4D3E21" d="M311.3,166.8c2-0.1,3.7-0.2,5.3-0.3c0-4.5,0-8.6,0-12.6c-1.9-0.1-3.6-0.2-5.3-0.3c0-4.5,0-8.7,0-13.1
		c1.9-0.1,3.7-0.2,5.4-0.3c0-4.4,0-8.4,0-12.6c-1.9-0.2-3.5-0.3-5.6-0.5c0-4.3,0-8.5,0-12.7c-16.1,0-31.8,0-47.7,0
		c0,4.3,0,8.4,0,12.7c-2,0.2-3.7,0.4-5.6,0.5c0,4.3,0,8.5,0,12.6c2,0.1,3.8,0.2,5.4,0.3c0,4.6,0,8.8,0,13.1
		c-1.9,0.1-3.7,0.2-5.4,0.3c0,4.4,0,8.4,0,12.5c2,0.1,3.7,0.2,5.5,0.3c0,4.6,0,8.8,0,13.1c-1.9,0.1-3.7,0.2-5.5,0.3
		c0,4.3,0,8.4,0,12.7c1.9,0.2,3.7,0.3,5.8,0.5c0,4.3,0,8.4,0,12.6c16,0,31.7,0,47.7,0c0-4.4,0-8.4,0-12.6c2-0.2,3.6-0.3,5.5-0.5
		c0-4.5,0-8.5,0-12.8c-1.9-0.1-3.7-0.2-5.3-0.3C311.3,175.3,311.3,171.2,311.3,166.8z M299,193.3c-7.9,0-15.6,0-23.5,0
		c0-22.1,0-44,0-66.1c7.9,0,15.6,0,23.5,0C299,149.3,299,171.2,299,193.3z"/>
	<path fill="#4D3E21" d="M168.4,166.8c2-0.1,3.6-0.2,5.3-0.3c0-4.3,0-8.4,0-12.5c-2-0.1-3.7-0.2-5.4-0.3c0-4.6,0-8.8,0-13.1
		c1.9-0.1,3.7-0.2,5.5-0.3c0-4.3,0-8.4,0-12.6c-2-0.2-3.7-0.4-5.7-0.6c0-4.3,0-8.4,0-12.7c-16,0-31.6,0-47.7,0c0,4.3,0,8.5,0,12.7
		c-2.1,0.2-3.7,0.3-5.4,0.5c0,4.3,0,8.5,0,12.7c1.9,0.1,3.6,0.2,5.2,0.3c0,4.5,0,8.8,0,13.1c-1.9,0.1-3.6,0.2-5.3,0.3
		c0,4.3,0,8.3,0,12.5c1.9,0.1,3.5,0.2,5.3,0.3c0,4.5,0,8.8,0,13.5c-2,0-3.7,0-5.3,0c0,4.5,0,8.5,0,12.7c1.9,0.2,3.6,0.4,5.6,0.6
		c0,4.3,0,8.5,0,12.5c16.1,0,31.8,0,47.7,0c0-4.4,0-8.5,0-12.6c2-0.2,3.8-0.3,5.5-0.5c0-4.4,0-8.5,0-12.7c-2-0.2-3.7-0.3-5.3-0.4
		C168.4,175.3,168.4,171,168.4,166.8z M155.9,193.3c-7.7,0-15.3,0-23.2,0c0-22,0-43.9,0-66.1c7.7,0,15.3,0,23.2,0
		C155.9,149.1,155.9,171.1,155.9,193.3z"/>
	<path fill="#4D3E21" d="M96.9,140.2c1.9,0,3.6,0,5.3,0c0-4.4,0-8.5,0-12.8c-2-0.2-3.7-0.3-5.6-0.4c0-4.4,0-8.4,0-12.7
		c-16.1,0-31.7,0-47.7,0c0,4.3,0,8.4,0,12.6c-2.1,0.2-3.8,0.4-5.5,0.6c0,4.3,0,8.4,0,12.6c1.9,0.1,3.7,0.2,5.4,0.3
		c0,4.6,0,8.8,0,13.1c-2,0.1-3.7,0.2-5.3,0.3c0,4.5,0,8.5,0,12.5c1.9,0.1,3.6,0.3,5.3,0.4c0,4.5,0,8.7,0,13.1
		c-1.9,0.1-3.7,0.2-5.4,0.3c0,4.4,0,8.5,0,12.7c1.9,0.2,3.6,0.4,5.7,0.6c0,4.3,0,8.4,0,12.5c16,0,31.7,0,47.7,0c0-4.4,0-8.4,0-12.6
		c2-0.2,3.7-0.4,5.6-0.6c0-4.4,0-8.4,0-12.6c-2-0.1-3.7-0.2-5.4-0.4c0-4.6,0-8.8,0-13.1c2-0.1,3.6-0.2,5.4-0.3c0-4.3,0-8.3,0-12.5
		c-1.9-0.1-3.7-0.3-5.4-0.4C96.9,149,96.9,144.7,96.9,140.2z M84.5,193.3c-7.8,0-15.5,0-23.4,0c0-22,0-43.9,0-66.1
		c7.8,0,15.4,0,23.4,0C84.5,149.3,84.5,171.2,84.5,193.3z"/>
	<path fill="#4D3E21" d="M239.8,166.7c2-0.1,3.6-0.2,5.2-0.3c0-4.3,0-8.4,0-12.5c-1.9-0.1-3.5-0.2-5.2-0.3c0-4.5,0-8.8,0-13.2
		c1.9-0.1,3.6-0.2,5.3-0.3c0-4.3,0-8.4,0-12.6c-1.8-0.1-3.5-0.3-5.6-0.5c0-4.3,0-8.5,0-12.7c-16.1,0-31.8,0-47.8,0
		c0,4.4,0,8.6,0,12.8c-2,0.2-3.7,0.3-5.3,0.4c0,4.4,0,8.4,0,12.8c1.9,0,3.5,0,5.2,0c0,4.6,0,8.9,0,13.3c-1.9,0.1-3.5,0.2-5.3,0.3
		c0,4.3,0,8.3,0,12.6c1.9,0,3.5,0,5.3,0c0,4.6,0,8.9,0,13.3c-1.9,0.1-3.5,0.2-5.2,0.3c0,4.4,0,8.5,0,12.7c2,0.2,3.6,0.3,5.5,0.5
		c0,4.4,0,8.5,0,12.7c16,0,31.6,0,47.7,0c0-4.4,0-8.6,0-12.8c2-0.1,3.7-0.3,5.5-0.4c0-4.3,0-8.3,0-12.6c-1.9-0.1-3.6-0.2-5.3-0.3
		C239.8,175.3,239.8,171,239.8,166.7z M227.4,193.2c-7.7,0-15.3,0-23.4,0c0-21.9,0-43.9,0-66.2c7.9,0,15.5,0,23.4,0
		C227.4,149.1,227.4,171,227.4,193.2z"/>
</g>
</svg>
