<?xml version="1.0" encoding="utf-8"?>
<!-- Generator: Adobe Illustrator 19.1.0, SVG Export Plug-In . SVG Version: 6.00 Build 0)  -->
<svg version="1.1" id="Layer_1" xmlns="http://www.w3.org/2000/svg" xmlns:xlink="http://www.w3.org/1999/xlink" x="0px" y="0px"
	 viewBox="0 0 274.9 301.6" style="enable-background:new 0 0 274.9 301.6;" xml:space="preserve">
<style type="text/css">
	.st0{fill-rule:evenodd;clip-rule:evenodd;fill:#B7B3B5;}
	.st1{fill-rule:evenodd;clip-rule:evenodd;fill:#FFFFFF;}
</style>
<g>
	<path class="st0" d="M274.9,132c0,12.4,0,24.7,0,37.1c-0.3,0.1-0.6,0.4-1,0.4c-10.3,2-20.6,4-30.9,5.9c-1.9,0.3-2.7,1.1-3.2,3.1
		c-2.5,11.3-6.5,22-12.1,31.9c-1.1,1.9-1,3.1,0.2,4.9c5.9,8.8,11.8,17.8,17.5,26.7c0.5,0.7,0.7,2.4,0.3,2.9
		c-7.6,8.5-15.4,17-23.2,25.5c-8.5-6.6-17-12.9-25.3-19.6c-2.3-1.9-3.9-1.9-6.6-0.4c-7.4,4-14.9,8-22.7,11c-7.8,3-7.8,2.6-9.3,11.6
		c-1.5,9.5-3.2,19.1-4.8,28.6c-11.3,0-22.6,0-33.8,0c-0.1-0.4-0.3-0.7-0.4-1.1c-1.7-11.1-3.4-22.2-5-33.4c-0.3-2.5-1.2-3.6-3.5-4.2
		c-9.8-2.6-19.1-6.7-27.6-12.5c-2.2-1.5-3.7-1.5-5.9,0.2c-8.4,6.7-17.1,13.2-25.8,19.9c-7.5-8.3-14.9-16.5-22.4-24.7
		c-1.4-1.5-1.4-2.4-0.3-4.1c5.9-8.9,11.7-17.9,17.5-26.8c1-1.4,1.2-2.5,0.3-4.2c-5.7-10.2-9.8-21.1-12.4-32.7
		c-0.2-1-1.5-2.1-2.4-2.4c-3.2-0.8-6.5-1.3-9.8-1.9c-7.5-1.5-15.1-3.1-22.6-4.6c0-12.4,0-24.7,0-37.1c0.3-0.1,0.7-0.3,1-0.4
		c10.1-1.8,20.3-3.7,30.4-5.4c2.3-0.4,3.3-1.3,3.9-3.8c2.4-11,6.4-21.4,11.8-31c1.1-2,0.9-3.3-0.3-5.2C40.6,76.6,34.6,67,28.4,57.4
		c0.6-0.7,1-1.3,1.5-1.8c7-7.6,14-15.2,20.8-22.9c1.5-1.7,2.4-1.5,4-0.2c8.1,6.5,16.3,12.8,24.4,19.2c1.2,1,2.2,1.2,3.6,0.3
		c9.3-6.3,19.2-10.7,29.8-13.7c0.9-0.3,2-1.6,2.2-2.6c0.7-2.7,0.9-5.6,1.3-8.4c1.4-9.1,2.8-18.1,4.2-27.2c11.3,0,22.6,0,33.8,0
		c0.1,0.4,0.3,0.7,0.4,1.1c1.8,11.4,3.7,22.8,5.4,34.2c0.3,1.9,1,2.7,2.6,3.1c10.5,2.8,20.4,7.2,29.6,13.5c1.5,1.1,2.6,0.9,4-0.3
		c7.9-6.4,16-12.6,23.9-19c1.8-1.4,2.9-1.7,4.4,0.3c1.6,2.1,3.5,3.9,5.3,5.9c5.6,6.2,11.3,12.3,16.9,18.5
		c-6.4,9.9-12.6,19.6-18.8,29.3c-0.9,1.3-1.2,2.3-0.3,3.9c5.8,10.2,9.9,21.2,12.6,32.9c0.2,1,1.4,2.2,2.4,2.5
		c2.4,0.7,4.9,0.9,7.4,1.4C258.2,128.8,266.5,130.4,274.9,132z M139.4,232.6c42.7-1.6,73.8-40.2,72.6-84
		c-1.3-46.8-36.4-80.8-76.2-79.6c-42.9,1.2-73.9,40.1-72.9,83.6C64.1,199.8,99.5,233.7,139.4,232.6z"/>
	<path class="st0" d="M137.4,208.6c-29.2-0.1-52.7-25.9-52.6-57.9c0.1-32.1,23.6-57.8,52.8-57.8c29.2,0.1,52.7,25.9,52.6,57.9
		C190.1,182.9,166.5,208.7,137.4,208.6z M137.5,121.8c-14.6-0.1-26.5,12.9-26.5,28.9c0,16,11.8,29.1,26.4,29.1
		c14.6,0.1,26.5-12.9,26.5-28.9C163.9,134.9,152.1,121.8,137.5,121.8z"/>
</g>
</svg>
