<?xml version="1.0" encoding="utf-8"?>
<!-- Generator: Adobe Illustrator 19.1.0, SVG Export Plug-In . SVG Version: 6.00 Build 0)  -->
<svg version="1.1" baseProfile="tiny" id="Layer_1" xmlns="http://www.w3.org/2000/svg" xmlns:xlink="http://www.w3.org/1999/xlink"
	 x="0px" y="0px" viewBox="0 0 360 360" xml:space="preserve">
<g>
	<path fill="#4D3E21" d="M325.4,181.1c-26.6-23.9-50.5-46.6-75.6-67.8c-41.7-35.2-101.8-33.8-142.7,2.3
		c-18.3,16.2-36.4,32.8-54.5,49.2c-5.4,4.9-10.7,9.8-16.4,15c2.6,2.6,4.6,4.7,6.8,6.7c21,19,41.9,38,63,56.8
		c43.2,38.5,105.5,38.3,148.4-0.4c21.2-19.1,42.4-38.3,63.6-57.3C320,183.9,322.6,182.8,325.4,181.1z M214.4,243.3
		c-10.8,4.6-22.8,6.2-34.3,9.2c-25.4-2.2-46.8-10.8-63-30.2c-21.8-26.1-20.7-62,2.1-87.2c31.3-34.5,90.5-34.4,121.6,0.4
		C272.4,170.7,259.6,224,214.4,243.3z"/>
	<path fill="#4D3E21" d="M53.3,102.7c0-15.2,0-29.8,0-45.2c15.5,0,30.3,0,45.5,0c0-6.5,0-12.1,0-18.9c-18,0-35.4-0.3-52.7,0.1
		c-6.3,0.1-11.4,4.4-11.6,10.6c-0.6,17.8-0.2,35.7-0.2,53.4C41,102.7,46.8,102.7,53.3,102.7z"/>
	<path fill="#4D3E21" d="M307.2,103c6.5,0,12.1,0,18.4,0c0-18,0.4-35.6-0.2-53.2c-0.2-7.1-5.7-11.2-12.8-11.3
		c-16.8-0.3-33.6-0.1-51.2-0.1c0,6.9,0,12.7,0,19.4c15.3,0,30.1,0,45.7,0C307.2,73.5,307.2,88.3,307.2,103z"/>
	<path fill="#4D3E21" d="M52.9,257.1c-6.5,0-12.3,0-18.8,0c0,17.7-0.2,35.1,0.1,52.4c0.1,6.4,4.3,11.4,10.6,11.6
		c17.8,0.6,35.7,0.2,53.7,0.2c0-6.5,0-12.3,0-19c-15.4,0-30.2,0-45.6,0C52.9,286.7,52.9,272.1,52.9,257.1z"/>
	<path fill="#4D3E21" d="M325.9,282c0-8.3,0-16.6,0-24.6c-7.2,0-13,0-19.4,0c0,15.2,0,29.8,0,45.2c-15.4,0-30.2,0-45.3,0
		c0,6.5,0,12.1,0,19c17.8,0,34.9,0.3,51.9-0.1c8-0.2,12.4-5.6,12.7-14.2C326.1,298.9,325.9,290.4,325.9,282z"/>
	<path fill="#4D3E21" d="M180.5,137.3c-24-0.2-43.4,18.7-43.5,42.5c-0.1,23.4,18.9,42.6,42.3,42.9c24,0.2,43.3-18.6,43.5-42.5
		C222.9,156.7,204,137.5,180.5,137.3z M195.9,171.7c-5.5,2.1-12.2-0.6-14.4-5.9c-2.7-6.3,0-11.7,8.9-15.7c0.8,7.8,4.9,8.9,10.8,5.6
		C203.8,164.1,201.9,169.4,195.9,171.7z"/>
</g>
</svg>
