<?xml version="1.0" encoding="utf-8"?>
<!-- Generator: Adobe Illustrator 19.1.0, SVG Export Plug-In . SVG Version: 6.00 Build 0)  -->
<svg version="1.1" baseProfile="tiny" id="Layer_1" xmlns="http://www.w3.org/2000/svg" xmlns:xlink="http://www.w3.org/1999/xlink"
	 x="0px" y="0px" viewBox="0 0 360 360" xml:space="preserve">
<g>
	<path fill="#4D3E21" d="M296.8,139.8c-5.2,5.2-11.2,9.6-17.8,13.2l-0.9,2.4h8.3c6.4,14.2,10.1,29.8,10.3,46.3h-36.5l-3.2,8.2h39.5
		c-0.9,16.7-5.4,32.5-12.7,46.7h-38.4c3.1-11.7,5.1-24.5,6-37.9c-2.2,1.6-4.9,2.6-7.7,2.6c-3.2,0-6.2-1.2-8.6-3.2
		c-1,13.8-3.3,26.8-6.8,38.6h-40v-46.7h42.1l-3.2-8.2h-38.9v-46.3h20.9l-0.9-2.4c-3.2-1.7-6.2-3.6-9.1-5.7h-10.9v-9.7
		c-7.4-7.9-12.9-17.4-16.3-27.7v37.4h-39.2c8-25.3,21-44.1,36.1-50.5c-0.5-3.5-0.7-7-0.7-10.5c0-5.3,0.5-10.4,1.6-15.4
		C101.1,76.1,47,133.5,47,203.3c0,18.9,4,36.9,11.2,53.2l3.9,8.2c22.2,42.5,66.7,71.6,117.9,71.6s95.7-29.1,117.9-71.6l3.9-8.2
		c7.2-16.3,11.2-34.3,11.2-53.2C313,180.3,307.1,158.7,296.8,139.8z M147.1,91.4c-13.8,12.1-24.8,31.6-31.6,55.8H77.8
		C92.5,120.5,117.3,100.2,147.1,91.4z M73.7,155.4h39.7c-3.3,14.2-5.2,29.9-5.3,46.3H63.4C63.6,185.2,67.3,169.6,73.7,155.4z
		 M63.5,209.9h44.7c0.5,16.7,2.7,32.4,6.5,46.7H76.3C69,242.4,64.5,226.6,63.5,209.9z M80.9,264.8h36.2
		c6.9,21.7,17.3,39.3,30.1,50.5C119.4,307.1,95.9,288.8,80.9,264.8z M171.8,311.1c-15.3-4.6-28.8-22.1-37.4-46.3h37.4V311.1z
		 M171.8,256.6h-40c-4.1-14-6.7-29.9-7.2-46.7h47.3V256.6z M171.8,201.7h-47.4c0.1-16.5,2.2-32.2,5.9-46.3h41.5V201.7z M188.2,311.1
		v-46.3h37.4C216.9,289,203.5,306.4,188.2,311.1z M212.9,315.3c12.8-11.2,23.2-28.8,30.1-50.5h36.2
		C264.1,288.8,240.6,307.1,212.9,315.3z"/>
	<path fill="#4D3E21" d="M218.5,143.4l25.1,64.7l25.1-64.7c22-9.7,37.4-31.6,37.4-57.3c0-34.5-28-62.5-62.5-62.5
		c-34.5,0-62.5,28-62.5,62.5C181.1,111.8,196.5,133.8,218.5,143.4z M243.6,58.2c14.6,0,26.5,11.9,26.5,26.5
		c0,14.6-11.9,26.5-26.5,26.5c-14.6,0-26.5-11.9-26.5-26.5C217.1,70,228.9,58.2,243.6,58.2z"/>
</g>
</svg>
