<?xml version="1.0" encoding="utf-8"?>
<!-- Generator: Adobe Illustrator 19.1.0, SVG Export Plug-In . SVG Version: 6.00 Build 0)  -->
<svg version="1.1" baseProfile="tiny" id="Layer_1" xmlns="http://www.w3.org/2000/svg" xmlns:xlink="http://www.w3.org/1999/xlink"
	 x="0px" y="0px" viewBox="0 0 360 360" xml:space="preserve">
<g>
	<path fill="#4D3E21" d="M252.9,146.9c-1.5-3.9-3-7.7-5.4-11.2c-2.3-3.4-4.5-6.8-7.1-9.9c-2-2.4-4.4-4.6-6.8-6.6
		c-4-3.3-8.1-6.4-12.8-8.6c-4.2-2-8.4-4.1-12.8-5.7c-3.1-1.2-6.5-2-9.8-2.8c-2.2-0.5-4.5-0.9-6.8-1.2c-2.3-0.2-4.6-0.2-6.9-0.4
		c-7.2-0.5-14.4,0-21.6,1.3c-2.8,0.5-5.6,1.4-8.3,2.3c-2.7,0.8-5.3,1.8-8,2.8c-3.9,1.4-7.5,3.4-11,5.5c-2.3,1.4-4.6,2.8-6.7,4.4
		c-2.1,1.7-3.9,3.7-6,5.5c-2.9,2.5-5.4,5.3-7.5,8.4c-2.1,3.1-4.3,6.2-6,9.5c-1.6,3.2-3,6.7-3.9,10.2c-1,3.7-1.7,7.5-1.9,11.4
		c-0.4,7.3-0.2,14.6,1.4,21.8c0.7,3.1,1.5,6.2,2.4,9.3c0.7,2.3,1.6,4.7,2.5,6.9c1.8,4.2,3.7,8.3,5.7,12.4c1.2,2.4,2.6,4.7,4,7
		c1,1.6,1.9,3.3,3,4.9c1.9,3,3.9,5.9,5.8,8.8c1.5,2.4,3.1,4.7,4.5,7.1c2,3.3,4.1,6.7,6,10.1c0.7,1.2,1,2.7,1.7,3.9
		c1.7,3.1,2.6,6.4,2.6,9.9c0.1,5.7,0,11.4,0,17.1c0,0,0,0,0,0c0,5.7,0,11.4,0,17.1c0,0.5,0,1.1,0.3,1.4c2,2.1,3.9,4.3,6,6.2
		c3.9,3.5,7.9,6.9,12,10.1c3.7,2.8,7.6,5.2,12.3,6c4.5,0.8,9,0.8,13.4-0.3c3.8-0.9,7.2-3.1,10.3-5.4c2.5-1.8,4.7-3.9,7-5.9
		c3.5-3.2,6.9-6.7,10.5-9.8c0.9-0.8,1-1.5,1-2.5c0-10.9,0-21.9,0-32.8c0-1.3,0-2.7,0.3-3.9c1-3.2,2-6.3,3.3-9.4
		c1-2.3,2.4-4.5,3.7-6.7c0.9-1.5,1.9-3,2.9-4.5c1.1-1.8,2.2-3.6,3.4-5.4c1.1-1.7,2.2-3.3,3.3-4.9c1.5-2.3,2.9-4.7,4.4-7
		c1.5-2.5,3.1-5,4.6-7.5c1.3-2.2,2.5-4.5,3.7-6.7c1-2,2-3.9,2.8-6c0.8-1.8,1.4-3.6,2-5.4c1-2.9,2.1-5.8,2.9-8.8
		c0.7-2.3,1.1-4.7,1.5-7.1c0.5-3.1,1.2-6.2,1.2-9.3c0.1-3.9,0.3-7.8-0.3-11.7C255.2,156,254.6,151.4,252.9,146.9z M155.7,261.5
		c0,0,48.1,0,48.5,0c0,2.3,0,12.7,0,12.7l-48.5,0V261.5z M193.3,307.1c-2.6,1.7-5.3,3.3-8,4.8c-0.7,0.4-1.6,0.7-2.4,0.7
		c-2.4,0-4.8,0.1-7.1-0.3c-1.7-0.3-3.3-1.4-4.7-2.4c-2.1-1.3-4-2.9-6-4.3c-0.1-0.1-0.2-0.3-0.6-0.6c10.4,0,20.5,0,31.1,0
		C194.6,305.8,194,306.6,193.3,307.1z M204.2,295.4c-16.2,0-32.3,0-48.5,0c0-2.4,0-10.1,0-12.4c16.2,0,32.4,0,48.5,0
		C204.2,285.3,204.2,293,204.2,295.4z"/>
	<path fill="#4D3E21" d="M174.6,78.4h10.8c1.7,0,3.2-1.4,3.2-3.2V48.6v-7.9c0-1.7-1.4-3.2-3.2-3.2h-10.8c-1.7,0-3.2,1.4-3.2,3.2
		v34.5C171.4,76.9,172.9,78.4,174.6,78.4z"/>
	<path fill="#4D3E21" d="M122.6,93.1c0.9,1.5,2.8,2,4.3,1.2l9.3-5.4c1.5-0.9,2-2.8,1.2-4.3l-13.3-23l-4-6.9c-0.9-1.5-2.8-2-4.3-1.2
		l-9.3,5.4c-1.5,0.9-2,2.8-1.2,4.3L122.6,93.1z"/>
	<path fill="#4D3E21" d="M96,113.2L73,99.9l-6.9-4c-1.5-0.9-3.5-0.4-4.3,1.2l-5.4,9.3c-0.9,1.5-0.3,3.5,1.2,4.3L87.5,128
		c1.5,0.9,3.5,0.4,4.3-1.2l5.4-9.3C98.1,116,97.5,114.1,96,113.2z"/>
	<path fill="#4D3E21" d="M79.1,171.6v-10.8c0-1.7-1.4-3.2-3.2-3.2H49.4h-7.9c-1.7,0-3.2,1.4-3.2,3.2v10.8c0,1.7,1.4,3.2,3.2,3.2
		h34.5C77.7,174.8,79.1,173.3,79.1,171.6z"/>
	<path fill="#4D3E21" d="M318.6,157.7H292h-7.9c-1.7,0-3.2,1.4-3.2,3.2v10.8c0,1.7,1.4,3.2,3.2,3.2h34.5c1.7,0,3.2-1.4,3.2-3.2
		v-10.8C321.8,159.1,320.3,157.7,318.6,157.7z"/>
	<path fill="#4D3E21" d="M268.2,126.9c0.9,1.5,2.8,2,4.3,1.2l29.9-17.3c1.5-0.9,2-2.8,1.2-4.3l-5.4-9.3c-0.9-1.5-2.8-2-4.3-1.2
		l-6.9,4l-23,13.3c-1.5,0.9-2,2.8-1.2,4.3L268.2,126.9z"/>
	<path fill="#4D3E21" d="M91.8,205.5c-0.9-1.5-2.8-2-4.3-1.2l-29.9,17.3c-1.5,0.9-2,2.8-1.2,4.3l5.4,9.3c0.9,1.5,2.8,2,4.3,1.2
		l6.9-4l23-13.3c1.5-0.9,2-2.8,1.2-4.3L91.8,205.5z"/>
	<path fill="#4D3E21" d="M302.4,221.6l-29.9-17.3c-1.5-0.9-3.5-0.4-4.3,1.2l-5.4,9.3c-0.9,1.5-0.4,3.5,1.2,4.3l23,13.3l6.9,4
		c1.5,0.9,3.5,0.4,4.3-1.2l5.4-9.3C304.5,224.4,303.9,222.5,302.4,221.6z"/>
	<path fill="#4D3E21" d="M223.7,88.8l9.3,5.4c1.5,0.9,3.5,0.4,4.3-1.2l17.3-29.9c0.9-1.5,0.4-3.5-1.2-4.3l-9.3-5.4
		c-1.5-0.9-3.5-0.4-4.3,1.2l-4,6.9l-13.3,23C221.7,86,222.2,88,223.7,88.8z"/>
</g>
</svg>
