<?xml version="1.0" encoding="utf-8"?>
<!-- Generator: Adobe Illustrator 19.1.0, SVG Export Plug-In . SVG Version: 6.00 Build 0)  -->
<svg version="1.1" baseProfile="tiny" id="Layer_1" xmlns="http://www.w3.org/2000/svg" xmlns:xlink="http://www.w3.org/1999/xlink"
	 x="0px" y="0px" viewBox="0 0 360 360" xml:space="preserve">
<g>
	<path fill="#4D3E21" d="M212.7,227c18.5-20.1,54.4-30,85.3-9.3c0-0.2,0.1-0.4,0-0.5c-2.4-9.4-5.6-18.5-10.4-27
		c-8.9-15.7-21.7-26-40-28.8c-6.2-0.9-12.1-0.9-17.1,3.6c-0.3,0.3-0.8,0.5-1.2,0.8c-8.6,5.7-17.4,11.1-27.1,14.9
		c-13.8,5.4-28,7.5-42.8,5.2c-12.7-1.9-24.3-6.7-35.3-13.2c-5.5-3.3-10.7-6.8-16.1-10.2c-1.2-0.8-2.7-1.6-4.1-1.6
		c-3.8,0-7.6,0.2-11.3,0.9c-14.9,2.6-26.2,10.9-34.6,23.3c-7.2,10.7-11.4,22.8-14.3,35.3c-2.6,11.5-4,23.2-4.5,34.9
		c-0.3,7.8-0.8,15.7,0.6,23.4c2.7,14.6,10.3,25.6,23.8,32.2c8.4,4.2,17.5,5.4,26.8,5.4c39.8,0,79.6,0,119.5,0c0.6,0,1.2-0.1,2.2-0.1
		c-11.6-13-17.6-27.8-17.5-44.8C194.9,254.4,201.1,239.6,212.7,227z"/>
	<path fill="#4D3E21" d="M171.4,172.7c39.4,0,71.7-31.5,72.1-70.9c0.5-39.7-31.4-72.6-72.1-72.8c-39.7-0.1-72.2,32.2-72.2,71.4
		C99.2,140.6,131.3,172.7,171.4,172.7z"/>
	<path fill="#4D3E21" d="M263.1,214c-31.8-0.3-59.5,24.7-59.7,58.5c-0.2,32.3,26.3,58.6,58.9,58.5c32.4,0,58.7-26.2,58.7-58.5
		C321,240.5,294.8,214.3,263.1,214z M291.1,297.1c0,2.6-1.8,4.3-4.4,4.4c-2.8,0.1-5.6,0-8.4,0c-11.9,0-23.9,0-35.8,0
		c-4,0-5.6-1.6-5.6-5.6c0-7.9,0-15.8,0-23.7c0-5.3,0.7-6.2,6-7.1c0-2.8,0-5.6,0-8.5c0-10.1,7-18.6,16.9-20.8
		c9.6-2.1,19.7,3.2,23.7,12.3c1.4,3.1,1.8,6.4,1.8,9.7c0,2.4,0,4.8,0,7.2c1,0.1,1.8,0.2,2.5,0.4c2.1,0.5,3.4,2.1,3.4,4.2
		C291.2,278.9,291.2,288,291.1,297.1z"/>
	<path fill="#4D3E21" d="M265,242.4c-6.7-0.5-12.7,3.7-13.9,10.4c-0.7,4-0.1,8.2-0.1,12.5c8.6,0,17.3,0,26.1,0
		c0-3.7,0.2-7.2-0.1-10.8C276.6,247.9,271.4,242.8,265,242.4z"/>
</g>
</svg>
