<?xml version="1.0" encoding="utf-8"?>
<!-- Generator: Adobe Illustrator 19.1.0, SVG Export Plug-In . SVG Version: 6.00 Build 0)  -->
<svg version="1.1" baseProfile="tiny" id="Layer_1" xmlns="http://www.w3.org/2000/svg" xmlns:xlink="http://www.w3.org/1999/xlink"
	 x="0px" y="0px" viewBox="0 0 360 360" xml:space="preserve">
<g>
	<path fill="#3CB76B" d="M233.5,209.9c-7.8,0-14.2,6.4-14.2,14.2c0,7.9,6.4,14.2,14.2,14.2c7.9,0,14.2-6.2,14.3-14.2
		C247.9,216.4,241.5,209.9,233.5,209.9z"/>
	<path fill="#3CB76B" d="M146.3,118.1c-15.6-0.1-28.7,12.6-28.8,28.2c-0.1,15.9,12.5,28.7,28.3,29c15,0.3,28.9-11.6,29-28.5
		C175,130.1,161.2,117.9,146.3,118.1z"/>
	<path fill="#3CB76B" d="M35,35v290h290V35H35z M69.6,55.6c8.9,0,16.1,7.2,16.1,16.1s-7.2,16.1-16.1,16.1s-16.1-7.2-16.1-16.1
		S60.7,55.6,69.6,55.6z M69.6,305.6c-8.9,0-16.1-7.2-16.1-16.1s7.2-16.1,16.1-16.1s16.1,7.2,16.1,16.1S78.5,305.6,69.6,305.6z
		 M169.3,205.6c-1.1-0.7-2-0.8-3.2-0.4c-1.7,0.6-3.5,1.1-5.3,1.6c-0.9,0.2-1.5,0.7-1.8,1.6c-2.1,4.5-4.3,9-6.3,13.6
		c-0.5,1.2-1.2,1.6-2.5,1.5c-2.6-0.1-5.1-0.1-7.7,0c-1.4,0.1-2-0.5-2.6-1.7c-2-4.5-4.1-8.9-6.2-13.3c-0.4-0.9-1-1.5-2-1.8
		c-1.8-0.4-3.6-1-5.3-1.6c-1.1-0.4-2-0.2-2.9,0.4c-4.1,2.7-8.3,5.2-12.4,7.9c-1.1,0.7-2,0.7-3,0c-2.2-1.5-4.4-2.9-6.7-4.3
		c-0.9-0.5-1.1-1.1-1-2.1c0.7-4.7,1.2-9.4,1.9-14.1c0.2-1.6,0.2-2.9-1.1-4.1c-1.3-1.2-2.4-2.6-3.5-4c-0.6-0.7-1.3-1-2.2-1
		c-5,0-10.1,0-15.1,0c-1.1,0-1.7-0.3-2.2-1.4c-1.1-2.6-2.3-5.1-3.5-7.6c-0.4-0.8-0.3-1.5,0.3-2.2c3.3-3.8,6.5-7.6,9.7-11.4
		c0.8-1,1.2-1.9,0.9-3.2c-0.4-1.9-0.6-3.8-0.9-5.8c-0.1-0.6-0.3-1.1-0.8-1.4c-4.8-3.1-9.6-6.2-14.3-9.3c0-0.5,0-1,0-1.4
		c0.4-2.8,0.9-5.5,1.3-8.3c0.1-1.2,0.7-1.6,1.7-1.9c4.6-1.4,9.3-2.8,13.9-4.2c1.3-0.4,2.2-0.9,2.7-2.2c0.7-1.7,1.5-3.4,2.3-5.1
		c0.4-0.8,0.4-1.6,0-2.4c-2.1-4.6-4.2-9.3-6.2-13.9c-0.3-0.8-0.6-1.4,0.1-2.2c1.9-2.1,3.8-4.3,5.6-6.5c0.8-0.9,1.5-1,2.6-0.7
		c4.7,1.4,9.5,2.7,14.2,4.1c1,0.3,1.9,0.3,2.8-0.4c1.6-1.1,3.2-2.2,4.9-3.2c0.9-0.5,1.2-1.2,1.4-2.2c0.7-5,1.5-10,2.3-15.1
		c0.1-1,0.6-1.5,1.5-1.7c3-0.8,5.9-1.8,8.9-2.7c0.2,0,0.4,0,0.6,0c3.6,4.1,7.2,8.1,10.8,12.2c0.7,0.8,1.4,1.2,2.4,1.2
		c2-0.1,4.1,0,6.1,0c0.9,0,1.5-0.3,2.1-0.9c2-2.3,4-4.5,6-6.8c1.6-1.9,3.4-3.6,4.8-5.6c0.3,0,0.6,0,0.9,0c2.9,0.9,5.8,1.8,8.7,2.6
		c1.1,0.3,1.5,0.8,1.7,1.9c0.7,5,1.5,10,2.3,15.1c0.1,0.8,0.5,1.5,1.2,2c1.7,1,3.4,2.1,5,3.2c0.9,0.6,1.7,0.7,2.7,0.4
		c4.8-1.4,9.6-2.7,14.4-4.1c1.1-0.3,1.8-0.2,2.6,0.7c1.8,2.2,3.7,4.3,5.6,6.5c0.7,0.7,0.5,1.3,0.1,2.1c-2.1,4.6-4.1,9.3-6.2,13.9
		c-0.5,1-0.4,1.9,0.1,2.8c0.8,1.7,1.6,3.4,2.4,5.2c0.4,0.9,0.9,1.3,1.8,1.6c4.7,1.4,9.4,2.9,14.2,4.2c1.4,0.4,2,1,2.2,2.5
		c0.2,2.5,0.6,5.1,1.1,7.6c0.2,1.2-0.1,1.8-1.1,2.4c-4.2,2.7-8.3,5.5-12.5,8.2c-0.9,0.6-1.4,1.3-1.5,2.4c-0.2,1.7-0.4,3.5-0.7,5.2
		c-0.2,1.2,0,2.2,0.8,3.1c3.3,3.8,6.5,7.6,9.7,11.4c0.7,0.8,0.8,1.4,0.4,2.3c-1.2,2.5-2.3,5-3.4,7.5c-0.5,1.1-1.1,1.5-2.3,1.5
		c-5-0.1-10.1,0-15.1,0c-0.9,0-1.6,0.3-2.2,1c-1.2,1.4-2.3,2.9-3.6,4.2c-1,1-1.2,2-1,3.3c0.7,4.6,1.3,9.2,1.9,13.8
		c0.2,1.5,0,2.5-1.5,3.4c-2.2,1.2-4.4,2.7-6.5,4.1c-0.8,0.5-1.5,0.6-2.3,0C177.7,210.9,173.4,208.3,169.3,205.6z M261.6,246.5
		c-1.1,1.2-2.2,2.5-3.4,3.6c-1,0.9-1.4,2-1.2,3.3c0.5,4.9,0,9.9,0.5,14.8c0.1,0.8-0.2,1.3-1,1.6c-3,1.1-5.9,2.3-8.9,3.5
		c-1,0.4-1.5-0.2-2-0.8c-3.1-3.5-6.2-7-9.1-10.6c-1.2-1.4-2.5-2-4.2-2.1c-1.1,0-2.3-0.1-3.4-0.3c-1.3-0.2-2.3,0.2-3.4,1.1
		c-3.7,3.2-7.5,6.3-11.2,9.4c-0.8,0.7-1.5,0.8-2.4,0.2c-2.5-1.5-5-3-7.5-4.4c-1-0.6-1.2-1.2-1-2.3c0.9-4.9,1.8-9.8,2.7-14.7
		c0.2-1.1,0.1-2-0.6-2.8c-0.3-0.4-0.6-0.8-0.8-1.2c-1.5-3.4-4.2-4.7-7.8-5.2c-3.8-0.5-7.5-1.5-11.3-2.2c-0.9-0.2-1.4-0.6-1.5-1.6
		c-0.4-3.1-0.8-6.2-1.3-9.3c-0.2-1,0.4-1.3,1.1-1.6c4.4-2.4,8.8-4.8,13.2-7.1c1.1-0.6,1.7-1.2,2-2.4c0.3-1.2,0.6-2.3,1.1-3.4
		c0.8-1.8,0.5-3.3-0.4-4.9c-2.2-4-4.2-8.2-6.3-12.3c-0.5-1-0.5-1.7,0.4-2.5c2-2.1,4-4.2,5.9-6.4c0.7-0.8,1.4-0.9,2.4-0.5
		c4.6,2,9.3,4,13.9,6c0.9,0.4,1.8,0.4,2.7,0.1c6-2.2,6-2.2,8.6-8.1c1.4-3.2,2.9-6.3,4.3-9.5c0.4-1,1-1.2,2-1.1
		c2.9,0.3,5.8,0.6,8.6,0.7c1.3,0.1,1.7,0.7,2,1.7c1.3,4.8,2.7,9.6,3.9,14.4c0.3,0.9,0.7,1.6,1.6,2c1.1,0.6,2.3,1.2,3.3,1.9
		c1.6,1.2,3.2,1.2,5.1,0.7c4.4-1.2,8.9-2.2,13.4-3.4c1-0.3,1.6,0,2.1,0.8c1.6,2.5,3.3,5,5,7.4c0.6,0.8,0.5,1.4-0.1,2.2
		c-3,4.1-6,8.3-9.1,12.4c-0.5,0.7-0.8,1.3-0.6,2.2c0.3,1.6,0.5,3.3,0.7,4.9c0.1,1.1,0.6,2,1.5,2.7c4.3,3.2,8.6,6.4,12.9,9.6
		c0,0.4,0,0.8,0,1.1c-0.9,2.9-1.9,5.8-2.8,8.7c-0.4,1.2-0.9,1.6-2.2,1.7c-5.1,0.1-10.1,0.4-15.2,0.6
		C262.7,245.6,262.1,245.9,261.6,246.5z M292.2,305.6c-8.9,0-16.1-7.2-16.1-16.1s7.2-16.1,16.1-16.1s16.1,7.2,16.1,16.1
		S301.1,305.6,292.2,305.6z M292.2,87.7c-8.9,0-16.1-7.2-16.1-16.1s7.2-16.1,16.1-16.1s16.1,7.2,16.1,16.1S301.1,87.7,292.2,87.7z"
		/>
</g>
</svg>
