<?xml version="1.0" encoding="utf-8"?>
<!-- Generator: Adobe Illustrator 19.1.0, SVG Export Plug-In . SVG Version: 6.00 Build 0)  -->
<svg version="1.1" id="Layer_1" xmlns="http://www.w3.org/2000/svg" xmlns:xlink="http://www.w3.org/1999/xlink" x="0px" y="0px"
	 viewBox="0 0 300 300.1" style="enable-background:new 0 0 300 300.1;" xml:space="preserve">
<style type="text/css">
	.st0{fill-rule:evenodd;clip-rule:evenodd;fill:#B7B3B5;}
	.st1{fill-rule:evenodd;clip-rule:evenodd;fill:#FFFFFF;}
</style>
<g>
	<path class="st0" d="M184.9,48.3c-1.2,9.9,1,19,2.1,28.3c0.1,1.2,0,2.6-0.6,3.6c-6.8,12.8-2.3,27.5,10.6,34.2
		c11.9,6.2,26.7,1,33-11.6c4.8-9.6,2.2-21.7-6-29c-1.2-1-2.1-2.8-2.4-4.3c-0.9-5-1.4-10.1-1.9-15.2c-0.1-0.8,0.1-1.7,0.2-3.1
		c4.4,0.5,8.5,1,12.7,1.5c2.6,0.4,5.2,0.9,7.8,1.5c3,0.7,5.1,2.6,5.7,5.7c1.1,6,2.2,12,2.7,18c1.7,19.2,3.3,38.4,4.5,57.6
		c0.5,8.1-0.2,16.3-0.8,24.4c-0.2,2.2-1.6,4.7-3.3,6.3c-42.1,42.3-84.3,84.5-126.5,126.7c-9.7,9.6-21.6,9.7-31.2,0
		c-28-28-56-56-84-84c-9.7-9.7-9.7-21.6-0.1-31.2c42.2-42.2,84.4-84.4,126.6-126.5c1.4-1.4,3.7-2.6,5.6-2.6
		c12.8-0.3,25.5-0.2,38.3-0.2C180.1,48.3,182.4,48.3,184.9,48.3z"/>
	<path class="st0" d="M300,58.7c-0.9,28.5-7.3,53.7-19.9,77.4c-3.1,5.8-9,7.3-13.8,3.7c-3.6-2.7-4.2-7.3-1.6-12.2
		c5.3-9.8,9.2-20.1,12.2-30.9c4-14.8,6.4-29.8,5.1-45.1c-1.4-16.2-11.9-29.1-26.6-32.8c-22.9-5.8-45.5,12-44.2,35.7
		c0.6,11.5,3.2,22.9,5,34.3c0.9,5.4-0.4,9.1-4.2,11.2c-4.5,2.5-10.4,0.7-11.9-4.2c-1.8-5.9-3-12-3.8-18.1
		c-1.2-9.1-2.7-18.3-2.6-27.5c0.3-24.3,20.8-46.2,44.9-49.5c32.1-4.4,57.6,17.5,61,49.5C299.9,53.5,299.9,57,300,58.7z"/>
</g>
</svg>
