<?xml version="1.0" encoding="utf-8"?>
<!-- Generator: Adobe Illustrator 19.1.0, SVG Export Plug-In . SVG Version: 6.00 Build 0)  -->
<svg version="1.1" baseProfile="tiny" id="Layer_1" xmlns="http://www.w3.org/2000/svg" xmlns:xlink="http://www.w3.org/1999/xlink"
	 x="0px" y="0px" viewBox="0 0 360 360" xml:space="preserve">
<path fill-rule="evenodd" d="M235.3,220.2c12.9-15.5,21.4-32.8,24.9-52.5c3.5-19.8,1.9-39.1-5-58c-6.9-18.8-18-34.6-33.4-47.3
	c-43.5-35.8-107.3-34.2-148.6,6.5c-39,38.4-43.8,98.5-13.1,142.4c16.9,24.1,39.9,39.4,68.8,45.3c31.6,6.4,60.7-0.2,87.6-18.8
	c28.5,28.5,57.1,57.1,85.4,85.4c6-6,12-12,18.2-18.2C291.9,276.8,263.7,248.6,235.3,220.2z M151,245.7
	c-54.1-0.1-98.1-44.1-97.8-97.9c0.3-54.2,44.1-98,98-97.9c53.9,0.1,98,44.2,97.9,98C248.9,201.9,204.9,245.8,151,245.7z"/>
</svg>
