<?xml version="1.0" encoding="utf-8"?>
<!-- Generator: Adobe Illustrator 19.1.0, SVG Export Plug-In . SVG Version: 6.00 Build 0)  -->
<svg version="1.1" baseProfile="tiny" id="Layer_1" xmlns="http://www.w3.org/2000/svg" xmlns:xlink="http://www.w3.org/1999/xlink"
	 x="0px" y="0px" viewBox="0 0 360 360" xml:space="preserve">
<g>
	<path d="M309.6,194.7c0-6.3,7.2-10.9,7.2-16.3s-13.6-24.5-24.5-25.4c-10.9-0.9-68.9-2.7-73.4-9.1c-4.5-6.3,20.9-47.1,21.8-74.3
		c0.9-27.2-25.3-35.3-34.4-31.7c-9.1,3.6-0.7,23.6-8,40.8c-7.3,17.2-25.1,42.6-35,54.4c-10,11.8-17.1,32.6-22.5,42.6
		c-5.4,10-21.9,18.1-21.9,18.1s0,94.2,0,111.5c21,0,45.9,14.7,64.5,16.3c20.8,1.8,57.9,2.7,81.4-2.7c8.1-1.9,23.7-13.6,27.3-19
		c3.6-5.4-0.8-14.5,2.8-19c3.6-4.5,17.3-17.2,17.3-25.4c0-8.2-5.4-14.5-5.4-22.7c0-8.2,8.2-13.6,8.2-21.7
		C315,202.8,309.6,201,309.6,194.7z"/>
	<polygon points="59.5,315 103,315 103,185 43.2,185 	"/>
</g>
</svg>
